G04 #@! TF.GenerationSoftware,KiCad,Pcbnew,(5.0.0)*
G04 #@! TF.CreationDate,2018-09-24T12:18:47+08:00*
G04 #@! TF.ProjectId,Clouduino Stratus v1.0,436C6F756475696E6F20537472617475,rev?*
G04 #@! TF.SameCoordinates,Original*
G04 #@! TF.FileFunction,Legend,Top*
G04 #@! TF.FilePolarity,Positive*
%FSLAX46Y46*%
G04 Gerber Fmt 4.6, Leading zero omitted, Abs format (unit mm)*
G04 Created by KiCad (PCBNEW (5.0.0)) date 09/24/18 12:18:47*
%MOMM*%
%LPD*%
G01*
G04 APERTURE LIST*
%ADD10C,0.200000*%
%ADD11C,0.300000*%
%ADD12C,0.120000*%
%ADD13C,0.150000*%
G04 APERTURE END LIST*
D10*
X108897800Y-90017523D02*
X108850180Y-90093714D01*
X108850180Y-90208000D01*
X108897800Y-90322285D01*
X108993038Y-90398476D01*
X109088276Y-90436571D01*
X109278752Y-90474666D01*
X109421609Y-90474666D01*
X109612085Y-90436571D01*
X109707323Y-90398476D01*
X109802561Y-90322285D01*
X109850180Y-90208000D01*
X109850180Y-90131809D01*
X109802561Y-90017523D01*
X109754942Y-89979428D01*
X109421609Y-89979428D01*
X109421609Y-90131809D01*
X109850180Y-89636571D02*
X108850180Y-89636571D01*
X109850180Y-89179428D01*
X108850180Y-89179428D01*
X109850180Y-88798476D02*
X108850180Y-88798476D01*
X108850180Y-88608000D01*
X108897800Y-88493714D01*
X108993038Y-88417523D01*
X109088276Y-88379428D01*
X109278752Y-88341333D01*
X109421609Y-88341333D01*
X109612085Y-88379428D01*
X109707323Y-88417523D01*
X109802561Y-88493714D01*
X109850180Y-88608000D01*
X109850180Y-88798476D01*
X109849920Y-98130360D02*
X108808520Y-98130360D01*
X109819440Y-90957400D02*
X108986320Y-90957400D01*
X109819440Y-92943680D02*
X109819440Y-90957400D01*
X109860080Y-96027240D02*
X109860080Y-98125280D01*
X108829860Y-95696906D02*
X109829860Y-95430240D01*
X108829860Y-95163573D01*
X109734622Y-94439763D02*
X109782241Y-94477859D01*
X109829860Y-94592144D01*
X109829860Y-94668335D01*
X109782241Y-94782620D01*
X109687003Y-94858811D01*
X109591765Y-94896906D01*
X109401289Y-94935001D01*
X109258432Y-94935001D01*
X109067956Y-94896906D01*
X108972718Y-94858811D01*
X108877480Y-94782620D01*
X108829860Y-94668335D01*
X108829860Y-94592144D01*
X108877480Y-94477859D01*
X108925099Y-94439763D01*
X109734622Y-93639763D02*
X109782241Y-93677859D01*
X109829860Y-93792144D01*
X109829860Y-93868335D01*
X109782241Y-93982620D01*
X109687003Y-94058811D01*
X109591765Y-94096906D01*
X109401289Y-94135001D01*
X109258432Y-94135001D01*
X109067956Y-94096906D01*
X108972718Y-94058811D01*
X108877480Y-93982620D01*
X108829860Y-93868335D01*
X108829860Y-93792144D01*
X108877480Y-93677859D01*
X108925099Y-93639763D01*
D11*
X109034651Y-79395782D02*
X110177508Y-79395782D01*
X109606080Y-79967211D02*
X109606080Y-78824354D01*
X109848685Y-99219011D02*
X109134400Y-99219011D01*
X109062971Y-99933297D01*
X109134400Y-99861868D01*
X109277257Y-99790440D01*
X109634400Y-99790440D01*
X109777257Y-99861868D01*
X109848685Y-99933297D01*
X109920114Y-100076154D01*
X109920114Y-100433297D01*
X109848685Y-100576154D01*
X109777257Y-100647582D01*
X109634400Y-100719011D01*
X109277257Y-100719011D01*
X109134400Y-100647582D01*
X109062971Y-100576154D01*
X110348685Y-99219011D02*
X110848685Y-100719011D01*
X111348685Y-99219011D01*
X109295582Y-86816428D02*
X109152725Y-86745000D01*
X109081297Y-86673571D01*
X109009868Y-86530714D01*
X109009868Y-86459285D01*
X109081297Y-86316428D01*
X109152725Y-86245000D01*
X109295582Y-86173571D01*
X109581297Y-86173571D01*
X109724154Y-86245000D01*
X109795582Y-86316428D01*
X109867011Y-86459285D01*
X109867011Y-86530714D01*
X109795582Y-86673571D01*
X109724154Y-86745000D01*
X109581297Y-86816428D01*
X109295582Y-86816428D01*
X109152725Y-86887857D01*
X109081297Y-86959285D01*
X109009868Y-87102142D01*
X109009868Y-87387857D01*
X109081297Y-87530714D01*
X109152725Y-87602142D01*
X109295582Y-87673571D01*
X109581297Y-87673571D01*
X109724154Y-87602142D01*
X109795582Y-87530714D01*
X109867011Y-87387857D01*
X109867011Y-87102142D01*
X109795582Y-86959285D01*
X109724154Y-86887857D01*
X109581297Y-86816428D01*
X109009560Y-83653891D02*
X110009560Y-83653891D01*
X109366702Y-85153891D01*
X109734314Y-81093571D02*
X109448600Y-81093571D01*
X109305742Y-81165000D01*
X109234314Y-81236428D01*
X109091457Y-81450714D01*
X109020028Y-81736428D01*
X109020028Y-82307857D01*
X109091457Y-82450714D01*
X109162885Y-82522142D01*
X109305742Y-82593571D01*
X109591457Y-82593571D01*
X109734314Y-82522142D01*
X109805742Y-82450714D01*
X109877171Y-82307857D01*
X109877171Y-81950714D01*
X109805742Y-81807857D01*
X109734314Y-81736428D01*
X109591457Y-81665000D01*
X109305742Y-81665000D01*
X109162885Y-81736428D01*
X109091457Y-81807857D01*
X109020028Y-81950714D01*
X109851462Y-76089771D02*
X109137177Y-76089771D01*
X109065748Y-76804057D01*
X109137177Y-76732628D01*
X109280034Y-76661200D01*
X109637177Y-76661200D01*
X109780034Y-76732628D01*
X109851462Y-76804057D01*
X109922891Y-76946914D01*
X109922891Y-77304057D01*
X109851462Y-77446914D01*
X109780034Y-77518342D01*
X109637177Y-77589771D01*
X109280034Y-77589771D01*
X109137177Y-77518342D01*
X109065748Y-77446914D01*
X109749554Y-73973571D02*
X109749554Y-74973571D01*
X109392411Y-73402142D02*
X109035268Y-74473571D01*
X109963840Y-74473571D01*
X109034960Y-70933571D02*
X109963531Y-70933571D01*
X109463531Y-71505000D01*
X109677817Y-71505000D01*
X109820674Y-71576428D01*
X109892102Y-71647857D01*
X109963531Y-71790714D01*
X109963531Y-72147857D01*
X109892102Y-72290714D01*
X109820674Y-72362142D01*
X109677817Y-72433571D01*
X109249245Y-72433571D01*
X109106388Y-72362142D01*
X109034960Y-72290714D01*
X109080988Y-68582148D02*
X109152417Y-68510720D01*
X109295274Y-68439291D01*
X109652417Y-68439291D01*
X109795274Y-68510720D01*
X109866702Y-68582148D01*
X109938131Y-68725005D01*
X109938131Y-68867862D01*
X109866702Y-69082148D01*
X109009560Y-69939291D01*
X109938131Y-69939291D01*
X109897491Y-67213871D02*
X109040348Y-67213871D01*
X109468920Y-67213871D02*
X109468920Y-65713871D01*
X109326062Y-65928157D01*
X109183205Y-66071014D01*
X109040348Y-66142442D01*
X109157497Y-64329120D02*
X109871782Y-64329120D01*
X109014640Y-64757691D02*
X109514640Y-63257691D01*
X110014640Y-64757691D01*
X109621782Y-61503097D02*
X109836068Y-61574525D01*
X109907497Y-61645954D01*
X109978925Y-61788811D01*
X109978925Y-62003097D01*
X109907497Y-62145954D01*
X109836068Y-62217382D01*
X109693211Y-62288811D01*
X109121782Y-62288811D01*
X109121782Y-60788811D01*
X109621782Y-60788811D01*
X109764640Y-60860240D01*
X109836068Y-60931668D01*
X109907497Y-61074525D01*
X109907497Y-61217382D01*
X109836068Y-61360240D01*
X109764640Y-61431668D01*
X109621782Y-61503097D01*
X109121782Y-61503097D01*
X151260845Y-62347231D02*
X150403702Y-62347231D01*
X150832274Y-62347231D02*
X150832274Y-60847231D01*
X150689417Y-61061517D01*
X150546560Y-61204374D01*
X150403702Y-61275802D01*
X152546560Y-60847231D02*
X152260845Y-60847231D01*
X152117988Y-60918660D01*
X152046560Y-60990088D01*
X151903702Y-61204374D01*
X151832274Y-61490088D01*
X151832274Y-62061517D01*
X151903702Y-62204374D01*
X151975131Y-62275802D01*
X152117988Y-62347231D01*
X152403702Y-62347231D01*
X152546560Y-62275802D01*
X152617988Y-62204374D01*
X152689417Y-62061517D01*
X152689417Y-61704374D01*
X152617988Y-61561517D01*
X152546560Y-61490088D01*
X152403702Y-61418660D01*
X152117988Y-61418660D01*
X151975131Y-61490088D01*
X151903702Y-61561517D01*
X151832274Y-61704374D01*
X151296405Y-64910091D02*
X150439262Y-64910091D01*
X150867834Y-64910091D02*
X150867834Y-63410091D01*
X150724977Y-63624377D01*
X150582120Y-63767234D01*
X150439262Y-63838662D01*
X152653548Y-63410091D02*
X151939262Y-63410091D01*
X151867834Y-64124377D01*
X151939262Y-64052948D01*
X152082120Y-63981520D01*
X152439262Y-63981520D01*
X152582120Y-64052948D01*
X152653548Y-64124377D01*
X152724977Y-64267234D01*
X152724977Y-64624377D01*
X152653548Y-64767234D01*
X152582120Y-64838662D01*
X152439262Y-64910091D01*
X152082120Y-64910091D01*
X151939262Y-64838662D01*
X151867834Y-64767234D01*
X151301485Y-67302771D02*
X150444342Y-67302771D01*
X150872914Y-67302771D02*
X150872914Y-65802771D01*
X150730057Y-66017057D01*
X150587200Y-66159914D01*
X150444342Y-66231342D01*
X152587200Y-66302771D02*
X152587200Y-67302771D01*
X152230057Y-65731342D02*
X151872914Y-66802771D01*
X152801485Y-66802771D01*
X151331965Y-69807211D02*
X150474822Y-69807211D01*
X150903394Y-69807211D02*
X150903394Y-68307211D01*
X150760537Y-68521497D01*
X150617680Y-68664354D01*
X150474822Y-68735782D01*
X151831965Y-68307211D02*
X152760537Y-68307211D01*
X152260537Y-68878640D01*
X152474822Y-68878640D01*
X152617680Y-68950068D01*
X152689108Y-69021497D01*
X152760537Y-69164354D01*
X152760537Y-69521497D01*
X152689108Y-69664354D01*
X152617680Y-69735782D01*
X152474822Y-69807211D01*
X152046251Y-69807211D01*
X151903394Y-69735782D01*
X151831965Y-69664354D01*
X151362445Y-72413251D02*
X150505302Y-72413251D01*
X150933874Y-72413251D02*
X150933874Y-70913251D01*
X150791017Y-71127537D01*
X150648160Y-71270394D01*
X150505302Y-71341822D01*
X151933874Y-71056108D02*
X152005302Y-70984680D01*
X152148160Y-70913251D01*
X152505302Y-70913251D01*
X152648160Y-70984680D01*
X152719588Y-71056108D01*
X152791017Y-71198965D01*
X152791017Y-71341822D01*
X152719588Y-71556108D01*
X151862445Y-72413251D01*
X152791017Y-72413251D01*
X151362445Y-74902451D02*
X150505302Y-74902451D01*
X150933874Y-74902451D02*
X150933874Y-73402451D01*
X150791017Y-73616737D01*
X150648160Y-73759594D01*
X150505302Y-73831022D01*
X152791017Y-74902451D02*
X151933874Y-74902451D01*
X152362445Y-74902451D02*
X152362445Y-73402451D01*
X152219588Y-73616737D01*
X152076731Y-73759594D01*
X151933874Y-73831022D01*
X151321805Y-77668511D02*
X150464662Y-77668511D01*
X150893234Y-77668511D02*
X150893234Y-76168511D01*
X150750377Y-76382797D01*
X150607520Y-76525654D01*
X150464662Y-76597082D01*
X152250377Y-76168511D02*
X152393234Y-76168511D01*
X152536091Y-76239940D01*
X152607520Y-76311368D01*
X152678948Y-76454225D01*
X152750377Y-76739940D01*
X152750377Y-77097082D01*
X152678948Y-77382797D01*
X152607520Y-77525654D01*
X152536091Y-77597082D01*
X152393234Y-77668511D01*
X152250377Y-77668511D01*
X152107520Y-77597082D01*
X152036091Y-77525654D01*
X151964662Y-77382797D01*
X151893234Y-77097082D01*
X151893234Y-76739940D01*
X151964662Y-76454225D01*
X152036091Y-76311368D01*
X152107520Y-76239940D01*
X152250377Y-76168511D01*
X152020305Y-80233911D02*
X152306020Y-80233911D01*
X152448877Y-80162482D01*
X152520305Y-80091054D01*
X152663162Y-79876768D01*
X152734591Y-79591054D01*
X152734591Y-79019625D01*
X152663162Y-78876768D01*
X152591734Y-78805340D01*
X152448877Y-78733911D01*
X152163162Y-78733911D01*
X152020305Y-78805340D01*
X151948877Y-78876768D01*
X151877448Y-79019625D01*
X151877448Y-79376768D01*
X151948877Y-79519625D01*
X152020305Y-79591054D01*
X152163162Y-79662482D01*
X152448877Y-79662482D01*
X152591734Y-79591054D01*
X152663162Y-79519625D01*
X152734591Y-79376768D01*
X106518271Y-56456971D02*
X106518271Y-54956971D01*
X106875414Y-54956971D01*
X107089700Y-55028400D01*
X107232557Y-55171257D01*
X107303985Y-55314114D01*
X107375414Y-55599828D01*
X107375414Y-55814114D01*
X107303985Y-56099828D01*
X107232557Y-56242685D01*
X107089700Y-56385542D01*
X106875414Y-56456971D01*
X106518271Y-56456971D01*
X107803985Y-54956971D02*
X108661128Y-54956971D01*
X108232557Y-56456971D02*
X108232557Y-54956971D01*
X109875414Y-56456971D02*
X109161128Y-56456971D01*
X109161128Y-54956971D01*
X150741831Y-82347880D02*
X151456117Y-82347880D01*
X150598974Y-82776451D02*
X151098974Y-81276451D01*
X151598974Y-82776451D01*
X151956117Y-81276451D02*
X152956117Y-81276451D01*
X152313260Y-82776451D01*
X150792631Y-84837080D02*
X151506917Y-84837080D01*
X150649774Y-85265651D02*
X151149774Y-83765651D01*
X151649774Y-85265651D01*
X152792631Y-83765651D02*
X152506917Y-83765651D01*
X152364060Y-83837080D01*
X152292631Y-83908508D01*
X152149774Y-84122794D01*
X152078345Y-84408508D01*
X152078345Y-84979937D01*
X152149774Y-85122794D01*
X152221202Y-85194222D01*
X152364060Y-85265651D01*
X152649774Y-85265651D01*
X152792631Y-85194222D01*
X152864060Y-85122794D01*
X152935488Y-84979937D01*
X152935488Y-84622794D01*
X152864060Y-84479937D01*
X152792631Y-84408508D01*
X152649774Y-84337080D01*
X152364060Y-84337080D01*
X152221202Y-84408508D01*
X152149774Y-84479937D01*
X152078345Y-84622794D01*
X150792631Y-87478680D02*
X151506917Y-87478680D01*
X150649774Y-87907251D02*
X151149774Y-86407251D01*
X151649774Y-87907251D01*
X152864060Y-86407251D02*
X152149774Y-86407251D01*
X152078345Y-87121537D01*
X152149774Y-87050108D01*
X152292631Y-86978680D01*
X152649774Y-86978680D01*
X152792631Y-87050108D01*
X152864060Y-87121537D01*
X152935488Y-87264394D01*
X152935488Y-87621537D01*
X152864060Y-87764394D01*
X152792631Y-87835822D01*
X152649774Y-87907251D01*
X152292631Y-87907251D01*
X152149774Y-87835822D01*
X152078345Y-87764394D01*
X150716431Y-90082180D02*
X151430717Y-90082180D01*
X150573574Y-90510751D02*
X151073574Y-89010751D01*
X151573574Y-90510751D01*
X152716431Y-89510751D02*
X152716431Y-90510751D01*
X152359288Y-88939322D02*
X152002145Y-90010751D01*
X152930717Y-90010751D01*
X150792631Y-92698380D02*
X151506917Y-92698380D01*
X150649774Y-93126951D02*
X151149774Y-91626951D01*
X151649774Y-93126951D01*
X152006917Y-91626951D02*
X152935488Y-91626951D01*
X152435488Y-92198380D01*
X152649774Y-92198380D01*
X152792631Y-92269808D01*
X152864060Y-92341237D01*
X152935488Y-92484094D01*
X152935488Y-92841237D01*
X152864060Y-92984094D01*
X152792631Y-93055522D01*
X152649774Y-93126951D01*
X152221202Y-93126951D01*
X152078345Y-93055522D01*
X152006917Y-92984094D01*
X150792631Y-95124080D02*
X151506917Y-95124080D01*
X150649774Y-95552651D02*
X151149774Y-94052651D01*
X151649774Y-95552651D01*
X152078345Y-94195508D02*
X152149774Y-94124080D01*
X152292631Y-94052651D01*
X152649774Y-94052651D01*
X152792631Y-94124080D01*
X152864060Y-94195508D01*
X152935488Y-94338365D01*
X152935488Y-94481222D01*
X152864060Y-94695508D01*
X152006917Y-95552651D01*
X152935488Y-95552651D01*
X150805331Y-97664080D02*
X151519617Y-97664080D01*
X150662474Y-98092651D02*
X151162474Y-96592651D01*
X151662474Y-98092651D01*
X152948188Y-98092651D02*
X152091045Y-98092651D01*
X152519617Y-98092651D02*
X152519617Y-96592651D01*
X152376760Y-96806937D01*
X152233902Y-96949794D01*
X152091045Y-97021222D01*
X150779931Y-100229480D02*
X151494217Y-100229480D01*
X150637074Y-100658051D02*
X151137074Y-99158051D01*
X151637074Y-100658051D01*
X152422788Y-99158051D02*
X152565645Y-99158051D01*
X152708502Y-99229480D01*
X152779931Y-99300908D01*
X152851360Y-99443765D01*
X152922788Y-99729480D01*
X152922788Y-100086622D01*
X152851360Y-100372337D01*
X152779931Y-100515194D01*
X152708502Y-100586622D01*
X152565645Y-100658051D01*
X152422788Y-100658051D01*
X152279931Y-100586622D01*
X152208502Y-100515194D01*
X152137074Y-100372337D01*
X152065645Y-100086622D01*
X152065645Y-99729480D01*
X152137074Y-99443765D01*
X152208502Y-99300908D01*
X152279931Y-99229480D01*
X152422788Y-99158051D01*
X146211014Y-79217071D02*
X146115776Y-79121833D01*
X146020538Y-78836119D01*
X146020538Y-78645642D01*
X146115776Y-78359928D01*
X146306252Y-78169452D01*
X146496728Y-78074214D01*
X146877680Y-77978976D01*
X147163395Y-77978976D01*
X147544347Y-78074214D01*
X147734823Y-78169452D01*
X147925300Y-78359928D01*
X148020538Y-78645642D01*
X148020538Y-78836119D01*
X147925300Y-79121833D01*
X147830061Y-79217071D01*
X146020538Y-80359928D02*
X146115776Y-80169452D01*
X146306252Y-80074214D01*
X148020538Y-80074214D01*
X146020538Y-81407547D02*
X146115776Y-81217071D01*
X146211014Y-81121833D01*
X146401490Y-81026595D01*
X146972919Y-81026595D01*
X147163395Y-81121833D01*
X147258633Y-81217071D01*
X147353871Y-81407547D01*
X147353871Y-81693261D01*
X147258633Y-81883738D01*
X147163395Y-81978976D01*
X146972919Y-82074214D01*
X146401490Y-82074214D01*
X146211014Y-81978976D01*
X146115776Y-81883738D01*
X146020538Y-81693261D01*
X146020538Y-81407547D01*
X147353871Y-83788500D02*
X146020538Y-83788500D01*
X147353871Y-82931357D02*
X146306252Y-82931357D01*
X146115776Y-83026595D01*
X146020538Y-83217071D01*
X146020538Y-83502785D01*
X146115776Y-83693261D01*
X146211014Y-83788500D01*
X146020538Y-85598023D02*
X148020538Y-85598023D01*
X146115776Y-85598023D02*
X146020538Y-85407547D01*
X146020538Y-85026595D01*
X146115776Y-84836119D01*
X146211014Y-84740880D01*
X146401490Y-84645642D01*
X146972919Y-84645642D01*
X147163395Y-84740880D01*
X147258633Y-84836119D01*
X147353871Y-85026595D01*
X147353871Y-85407547D01*
X147258633Y-85598023D01*
X147353871Y-87407547D02*
X146020538Y-87407547D01*
X147353871Y-86550404D02*
X146306252Y-86550404D01*
X146115776Y-86645642D01*
X146020538Y-86836119D01*
X146020538Y-87121833D01*
X146115776Y-87312309D01*
X146211014Y-87407547D01*
X146020538Y-88359928D02*
X147353871Y-88359928D01*
X148020538Y-88359928D02*
X147925300Y-88264690D01*
X147830061Y-88359928D01*
X147925300Y-88455166D01*
X148020538Y-88359928D01*
X147830061Y-88359928D01*
X147353871Y-89312309D02*
X146020538Y-89312309D01*
X147163395Y-89312309D02*
X147258633Y-89407547D01*
X147353871Y-89598023D01*
X147353871Y-89883738D01*
X147258633Y-90074214D01*
X147068157Y-90169452D01*
X146020538Y-90169452D01*
X146020538Y-91407547D02*
X146115776Y-91217071D01*
X146211014Y-91121833D01*
X146401490Y-91026595D01*
X146972919Y-91026595D01*
X147163395Y-91121833D01*
X147258633Y-91217071D01*
X147353871Y-91407547D01*
X147353871Y-91693261D01*
X147258633Y-91883738D01*
X147163395Y-91978976D01*
X146972919Y-92074214D01*
X146401490Y-92074214D01*
X146211014Y-91978976D01*
X146115776Y-91883738D01*
X146020538Y-91693261D01*
X146020538Y-91407547D01*
X142815776Y-82264690D02*
X142720538Y-82550404D01*
X142720538Y-83026595D01*
X142815776Y-83217071D01*
X142911014Y-83312309D01*
X143101490Y-83407547D01*
X143291966Y-83407547D01*
X143482442Y-83312309D01*
X143577680Y-83217071D01*
X143672919Y-83026595D01*
X143768157Y-82645642D01*
X143863395Y-82455166D01*
X143958633Y-82359928D01*
X144149109Y-82264690D01*
X144339585Y-82264690D01*
X144530061Y-82359928D01*
X144625300Y-82455166D01*
X144720538Y-82645642D01*
X144720538Y-83121833D01*
X144625300Y-83407547D01*
X144053871Y-83978976D02*
X144053871Y-84740880D01*
X144720538Y-84264690D02*
X143006252Y-84264690D01*
X142815776Y-84359928D01*
X142720538Y-84550404D01*
X142720538Y-84740880D01*
X142720538Y-85407547D02*
X144053871Y-85407547D01*
X143672919Y-85407547D02*
X143863395Y-85502785D01*
X143958633Y-85598023D01*
X144053871Y-85788500D01*
X144053871Y-85978976D01*
X142720538Y-87502785D02*
X143768157Y-87502785D01*
X143958633Y-87407547D01*
X144053871Y-87217071D01*
X144053871Y-86836119D01*
X143958633Y-86645642D01*
X142815776Y-87502785D02*
X142720538Y-87312309D01*
X142720538Y-86836119D01*
X142815776Y-86645642D01*
X143006252Y-86550404D01*
X143196728Y-86550404D01*
X143387204Y-86645642D01*
X143482442Y-86836119D01*
X143482442Y-87312309D01*
X143577680Y-87502785D01*
X144053871Y-88169452D02*
X144053871Y-88931357D01*
X144720538Y-88455166D02*
X143006252Y-88455166D01*
X142815776Y-88550404D01*
X142720538Y-88740880D01*
X142720538Y-88931357D01*
X144053871Y-90455166D02*
X142720538Y-90455166D01*
X144053871Y-89598023D02*
X143006252Y-89598023D01*
X142815776Y-89693261D01*
X142720538Y-89883738D01*
X142720538Y-90169452D01*
X142815776Y-90359928D01*
X142911014Y-90455166D01*
X142815776Y-91312309D02*
X142720538Y-91502785D01*
X142720538Y-91883738D01*
X142815776Y-92074214D01*
X143006252Y-92169452D01*
X143101490Y-92169452D01*
X143291966Y-92074214D01*
X143387204Y-91883738D01*
X143387204Y-91598023D01*
X143482442Y-91407547D01*
X143672919Y-91312309D01*
X143768157Y-91312309D01*
X143958633Y-91407547D01*
X144053871Y-91598023D01*
X144053871Y-91883738D01*
X143958633Y-92074214D01*
X144053871Y-94359928D02*
X142720538Y-94836119D01*
X144053871Y-95312309D01*
X142720538Y-97121833D02*
X142720538Y-95978976D01*
X142720538Y-96550404D02*
X144720538Y-96550404D01*
X144434823Y-96359928D01*
X144244347Y-96169452D01*
X144149109Y-95978976D01*
X142911014Y-97978976D02*
X142815776Y-98074214D01*
X142720538Y-97978976D01*
X142815776Y-97883738D01*
X142911014Y-97978976D01*
X142720538Y-97978976D01*
X144720538Y-99312309D02*
X144720538Y-99502785D01*
X144625300Y-99693261D01*
X144530061Y-99788500D01*
X144339585Y-99883738D01*
X143958633Y-99978976D01*
X143482442Y-99978976D01*
X143101490Y-99883738D01*
X142911014Y-99788500D01*
X142815776Y-99693261D01*
X142720538Y-99502785D01*
X142720538Y-99312309D01*
X142815776Y-99121833D01*
X142911014Y-99026595D01*
X143101490Y-98931357D01*
X143482442Y-98836119D01*
X143958633Y-98836119D01*
X144339585Y-98931357D01*
X144530061Y-99026595D01*
X144625300Y-99121833D01*
X144720538Y-99312309D01*
D12*
G04 #@! TO.C,U3*
X122585651Y-46787661D02*
X121975651Y-46787661D01*
X122585651Y-46787661D02*
X122585651Y-39167661D01*
X122585651Y-63407661D02*
X122585651Y-62787661D01*
X124705651Y-63407661D02*
X122585651Y-63407661D01*
X138825651Y-63407661D02*
X136705651Y-63407661D01*
X138825651Y-62787661D02*
X138825651Y-63407661D01*
X138825651Y-39167661D02*
X138825651Y-46787661D01*
X122585651Y-39167661D02*
X138825651Y-39167661D01*
D13*
G04 #@! TO.C,U4*
X138473000Y-98903000D02*
X139848000Y-98903000D01*
X138473000Y-88778000D02*
X134323000Y-88778000D01*
X138473000Y-98928000D02*
X134323000Y-98928000D01*
X138473000Y-88778000D02*
X138473000Y-88883000D01*
X134323000Y-88778000D02*
X134323000Y-88883000D01*
X134323000Y-98928000D02*
X134323000Y-98823000D01*
X138473000Y-98928000D02*
X138473000Y-98903000D01*
D12*
G04 #@! TO.C,C1*
X145927000Y-73485000D02*
X145927000Y-71485000D01*
X143887000Y-71485000D02*
X143887000Y-73485000D01*
G04 #@! TO.C,C2*
X115072346Y-85188894D02*
X115072346Y-87188894D01*
X117112346Y-87188894D02*
X117112346Y-85188894D01*
G04 #@! TO.C,C3*
X116221000Y-59305000D02*
X114221000Y-59305000D01*
X114221000Y-61345000D02*
X116221000Y-61345000D01*
G04 #@! TO.C,C4*
X112679346Y-67142894D02*
X114679346Y-67142894D01*
X114679346Y-65102894D02*
X112679346Y-65102894D01*
G04 #@! TO.C,C5*
X126375346Y-86458894D02*
X126375346Y-88458894D01*
X128415346Y-88458894D02*
X128415346Y-86458894D01*
G04 #@! TO.C,C6*
X119136346Y-86490894D02*
X119136346Y-88490894D01*
X121176346Y-88490894D02*
X121176346Y-86490894D01*
G04 #@! TO.C,C7*
X122871346Y-76794894D02*
X124871346Y-76794894D01*
X124871346Y-74754894D02*
X122871346Y-74754894D01*
G04 #@! TO.C,C8*
X135906000Y-88142000D02*
X137906000Y-88142000D01*
X137906000Y-86102000D02*
X135906000Y-86102000D01*
G04 #@! TO.C,D1*
X114432346Y-89462894D02*
X114432346Y-96762894D01*
X110132346Y-89462894D02*
X110132346Y-96762894D01*
X114432346Y-89462894D02*
X110132346Y-89462894D01*
G04 #@! TO.C,D2*
X110132346Y-87072894D02*
X110132346Y-79772894D01*
X114432346Y-87072894D02*
X114432346Y-79772894D01*
X110132346Y-87072894D02*
X114432346Y-87072894D01*
G04 #@! TO.C,POWER*
X125297346Y-66832894D02*
X125297346Y-71532894D01*
X123397346Y-66832894D02*
X123397346Y-71532894D01*
X125297346Y-66832894D02*
X123397346Y-66832894D01*
G04 #@! TO.C,J1*
X120243346Y-92525894D02*
X120243346Y-101725894D01*
X127943346Y-92525894D02*
X120243346Y-92525894D01*
X127943346Y-101725894D02*
X127943346Y-92525894D01*
X120243346Y-101725894D02*
X127943346Y-101725894D01*
X120243346Y-100725894D02*
X127943346Y-100725894D01*
G04 #@! TO.C,L1*
X115593346Y-96059894D02*
X115593346Y-94859894D01*
X117353346Y-94859894D02*
X117353346Y-96059894D01*
G04 #@! TO.C,R1*
X122496346Y-68900894D02*
X122496346Y-70900894D01*
X120356346Y-70900894D02*
X120356346Y-68900894D01*
G04 #@! TO.C,R2*
X116189000Y-58220000D02*
X114189000Y-58220000D01*
X114189000Y-56080000D02*
X116189000Y-56080000D01*
G04 #@! TO.C,R3*
X126052346Y-86458894D02*
X126052346Y-88458894D01*
X123912346Y-88458894D02*
X123912346Y-86458894D01*
G04 #@! TO.C,R4*
X121499346Y-88458894D02*
X121499346Y-86458894D01*
X123639346Y-86458894D02*
X123639346Y-88458894D01*
G04 #@! TO.C,R5*
X144564651Y-54789661D02*
X146564651Y-54789661D01*
X146564651Y-56929661D02*
X144564651Y-56929661D01*
G04 #@! TO.C,R6*
X144564651Y-59996661D02*
X146564651Y-59996661D01*
X146564651Y-62136661D02*
X144564651Y-62136661D01*
G04 #@! TO.C,R7*
X144564651Y-62663661D02*
X146564651Y-62663661D01*
X146564651Y-64803661D02*
X144564651Y-64803661D01*
G04 #@! TO.C,Reset*
X116169865Y-50108661D02*
G75*
G03X116169865Y-50108661I-1414214J0D01*
G01*
X111785651Y-53228661D02*
X117725651Y-53228661D01*
X111785651Y-46988661D02*
X117725651Y-46988661D01*
X111635651Y-51448661D02*
X111635651Y-48768661D01*
X117875651Y-48768661D02*
X117875651Y-51448661D01*
G04 #@! TO.C,Boot*
X149775651Y-48768661D02*
X149775651Y-51448661D01*
X143535651Y-51448661D02*
X143535651Y-48768661D01*
X143685651Y-46988661D02*
X149625651Y-46988661D01*
X143685651Y-53228661D02*
X149625651Y-53228661D01*
X148069865Y-50108661D02*
G75*
G03X148069865Y-50108661I-1414214J0D01*
G01*
D13*
G04 #@! TO.C,U1*
X136906000Y-84328000D02*
X136906000Y-85598000D01*
X135636000Y-84328000D02*
X136906000Y-84328000D01*
X135636000Y-85598000D02*
X135636000Y-84328000D01*
X133604000Y-85598000D02*
X138938000Y-85598000D01*
X138938000Y-67818000D02*
X133604000Y-67818000D01*
X133604000Y-85598000D02*
X133604000Y-67818000D01*
X138938000Y-67945000D02*
X138938000Y-85598000D01*
D12*
G04 #@! TO.C,U2*
X119121346Y-70943894D02*
X117861346Y-70943894D01*
X112301346Y-70943894D02*
X113561346Y-70943894D01*
X119121346Y-74703894D02*
X119121346Y-70943894D01*
X112301346Y-76953894D02*
X112301346Y-70943894D01*
D13*
G04 #@! TO.C,U5*
X126987346Y-82690894D02*
X121712346Y-82690894D01*
X125712346Y-77290894D02*
X121712346Y-77290894D01*
D12*
G04 #@! TO.C,R8*
X146564651Y-59469661D02*
X144564651Y-59469661D01*
X144564651Y-57329661D02*
X146564651Y-57329661D01*
G04 #@! TO.C,J2*
X105391000Y-59925000D02*
X105391000Y-61325000D01*
X106791000Y-59925000D02*
X105391000Y-59925000D01*
X105641000Y-101115000D02*
X105641000Y-61425000D01*
X108481000Y-101115000D02*
X105641000Y-101115000D01*
X108481000Y-60175000D02*
X108481000Y-101115000D01*
X106891000Y-60175000D02*
X108481000Y-60175000D01*
G04 #@! TO.C,J3*
X154856000Y-101115000D02*
X153266000Y-101115000D01*
X153266000Y-101115000D02*
X153266000Y-60175000D01*
X153266000Y-60175000D02*
X156106000Y-60175000D01*
X156106000Y-60175000D02*
X156106000Y-99865000D01*
X154956000Y-101365000D02*
X156356000Y-101365000D01*
X156356000Y-101365000D02*
X156356000Y-99965000D01*
G04 #@! TO.C,U3*
D13*
X129997295Y-50963580D02*
X129997295Y-51773104D01*
X130044914Y-51868342D01*
X130092533Y-51915961D01*
X130187771Y-51963580D01*
X130378247Y-51963580D01*
X130473485Y-51915961D01*
X130521104Y-51868342D01*
X130568723Y-51773104D01*
X130568723Y-50963580D01*
X130949676Y-50963580D02*
X131568723Y-50963580D01*
X131235390Y-51344533D01*
X131378247Y-51344533D01*
X131473485Y-51392152D01*
X131521104Y-51439771D01*
X131568723Y-51535009D01*
X131568723Y-51773104D01*
X131521104Y-51868342D01*
X131473485Y-51915961D01*
X131378247Y-51963580D01*
X131092533Y-51963580D01*
X130997295Y-51915961D01*
X130949676Y-51868342D01*
G04 #@! TO.C,U4*
X136002780Y-100990304D02*
X136812304Y-100990304D01*
X136907542Y-100942685D01*
X136955161Y-100895066D01*
X137002780Y-100799828D01*
X137002780Y-100609352D01*
X136955161Y-100514114D01*
X136907542Y-100466495D01*
X136812304Y-100418876D01*
X136002780Y-100418876D01*
X136336114Y-99514114D02*
X137002780Y-99514114D01*
X135955161Y-99752209D02*
X136669447Y-99990304D01*
X136669447Y-99371257D01*
G04 #@! TO.C,C1*
X145238742Y-72658266D02*
X145286361Y-72705885D01*
X145333980Y-72848742D01*
X145333980Y-72943980D01*
X145286361Y-73086838D01*
X145191123Y-73182076D01*
X145095885Y-73229695D01*
X144905409Y-73277314D01*
X144762552Y-73277314D01*
X144572076Y-73229695D01*
X144476838Y-73182076D01*
X144381600Y-73086838D01*
X144333980Y-72943980D01*
X144333980Y-72848742D01*
X144381600Y-72705885D01*
X144429219Y-72658266D01*
X145333980Y-71705885D02*
X145333980Y-72277314D01*
X145333980Y-71991600D02*
X144333980Y-71991600D01*
X144476838Y-72086838D01*
X144572076Y-72182076D01*
X144619695Y-72277314D01*
G04 #@! TO.C,C2*
X115911333Y-86564742D02*
X115863714Y-86612361D01*
X115720857Y-86659980D01*
X115625619Y-86659980D01*
X115482761Y-86612361D01*
X115387523Y-86517123D01*
X115339904Y-86421885D01*
X115292285Y-86231409D01*
X115292285Y-86088552D01*
X115339904Y-85898076D01*
X115387523Y-85802838D01*
X115482761Y-85707600D01*
X115625619Y-85659980D01*
X115720857Y-85659980D01*
X115863714Y-85707600D01*
X115911333Y-85755219D01*
X116292285Y-85755219D02*
X116339904Y-85707600D01*
X116435142Y-85659980D01*
X116673238Y-85659980D01*
X116768476Y-85707600D01*
X116816095Y-85755219D01*
X116863714Y-85850457D01*
X116863714Y-85945695D01*
X116816095Y-86088552D01*
X116244666Y-86659980D01*
X116863714Y-86659980D01*
G04 #@! TO.C,C3*
X115584242Y-60478966D02*
X115631861Y-60526585D01*
X115679480Y-60669442D01*
X115679480Y-60764680D01*
X115631861Y-60907538D01*
X115536623Y-61002776D01*
X115441385Y-61050395D01*
X115250909Y-61098014D01*
X115108052Y-61098014D01*
X114917576Y-61050395D01*
X114822338Y-61002776D01*
X114727100Y-60907538D01*
X114679480Y-60764680D01*
X114679480Y-60669442D01*
X114727100Y-60526585D01*
X114774719Y-60478966D01*
X114679480Y-60145633D02*
X114679480Y-59526585D01*
X115060433Y-59859919D01*
X115060433Y-59717061D01*
X115108052Y-59621823D01*
X115155671Y-59574204D01*
X115250909Y-59526585D01*
X115489004Y-59526585D01*
X115584242Y-59574204D01*
X115631861Y-59621823D01*
X115679480Y-59717061D01*
X115679480Y-60002776D01*
X115631861Y-60098014D01*
X115584242Y-60145633D01*
G04 #@! TO.C,C4*
X114036488Y-66295566D02*
X114084107Y-66343185D01*
X114131726Y-66486042D01*
X114131726Y-66581280D01*
X114084107Y-66724138D01*
X113988869Y-66819376D01*
X113893631Y-66866995D01*
X113703155Y-66914614D01*
X113560298Y-66914614D01*
X113369822Y-66866995D01*
X113274584Y-66819376D01*
X113179346Y-66724138D01*
X113131726Y-66581280D01*
X113131726Y-66486042D01*
X113179346Y-66343185D01*
X113226965Y-66295566D01*
X113465060Y-65438423D02*
X114131726Y-65438423D01*
X113084107Y-65676519D02*
X113798393Y-65914614D01*
X113798393Y-65295566D01*
G04 #@! TO.C,C5*
X127239733Y-87816036D02*
X127192114Y-87863655D01*
X127049257Y-87911274D01*
X126954019Y-87911274D01*
X126811161Y-87863655D01*
X126715923Y-87768417D01*
X126668304Y-87673179D01*
X126620685Y-87482703D01*
X126620685Y-87339846D01*
X126668304Y-87149370D01*
X126715923Y-87054132D01*
X126811161Y-86958894D01*
X126954019Y-86911274D01*
X127049257Y-86911274D01*
X127192114Y-86958894D01*
X127239733Y-87006513D01*
X128144495Y-86911274D02*
X127668304Y-86911274D01*
X127620685Y-87387465D01*
X127668304Y-87339846D01*
X127763542Y-87292227D01*
X128001638Y-87292227D01*
X128096876Y-87339846D01*
X128144495Y-87387465D01*
X128192114Y-87482703D01*
X128192114Y-87720798D01*
X128144495Y-87816036D01*
X128096876Y-87863655D01*
X128001638Y-87911274D01*
X127763542Y-87911274D01*
X127668304Y-87863655D01*
X127620685Y-87816036D01*
G04 #@! TO.C,C6*
X120026133Y-87834742D02*
X119978514Y-87882361D01*
X119835657Y-87929980D01*
X119740419Y-87929980D01*
X119597561Y-87882361D01*
X119502323Y-87787123D01*
X119454704Y-87691885D01*
X119407085Y-87501409D01*
X119407085Y-87358552D01*
X119454704Y-87168076D01*
X119502323Y-87072838D01*
X119597561Y-86977600D01*
X119740419Y-86929980D01*
X119835657Y-86929980D01*
X119978514Y-86977600D01*
X120026133Y-87025219D01*
X120883276Y-86929980D02*
X120692800Y-86929980D01*
X120597561Y-86977600D01*
X120549942Y-87025219D01*
X120454704Y-87168076D01*
X120407085Y-87358552D01*
X120407085Y-87739504D01*
X120454704Y-87834742D01*
X120502323Y-87882361D01*
X120597561Y-87929980D01*
X120788038Y-87929980D01*
X120883276Y-87882361D01*
X120930895Y-87834742D01*
X120978514Y-87739504D01*
X120978514Y-87501409D01*
X120930895Y-87406171D01*
X120883276Y-87358552D01*
X120788038Y-87310933D01*
X120597561Y-87310933D01*
X120502323Y-87358552D01*
X120454704Y-87406171D01*
X120407085Y-87501409D01*
G04 #@! TO.C,C7*
X124207542Y-75960266D02*
X124255161Y-76007885D01*
X124302780Y-76150742D01*
X124302780Y-76245980D01*
X124255161Y-76388838D01*
X124159923Y-76484076D01*
X124064685Y-76531695D01*
X123874209Y-76579314D01*
X123731352Y-76579314D01*
X123540876Y-76531695D01*
X123445638Y-76484076D01*
X123350400Y-76388838D01*
X123302780Y-76245980D01*
X123302780Y-76150742D01*
X123350400Y-76007885D01*
X123398019Y-75960266D01*
X123302780Y-75626933D02*
X123302780Y-74960266D01*
X124302780Y-75388838D01*
G04 #@! TO.C,C8*
X137263142Y-87288666D02*
X137310761Y-87336285D01*
X137358380Y-87479142D01*
X137358380Y-87574380D01*
X137310761Y-87717238D01*
X137215523Y-87812476D01*
X137120285Y-87860095D01*
X136929809Y-87907714D01*
X136786952Y-87907714D01*
X136596476Y-87860095D01*
X136501238Y-87812476D01*
X136406000Y-87717238D01*
X136358380Y-87574380D01*
X136358380Y-87479142D01*
X136406000Y-87336285D01*
X136453619Y-87288666D01*
X136786952Y-86717238D02*
X136739333Y-86812476D01*
X136691714Y-86860095D01*
X136596476Y-86907714D01*
X136548857Y-86907714D01*
X136453619Y-86860095D01*
X136406000Y-86812476D01*
X136358380Y-86717238D01*
X136358380Y-86526761D01*
X136406000Y-86431523D01*
X136453619Y-86383904D01*
X136548857Y-86336285D01*
X136596476Y-86336285D01*
X136691714Y-86383904D01*
X136739333Y-86431523D01*
X136786952Y-86526761D01*
X136786952Y-86717238D01*
X136834571Y-86812476D01*
X136882190Y-86860095D01*
X136977428Y-86907714D01*
X137167904Y-86907714D01*
X137263142Y-86860095D01*
X137310761Y-86812476D01*
X137358380Y-86717238D01*
X137358380Y-86526761D01*
X137310761Y-86431523D01*
X137263142Y-86383904D01*
X137167904Y-86336285D01*
X136977428Y-86336285D01*
X136882190Y-86383904D01*
X136834571Y-86431523D01*
X136786952Y-86526761D01*
G04 #@! TO.C,D1*
X111545144Y-94513660D02*
X111545144Y-93513660D01*
X111783240Y-93513660D01*
X111926097Y-93561280D01*
X112021335Y-93656518D01*
X112068954Y-93751756D01*
X112116573Y-93942232D01*
X112116573Y-94085089D01*
X112068954Y-94275565D01*
X112021335Y-94370803D01*
X111926097Y-94466041D01*
X111783240Y-94513660D01*
X111545144Y-94513660D01*
X113068954Y-94513660D02*
X112497525Y-94513660D01*
X112783240Y-94513660D02*
X112783240Y-93513660D01*
X112688001Y-93656518D01*
X112592763Y-93751756D01*
X112497525Y-93799375D01*
G04 #@! TO.C,D2*
X111545144Y-82926180D02*
X111545144Y-81926180D01*
X111783240Y-81926180D01*
X111926097Y-81973800D01*
X112021335Y-82069038D01*
X112068954Y-82164276D01*
X112116573Y-82354752D01*
X112116573Y-82497609D01*
X112068954Y-82688085D01*
X112021335Y-82783323D01*
X111926097Y-82878561D01*
X111783240Y-82926180D01*
X111545144Y-82926180D01*
X112497525Y-82021419D02*
X112545144Y-81973800D01*
X112640382Y-81926180D01*
X112878478Y-81926180D01*
X112973716Y-81973800D01*
X113021335Y-82021419D01*
X113068954Y-82116657D01*
X113068954Y-82211895D01*
X113021335Y-82354752D01*
X112449906Y-82926180D01*
X113068954Y-82926180D01*
G04 #@! TO.C,POWER*
X122315576Y-66212980D02*
X122315576Y-65212980D01*
X122696528Y-65212980D01*
X122791766Y-65260600D01*
X122839385Y-65308219D01*
X122887004Y-65403457D01*
X122887004Y-65546314D01*
X122839385Y-65641552D01*
X122791766Y-65689171D01*
X122696528Y-65736790D01*
X122315576Y-65736790D01*
X123506052Y-65212980D02*
X123696528Y-65212980D01*
X123791766Y-65260600D01*
X123887004Y-65355838D01*
X123934623Y-65546314D01*
X123934623Y-65879647D01*
X123887004Y-66070123D01*
X123791766Y-66165361D01*
X123696528Y-66212980D01*
X123506052Y-66212980D01*
X123410814Y-66165361D01*
X123315576Y-66070123D01*
X123267957Y-65879647D01*
X123267957Y-65546314D01*
X123315576Y-65355838D01*
X123410814Y-65260600D01*
X123506052Y-65212980D01*
X124267957Y-65212980D02*
X124506052Y-66212980D01*
X124696528Y-65498695D01*
X124887004Y-66212980D01*
X125125100Y-65212980D01*
X125506052Y-65689171D02*
X125839385Y-65689171D01*
X125982242Y-66212980D02*
X125506052Y-66212980D01*
X125506052Y-65212980D01*
X125982242Y-65212980D01*
X126982242Y-66212980D02*
X126648909Y-65736790D01*
X126410814Y-66212980D02*
X126410814Y-65212980D01*
X126791766Y-65212980D01*
X126887004Y-65260600D01*
X126934623Y-65308219D01*
X126982242Y-65403457D01*
X126982242Y-65546314D01*
X126934623Y-65641552D01*
X126887004Y-65689171D01*
X126791766Y-65736790D01*
X126410814Y-65736790D01*
G04 #@! TO.C,J1*
X123455180Y-96396133D02*
X124169466Y-96396133D01*
X124312323Y-96443752D01*
X124407561Y-96538990D01*
X124455180Y-96681847D01*
X124455180Y-96777085D01*
X124455180Y-95396133D02*
X124455180Y-95967561D01*
X124455180Y-95681847D02*
X123455180Y-95681847D01*
X123598038Y-95777085D01*
X123693276Y-95872323D01*
X123740895Y-95967561D01*
G04 #@! TO.C,L1*
X116936780Y-98972666D02*
X116936780Y-99448857D01*
X115936780Y-99448857D01*
X116936780Y-98115523D02*
X116936780Y-98686952D01*
X116936780Y-98401238D02*
X115936780Y-98401238D01*
X116079638Y-98496476D01*
X116174876Y-98591714D01*
X116222495Y-98686952D01*
G04 #@! TO.C,R1*
X121245333Y-70353180D02*
X120912000Y-69876990D01*
X120673904Y-70353180D02*
X120673904Y-69353180D01*
X121054857Y-69353180D01*
X121150095Y-69400800D01*
X121197714Y-69448419D01*
X121245333Y-69543657D01*
X121245333Y-69686514D01*
X121197714Y-69781752D01*
X121150095Y-69829371D01*
X121054857Y-69876990D01*
X120673904Y-69876990D01*
X122197714Y-70353180D02*
X121626285Y-70353180D01*
X121912000Y-70353180D02*
X121912000Y-69353180D01*
X121816761Y-69496038D01*
X121721523Y-69591276D01*
X121626285Y-69638895D01*
G04 #@! TO.C,R2*
X115641380Y-57316666D02*
X115165190Y-57650000D01*
X115641380Y-57888095D02*
X114641380Y-57888095D01*
X114641380Y-57507142D01*
X114689000Y-57411904D01*
X114736619Y-57364285D01*
X114831857Y-57316666D01*
X114974714Y-57316666D01*
X115069952Y-57364285D01*
X115117571Y-57411904D01*
X115165190Y-57507142D01*
X115165190Y-57888095D01*
X114736619Y-56935714D02*
X114689000Y-56888095D01*
X114641380Y-56792857D01*
X114641380Y-56554761D01*
X114689000Y-56459523D01*
X114736619Y-56411904D01*
X114831857Y-56364285D01*
X114927095Y-56364285D01*
X115069952Y-56411904D01*
X115641380Y-56983333D01*
X115641380Y-56364285D01*
G04 #@! TO.C,R3*
X124801333Y-87911274D02*
X124468000Y-87435084D01*
X124229904Y-87911274D02*
X124229904Y-86911274D01*
X124610857Y-86911274D01*
X124706095Y-86958894D01*
X124753714Y-87006513D01*
X124801333Y-87101751D01*
X124801333Y-87244608D01*
X124753714Y-87339846D01*
X124706095Y-87387465D01*
X124610857Y-87435084D01*
X124229904Y-87435084D01*
X125134666Y-86911274D02*
X125753714Y-86911274D01*
X125420380Y-87292227D01*
X125563238Y-87292227D01*
X125658476Y-87339846D01*
X125706095Y-87387465D01*
X125753714Y-87482703D01*
X125753714Y-87720798D01*
X125706095Y-87816036D01*
X125658476Y-87863655D01*
X125563238Y-87911274D01*
X125277523Y-87911274D01*
X125182285Y-87863655D01*
X125134666Y-87816036D01*
G04 #@! TO.C,R4*
X122413733Y-87980780D02*
X122080400Y-87504590D01*
X121842304Y-87980780D02*
X121842304Y-86980780D01*
X122223257Y-86980780D01*
X122318495Y-87028400D01*
X122366114Y-87076019D01*
X122413733Y-87171257D01*
X122413733Y-87314114D01*
X122366114Y-87409352D01*
X122318495Y-87456971D01*
X122223257Y-87504590D01*
X121842304Y-87504590D01*
X123270876Y-87314114D02*
X123270876Y-87980780D01*
X123032780Y-86933161D02*
X122794685Y-87647447D01*
X123413733Y-87647447D01*
G04 #@! TO.C,R5*
X145994380Y-56046666D02*
X145518190Y-56380000D01*
X145994380Y-56618095D02*
X144994380Y-56618095D01*
X144994380Y-56237142D01*
X145042000Y-56141904D01*
X145089619Y-56094285D01*
X145184857Y-56046666D01*
X145327714Y-56046666D01*
X145422952Y-56094285D01*
X145470571Y-56141904D01*
X145518190Y-56237142D01*
X145518190Y-56618095D01*
X144994380Y-55141904D02*
X144994380Y-55618095D01*
X145470571Y-55665714D01*
X145422952Y-55618095D01*
X145375333Y-55522857D01*
X145375333Y-55284761D01*
X145422952Y-55189523D01*
X145470571Y-55141904D01*
X145565809Y-55094285D01*
X145803904Y-55094285D01*
X145899142Y-55141904D01*
X145946761Y-55189523D01*
X145994380Y-55284761D01*
X145994380Y-55522857D01*
X145946761Y-55618095D01*
X145899142Y-55665714D01*
G04 #@! TO.C,R6*
X146045180Y-61279066D02*
X145568990Y-61612400D01*
X146045180Y-61850495D02*
X145045180Y-61850495D01*
X145045180Y-61469542D01*
X145092800Y-61374304D01*
X145140419Y-61326685D01*
X145235657Y-61279066D01*
X145378514Y-61279066D01*
X145473752Y-61326685D01*
X145521371Y-61374304D01*
X145568990Y-61469542D01*
X145568990Y-61850495D01*
X145045180Y-60421923D02*
X145045180Y-60612400D01*
X145092800Y-60707638D01*
X145140419Y-60755257D01*
X145283276Y-60850495D01*
X145473752Y-60898114D01*
X145854704Y-60898114D01*
X145949942Y-60850495D01*
X145997561Y-60802876D01*
X146045180Y-60707638D01*
X146045180Y-60517161D01*
X145997561Y-60421923D01*
X145949942Y-60374304D01*
X145854704Y-60326685D01*
X145616609Y-60326685D01*
X145521371Y-60374304D01*
X145473752Y-60421923D01*
X145426133Y-60517161D01*
X145426133Y-60707638D01*
X145473752Y-60802876D01*
X145521371Y-60850495D01*
X145616609Y-60898114D01*
G04 #@! TO.C,R7*
X146045180Y-63920666D02*
X145568990Y-64254000D01*
X146045180Y-64492095D02*
X145045180Y-64492095D01*
X145045180Y-64111142D01*
X145092800Y-64015904D01*
X145140419Y-63968285D01*
X145235657Y-63920666D01*
X145378514Y-63920666D01*
X145473752Y-63968285D01*
X145521371Y-64015904D01*
X145568990Y-64111142D01*
X145568990Y-64492095D01*
X145045180Y-63587333D02*
X145045180Y-62920666D01*
X146045180Y-63349238D01*
G04 #@! TO.C,Reset*
X106864304Y-50388780D02*
X106530971Y-49912590D01*
X106292876Y-50388780D02*
X106292876Y-49388780D01*
X106673828Y-49388780D01*
X106769066Y-49436400D01*
X106816685Y-49484019D01*
X106864304Y-49579257D01*
X106864304Y-49722114D01*
X106816685Y-49817352D01*
X106769066Y-49864971D01*
X106673828Y-49912590D01*
X106292876Y-49912590D01*
X107673828Y-50341161D02*
X107578590Y-50388780D01*
X107388114Y-50388780D01*
X107292876Y-50341161D01*
X107245257Y-50245923D01*
X107245257Y-49864971D01*
X107292876Y-49769733D01*
X107388114Y-49722114D01*
X107578590Y-49722114D01*
X107673828Y-49769733D01*
X107721447Y-49864971D01*
X107721447Y-49960209D01*
X107245257Y-50055447D01*
X108102400Y-50341161D02*
X108197638Y-50388780D01*
X108388114Y-50388780D01*
X108483352Y-50341161D01*
X108530971Y-50245923D01*
X108530971Y-50198304D01*
X108483352Y-50103066D01*
X108388114Y-50055447D01*
X108245257Y-50055447D01*
X108150019Y-50007828D01*
X108102400Y-49912590D01*
X108102400Y-49864971D01*
X108150019Y-49769733D01*
X108245257Y-49722114D01*
X108388114Y-49722114D01*
X108483352Y-49769733D01*
X109340495Y-50341161D02*
X109245257Y-50388780D01*
X109054780Y-50388780D01*
X108959542Y-50341161D01*
X108911923Y-50245923D01*
X108911923Y-49864971D01*
X108959542Y-49769733D01*
X109054780Y-49722114D01*
X109245257Y-49722114D01*
X109340495Y-49769733D01*
X109388114Y-49864971D01*
X109388114Y-49960209D01*
X108911923Y-50055447D01*
X109673828Y-49722114D02*
X110054780Y-49722114D01*
X109816685Y-49388780D02*
X109816685Y-50245923D01*
X109864304Y-50341161D01*
X109959542Y-50388780D01*
X110054780Y-50388780D01*
G04 #@! TO.C,Boot*
X151890552Y-49814171D02*
X152033409Y-49861790D01*
X152081028Y-49909409D01*
X152128647Y-50004647D01*
X152128647Y-50147504D01*
X152081028Y-50242742D01*
X152033409Y-50290361D01*
X151938171Y-50337980D01*
X151557219Y-50337980D01*
X151557219Y-49337980D01*
X151890552Y-49337980D01*
X151985790Y-49385600D01*
X152033409Y-49433219D01*
X152081028Y-49528457D01*
X152081028Y-49623695D01*
X152033409Y-49718933D01*
X151985790Y-49766552D01*
X151890552Y-49814171D01*
X151557219Y-49814171D01*
X152700076Y-50337980D02*
X152604838Y-50290361D01*
X152557219Y-50242742D01*
X152509600Y-50147504D01*
X152509600Y-49861790D01*
X152557219Y-49766552D01*
X152604838Y-49718933D01*
X152700076Y-49671314D01*
X152842933Y-49671314D01*
X152938171Y-49718933D01*
X152985790Y-49766552D01*
X153033409Y-49861790D01*
X153033409Y-50147504D01*
X152985790Y-50242742D01*
X152938171Y-50290361D01*
X152842933Y-50337980D01*
X152700076Y-50337980D01*
X153604838Y-50337980D02*
X153509600Y-50290361D01*
X153461980Y-50242742D01*
X153414361Y-50147504D01*
X153414361Y-49861790D01*
X153461980Y-49766552D01*
X153509600Y-49718933D01*
X153604838Y-49671314D01*
X153747695Y-49671314D01*
X153842933Y-49718933D01*
X153890552Y-49766552D01*
X153938171Y-49861790D01*
X153938171Y-50147504D01*
X153890552Y-50242742D01*
X153842933Y-50290361D01*
X153747695Y-50337980D01*
X153604838Y-50337980D01*
X154223885Y-49671314D02*
X154604838Y-49671314D01*
X154366742Y-49337980D02*
X154366742Y-50195123D01*
X154414361Y-50290361D01*
X154509600Y-50337980D01*
X154604838Y-50337980D01*
G04 #@! TO.C,U1*
X134461000Y-77469904D02*
X135270524Y-77469904D01*
X135365762Y-77422285D01*
X135413381Y-77374666D01*
X135461000Y-77279428D01*
X135461000Y-77088952D01*
X135413381Y-76993714D01*
X135365762Y-76946095D01*
X135270524Y-76898476D01*
X134461000Y-76898476D01*
X135461000Y-75898476D02*
X135461000Y-76469904D01*
X135461000Y-76184190D02*
X134461000Y-76184190D01*
X134603858Y-76279428D01*
X134699096Y-76374666D01*
X134746715Y-76469904D01*
G04 #@! TO.C,U2*
X116814695Y-72566280D02*
X116814695Y-73375804D01*
X116862314Y-73471042D01*
X116909933Y-73518661D01*
X117005171Y-73566280D01*
X117195647Y-73566280D01*
X117290885Y-73518661D01*
X117338504Y-73471042D01*
X117386123Y-73375804D01*
X117386123Y-72566280D01*
X117814695Y-72661519D02*
X117862314Y-72613900D01*
X117957552Y-72566280D01*
X118195647Y-72566280D01*
X118290885Y-72613900D01*
X118338504Y-72661519D01*
X118386123Y-72756757D01*
X118386123Y-72851995D01*
X118338504Y-72994852D01*
X117767076Y-73566280D01*
X118386123Y-73566280D01*
G04 #@! TO.C,U5*
X122936095Y-79411580D02*
X122936095Y-80221104D01*
X122983714Y-80316342D01*
X123031333Y-80363961D01*
X123126571Y-80411580D01*
X123317047Y-80411580D01*
X123412285Y-80363961D01*
X123459904Y-80316342D01*
X123507523Y-80221104D01*
X123507523Y-79411580D01*
X124459904Y-79411580D02*
X123983714Y-79411580D01*
X123936095Y-79887771D01*
X123983714Y-79840152D01*
X124078952Y-79792533D01*
X124317047Y-79792533D01*
X124412285Y-79840152D01*
X124459904Y-79887771D01*
X124507523Y-79983009D01*
X124507523Y-80221104D01*
X124459904Y-80316342D01*
X124412285Y-80363961D01*
X124317047Y-80411580D01*
X124078952Y-80411580D01*
X123983714Y-80363961D01*
X123936095Y-80316342D01*
G04 #@! TO.C,R8*
X146045180Y-58586666D02*
X145568990Y-58920000D01*
X146045180Y-59158095D02*
X145045180Y-59158095D01*
X145045180Y-58777142D01*
X145092800Y-58681904D01*
X145140419Y-58634285D01*
X145235657Y-58586666D01*
X145378514Y-58586666D01*
X145473752Y-58634285D01*
X145521371Y-58681904D01*
X145568990Y-58777142D01*
X145568990Y-59158095D01*
X145473752Y-58015238D02*
X145426133Y-58110476D01*
X145378514Y-58158095D01*
X145283276Y-58205714D01*
X145235657Y-58205714D01*
X145140419Y-58158095D01*
X145092800Y-58110476D01*
X145045180Y-58015238D01*
X145045180Y-57824761D01*
X145092800Y-57729523D01*
X145140419Y-57681904D01*
X145235657Y-57634285D01*
X145283276Y-57634285D01*
X145378514Y-57681904D01*
X145426133Y-57729523D01*
X145473752Y-57824761D01*
X145473752Y-58015238D01*
X145521371Y-58110476D01*
X145568990Y-58158095D01*
X145664228Y-58205714D01*
X145854704Y-58205714D01*
X145949942Y-58158095D01*
X145997561Y-58110476D01*
X146045180Y-58015238D01*
X146045180Y-57824761D01*
X145997561Y-57729523D01*
X145949942Y-57681904D01*
X145854704Y-57634285D01*
X145664228Y-57634285D01*
X145568990Y-57681904D01*
X145521371Y-57729523D01*
X145473752Y-57824761D01*
G04 #@! TO.C,J2*
X106727666Y-58385460D02*
X106727666Y-59099746D01*
X106680047Y-59242603D01*
X106584809Y-59337841D01*
X106441952Y-59385460D01*
X106346714Y-59385460D01*
X107156238Y-58480699D02*
X107203857Y-58433080D01*
X107299095Y-58385460D01*
X107537190Y-58385460D01*
X107632428Y-58433080D01*
X107680047Y-58480699D01*
X107727666Y-58575937D01*
X107727666Y-58671175D01*
X107680047Y-58814032D01*
X107108619Y-59385460D01*
X107727666Y-59385460D01*
G04 #@! TO.C,J3*
X154261226Y-58537860D02*
X154261226Y-59252146D01*
X154213607Y-59395003D01*
X154118369Y-59490241D01*
X153975512Y-59537860D01*
X153880274Y-59537860D01*
X154642179Y-58537860D02*
X155261226Y-58537860D01*
X154927893Y-58918813D01*
X155070750Y-58918813D01*
X155165988Y-58966432D01*
X155213607Y-59014051D01*
X155261226Y-59109289D01*
X155261226Y-59347384D01*
X155213607Y-59442622D01*
X155165988Y-59490241D01*
X155070750Y-59537860D01*
X154785036Y-59537860D01*
X154689798Y-59490241D01*
X154642179Y-59442622D01*
G04 #@! TD*
M02*
