G04 #@! TF.GenerationSoftware,KiCad,Pcbnew,(5.0.0)*
G04 #@! TF.CreationDate,2018-09-24T12:18:47+08:00*
G04 #@! TF.ProjectId,Clouduino Stratus v1.0,436C6F756475696E6F20537472617475,rev?*
G04 #@! TF.SameCoordinates,Original*
G04 #@! TF.FileFunction,Paste,Top*
G04 #@! TF.FilePolarity,Positive*
%FSLAX46Y46*%
G04 Gerber Fmt 4.6, Leading zero omitted, Abs format (unit mm)*
G04 Created by KiCad (PCBNEW (5.0.0)) date 09/24/18 12:18:47*
%MOMM*%
%LPD*%
G01*
G04 APERTURE LIST*
%ADD10R,2.500000X1.000000*%
%ADD11R,1.500000X0.600000*%
%ADD12R,1.600000X2.000000*%
%ADD13R,2.000000X1.600000*%
%ADD14R,2.300000X3.500000*%
%ADD15R,1.700000X2.000000*%
%ADD16R,2.000000X2.500000*%
%ADD17R,0.500000X2.300000*%
%ADD18R,1.300000X1.500000*%
%ADD19R,2.000000X1.700000*%
%ADD20R,1.143000X0.508000*%
%ADD21R,3.800000X2.000000*%
%ADD22R,1.500000X2.000000*%
%ADD23R,1.200000X0.400000*%
G04 APERTURE END LIST*
D10*
G04 #@! TO.C,U3*
X138305651Y-47787661D03*
X138305651Y-49787661D03*
X138305651Y-51787661D03*
X138305651Y-53787661D03*
X138305651Y-55787661D03*
X138305651Y-57787661D03*
X138305651Y-59787661D03*
X138305651Y-61787661D03*
X123105651Y-61787661D03*
X123105651Y-59787661D03*
X123105651Y-57787661D03*
X123105651Y-55787661D03*
X123105651Y-53787661D03*
X123105651Y-51787661D03*
X123105651Y-49787661D03*
X123105651Y-47787661D03*
G04 #@! TD*
D11*
G04 #@! TO.C,U4*
X133698000Y-98298000D03*
X133698000Y-97028000D03*
X133698000Y-95758000D03*
X133698000Y-94488000D03*
X133698000Y-93218000D03*
X133698000Y-91948000D03*
X133698000Y-90678000D03*
X133698000Y-89408000D03*
X139098000Y-89408000D03*
X139098000Y-90678000D03*
X139098000Y-91948000D03*
X139098000Y-93218000D03*
X139098000Y-94488000D03*
X139098000Y-95758000D03*
X139098000Y-97028000D03*
X139098000Y-98298000D03*
G04 #@! TD*
D12*
G04 #@! TO.C,C1*
X144907000Y-70485000D03*
X144907000Y-74485000D03*
G04 #@! TD*
G04 #@! TO.C,C2*
X116092346Y-88188894D03*
X116092346Y-84188894D03*
G04 #@! TD*
D13*
G04 #@! TO.C,C3*
X113221000Y-60325000D03*
X117221000Y-60325000D03*
G04 #@! TD*
G04 #@! TO.C,C4*
X115679346Y-66122894D03*
X111679346Y-66122894D03*
G04 #@! TD*
D12*
G04 #@! TO.C,C5*
X127395346Y-89458894D03*
X127395346Y-85458894D03*
G04 #@! TD*
G04 #@! TO.C,C6*
X120156346Y-89490894D03*
X120156346Y-85490894D03*
G04 #@! TD*
D13*
G04 #@! TO.C,C7*
X125871346Y-75774894D03*
X121871346Y-75774894D03*
G04 #@! TD*
G04 #@! TO.C,C8*
X138906000Y-87122000D03*
X134906000Y-87122000D03*
G04 #@! TD*
D14*
G04 #@! TO.C,D1*
X112282346Y-96762894D03*
X112282346Y-91362894D03*
G04 #@! TD*
G04 #@! TO.C,D2*
X112282346Y-79772894D03*
X112282346Y-85172894D03*
G04 #@! TD*
D15*
G04 #@! TO.C,POWER*
X124347346Y-71932894D03*
X124347346Y-67932894D03*
G04 #@! TD*
D16*
G04 #@! TO.C,J1*
X128543346Y-99275894D03*
X128543346Y-93775894D03*
X119643346Y-99275894D03*
X119643346Y-93775894D03*
D17*
X125693346Y-93675894D03*
X124893346Y-93675894D03*
X124093346Y-93675894D03*
X123293346Y-93675894D03*
X122493346Y-93675894D03*
G04 #@! TD*
D18*
G04 #@! TO.C,L1*
X116473346Y-94109894D03*
X116473346Y-96809894D03*
G04 #@! TD*
D15*
G04 #@! TO.C,R1*
X121426346Y-71900894D03*
X121426346Y-67900894D03*
G04 #@! TD*
D19*
G04 #@! TO.C,R2*
X113189000Y-57150000D03*
X117189000Y-57150000D03*
G04 #@! TD*
D15*
G04 #@! TO.C,R3*
X124982346Y-89458894D03*
X124982346Y-85458894D03*
G04 #@! TD*
G04 #@! TO.C,R4*
X122569346Y-85458894D03*
X122569346Y-89458894D03*
G04 #@! TD*
D19*
G04 #@! TO.C,R5*
X147564651Y-55859661D03*
X143564651Y-55859661D03*
G04 #@! TD*
G04 #@! TO.C,R6*
X147564651Y-61066661D03*
X143564651Y-61066661D03*
G04 #@! TD*
G04 #@! TO.C,R7*
X147564651Y-63733661D03*
X143564651Y-63733661D03*
G04 #@! TD*
D20*
G04 #@! TO.C,U1*
X132715000Y-84963000D03*
X132715000Y-83693000D03*
X132715000Y-82423000D03*
X132715000Y-81153000D03*
X132715000Y-79883000D03*
X132715000Y-78613000D03*
X132715000Y-77343000D03*
X132715000Y-76073000D03*
X132715000Y-74803000D03*
X132715000Y-73533000D03*
X132715000Y-72263000D03*
X132715000Y-70993000D03*
X132715000Y-69723000D03*
X132715000Y-68453000D03*
X139827000Y-68453000D03*
X139827000Y-69723000D03*
X139827000Y-70993000D03*
X139827000Y-72263000D03*
X139827000Y-73533000D03*
X139827000Y-74803000D03*
X139827000Y-76073000D03*
X139827000Y-77343000D03*
X139827000Y-78613000D03*
X139827000Y-79883000D03*
X139827000Y-81153000D03*
X139827000Y-82423000D03*
X139827000Y-83693000D03*
X139827000Y-84963000D03*
G04 #@! TD*
D21*
G04 #@! TO.C,U2*
X115711346Y-69703894D03*
D22*
X115711346Y-76003894D03*
X118011346Y-76003894D03*
X113411346Y-76003894D03*
G04 #@! TD*
D23*
G04 #@! TO.C,U5*
X121112346Y-82188394D03*
X121112346Y-81553394D03*
X121112346Y-80918394D03*
X121112346Y-80283394D03*
X121112346Y-79648394D03*
X121112346Y-79013394D03*
X121112346Y-78378394D03*
X121112346Y-77743394D03*
X126312346Y-77743394D03*
X126312346Y-78378394D03*
X126312346Y-79013394D03*
X126312346Y-79648394D03*
X126312346Y-80283394D03*
X126312346Y-80918394D03*
X126312346Y-81553394D03*
X126312346Y-82188394D03*
G04 #@! TD*
D19*
G04 #@! TO.C,R8*
X143564651Y-58399661D03*
X147564651Y-58399661D03*
G04 #@! TD*
M02*
