M48
;DRILL file {KiCad (5.0.0)} date 10/02/18 15:53:57
;FORMAT={3:3/ absolute / metric / suppress leading zeros}
FMAT,2
METRIC,TZ
T1C0.400
T2C0.950
T3C1.000
%
G90
G05
M71
T1
X126492Y-73272
X127630Y-72268
X127635Y-69723
X127635Y-71247
X127903Y-82125
X127904Y-80221
X131064Y-78613
X131064Y-79883
X131064Y-81128
X131228Y-91948
X131267Y-84938
X131699Y-56769
X131699Y-61214
X131953Y-93218
X131953Y-94488
X132842Y-86106
X134264Y-82398
X134264Y-83718
X135763Y-47879
X135763Y-49784
X135763Y-55880
X136779Y-72390
X138049Y-66802
X139573Y-67310
X141351Y-71628
X141478Y-76073
X141478Y-77343
X141478Y-78613
X141478Y-79883
X141605Y-54102
T2
X107061Y-61595
X107061Y-64135
X107061Y-66675
X107061Y-69215
X107061Y-71755
X107061Y-74295
X107061Y-76835
X107061Y-79375
X107061Y-81915
X107061Y-84455
X107061Y-86995
X107061Y-89535
X107061Y-92075
X107061Y-94615
X107061Y-97155
X107061Y-99695
X154686Y-61595
X154686Y-64135
X154686Y-66675
X154686Y-69215
X154686Y-71755
X154686Y-74295
X154686Y-76835
X154686Y-79375
X154686Y-81915
X154686Y-84455
X154686Y-86995
X154686Y-89535
X154686Y-92075
X154686Y-94615
X154686Y-97155
X154686Y-99695
T3
X111506Y-47859
X111506Y-52359
X118006Y-47859
X118006Y-52359
X143406Y-47859
X143406Y-52359
X149906Y-47859
X149906Y-52359
T0
M30
