G04 #@! TF.GenerationSoftware,KiCad,Pcbnew,(5.0.0)*
G04 #@! TF.CreationDate,2018-09-24T12:18:47+08:00*
G04 #@! TF.ProjectId,Clouduino Stratus v1.0,436C6F756475696E6F20537472617475,rev?*
G04 #@! TF.SameCoordinates,Original*
G04 #@! TF.FileFunction,Copper,L3,Inr,Plane*
G04 #@! TF.FilePolarity,Positive*
%FSLAX46Y46*%
G04 Gerber Fmt 4.6, Leading zero omitted, Abs format (unit mm)*
G04 Created by KiCad (PCBNEW (5.0.0)) date 09/24/18 12:18:47*
%MOMM*%
%LPD*%
G01*
G04 APERTURE LIST*
G04 #@! TA.AperFunction,ViaPad*
%ADD10C,1.700000*%
G04 #@! TD*
G04 #@! TA.AperFunction,ViaPad*
%ADD11C,2.000000*%
G04 #@! TD*
G04 #@! TA.AperFunction,ViaPad*
%ADD12R,2.000000X2.000000*%
G04 #@! TD*
G04 #@! TA.AperFunction,ViaPad*
%ADD13C,0.800000*%
G04 #@! TD*
G04 #@! TA.AperFunction,Conductor*
%ADD14C,0.254000*%
G04 #@! TD*
G04 APERTURE END LIST*
D10*
G04 #@! TO.N,N/C*
G04 #@! TO.C,Reset*
X118005651Y-52358661D03*
X111505651Y-52358661D03*
G04 #@! TO.N,Net-(SW1-Pad2)*
X118005651Y-47858661D03*
G04 #@! TO.N,GND*
X111505651Y-47858661D03*
G04 #@! TD*
G04 #@! TO.N,Net-(R5-Pad2)*
G04 #@! TO.C,Boot*
X143405651Y-47858661D03*
G04 #@! TO.N,Net-(R7-Pad2)*
X149905651Y-47858661D03*
G04 #@! TO.N,N/C*
X143405651Y-52358661D03*
X149905651Y-52358661D03*
G04 #@! TD*
D11*
G04 #@! TO.N,5V-USB*
G04 #@! TO.C,J2*
X107061000Y-99695000D03*
G04 #@! TO.N,VCC*
X107061000Y-97155000D03*
X107061000Y-94615000D03*
X107061000Y-92075000D03*
G04 #@! TO.N,GND*
X107061000Y-89535000D03*
G04 #@! TO.N,GPIO8*
X107061000Y-86995000D03*
G04 #@! TO.N,GPIO7*
X107061000Y-84455000D03*
G04 #@! TO.N,GPIO6*
X107061000Y-81915000D03*
G04 #@! TO.N,VIN_Breakout*
X107061000Y-79375000D03*
G04 #@! TO.N,GPIO5*
X107061000Y-76835000D03*
G04 #@! TO.N,GPIO4*
X107061000Y-74295000D03*
G04 #@! TO.N,GPIO3*
X107061000Y-71755000D03*
G04 #@! TO.N,GPIO2*
X107061000Y-69215000D03*
G04 #@! TO.N,GPIO1*
X107061000Y-66675000D03*
G04 #@! TO.N,INTA_Breakout*
X107061000Y-64135000D03*
D12*
G04 #@! TO.N,INTB_Breakout*
X107061000Y-61595000D03*
G04 #@! TD*
G04 #@! TO.N,ADC-CH0*
G04 #@! TO.C,J3*
X154686000Y-99695000D03*
D11*
G04 #@! TO.N,ADC-CH1*
X154686000Y-97155000D03*
G04 #@! TO.N,ADC-CH2*
X154686000Y-94615000D03*
G04 #@! TO.N,ADC-CH3*
X154686000Y-92075000D03*
G04 #@! TO.N,ADC-CH4*
X154686000Y-89535000D03*
G04 #@! TO.N,ADC-CH5*
X154686000Y-86995000D03*
G04 #@! TO.N,ADC-CH6*
X154686000Y-84455000D03*
G04 #@! TO.N,ADC-CH7*
X154686000Y-81915000D03*
G04 #@! TO.N,GPIO9*
X154686000Y-79375000D03*
G04 #@! TO.N,GPIO10*
X154686000Y-76835000D03*
G04 #@! TO.N,GPIO11*
X154686000Y-74295000D03*
G04 #@! TO.N,GPIO12*
X154686000Y-71755000D03*
G04 #@! TO.N,GPIO13*
X154686000Y-69215000D03*
G04 #@! TO.N,GPIO14*
X154686000Y-66675000D03*
G04 #@! TO.N,GPIO15*
X154686000Y-64135000D03*
G04 #@! TO.N,GPIO16*
X154686000Y-61595000D03*
G04 #@! TD*
D13*
G04 #@! TO.N,VCC*
X149882651Y-57129661D03*
X119126000Y-63881000D03*
X140843000Y-87122000D03*
X108955840Y-92075000D03*
X147066000Y-68580000D03*
G04 #@! TO.N,ESP-GPIO12*
X131953000Y-93218000D03*
X139573000Y-67310000D03*
G04 #@! TO.N,ESP-GPIO13*
X131228000Y-91948000D03*
X138049000Y-66802000D03*
G04 #@! TO.N,ESP-GPIO14*
X131699000Y-61214000D03*
X131699000Y-56769000D03*
X131953000Y-94488000D03*
X136779000Y-72390000D03*
G04 #@! TO.N,ESP-GPIO5*
X141351000Y-71628000D03*
X141605000Y-54102000D03*
G04 #@! TO.N,ESP-TX*
X127903953Y-80220675D03*
X135763000Y-47879000D03*
G04 #@! TO.N,ESP-RX*
X127903346Y-82124894D03*
X135763000Y-49784000D03*
G04 #@! TO.N,INTA_Breakout*
X127635000Y-71247000D03*
G04 #@! TO.N,INTB_Breakout*
X127635000Y-69723000D03*
G04 #@! TO.N,ESP-GPIO4*
X135763000Y-55880000D03*
X132842000Y-86106000D03*
G04 #@! TO.N,GPIO8*
X131267200Y-84937600D03*
G04 #@! TO.N,GPIO7*
X134264400Y-83718400D03*
G04 #@! TO.N,GPIO6*
X134264400Y-82397600D03*
G04 #@! TO.N,GPIO5*
X131064000Y-81127600D03*
G04 #@! TO.N,GPIO4*
X131064000Y-79883000D03*
G04 #@! TO.N,GPIO3*
X131064000Y-78613000D03*
G04 #@! TO.N,GPIO2*
X126492000Y-73271894D03*
G04 #@! TO.N,GPIO1*
X127630347Y-72267653D03*
G04 #@! TO.N,GPIO13*
X141478000Y-79883000D03*
G04 #@! TO.N,GPIO14*
X141478000Y-78613000D03*
G04 #@! TO.N,GPIO15*
X141478000Y-77343000D03*
G04 #@! TO.N,GPIO16*
X141478000Y-76073000D03*
G04 #@! TD*
D14*
G04 #@! TO.N,VCC*
G36*
X110020651Y-47563276D02*
X110020651Y-48154046D01*
X110246729Y-48699846D01*
X110664466Y-49117583D01*
X111210266Y-49343661D01*
X111801036Y-49343661D01*
X112346836Y-49117583D01*
X112764573Y-48699846D01*
X112990651Y-48154046D01*
X112990651Y-47563276D01*
X112889468Y-47319000D01*
X116621834Y-47319000D01*
X116520651Y-47563276D01*
X116520651Y-48154046D01*
X116746729Y-48699846D01*
X117164466Y-49117583D01*
X117710266Y-49343661D01*
X118301036Y-49343661D01*
X118846836Y-49117583D01*
X119264573Y-48699846D01*
X119490651Y-48154046D01*
X119490651Y-47563276D01*
X119389468Y-47319000D01*
X134874683Y-47319000D01*
X134728000Y-47673126D01*
X134728000Y-48084874D01*
X134885569Y-48465280D01*
X135176720Y-48756431D01*
X135357953Y-48831500D01*
X135176720Y-48906569D01*
X134885569Y-49197720D01*
X134728000Y-49578126D01*
X134728000Y-49989874D01*
X134885569Y-50370280D01*
X135176720Y-50661431D01*
X135557126Y-50819000D01*
X135968874Y-50819000D01*
X136349280Y-50661431D01*
X136640431Y-50370280D01*
X136798000Y-49989874D01*
X136798000Y-49578126D01*
X136640431Y-49197720D01*
X136349280Y-48906569D01*
X136168047Y-48831500D01*
X136349280Y-48756431D01*
X136640431Y-48465280D01*
X136798000Y-48084874D01*
X136798000Y-47673126D01*
X136651317Y-47319000D01*
X142021834Y-47319000D01*
X141920651Y-47563276D01*
X141920651Y-48154046D01*
X142146729Y-48699846D01*
X142564466Y-49117583D01*
X143110266Y-49343661D01*
X143701036Y-49343661D01*
X144246836Y-49117583D01*
X144664573Y-48699846D01*
X144890651Y-48154046D01*
X144890651Y-47563276D01*
X144789468Y-47319000D01*
X148521834Y-47319000D01*
X148420651Y-47563276D01*
X148420651Y-48154046D01*
X148646729Y-48699846D01*
X149064466Y-49117583D01*
X149610266Y-49343661D01*
X150201036Y-49343661D01*
X150746836Y-49117583D01*
X151164573Y-48699846D01*
X151390651Y-48154046D01*
X151390651Y-47563276D01*
X151289468Y-47319000D01*
X156262000Y-47319000D01*
X156262000Y-61127340D01*
X156072086Y-60668847D01*
X155612153Y-60208914D01*
X155011222Y-59960000D01*
X154360778Y-59960000D01*
X153759847Y-60208914D01*
X153299914Y-60668847D01*
X153051000Y-61269778D01*
X153051000Y-61920222D01*
X153299914Y-62521153D01*
X153643761Y-62865000D01*
X153299914Y-63208847D01*
X153051000Y-63809778D01*
X153051000Y-64460222D01*
X153299914Y-65061153D01*
X153643761Y-65405000D01*
X153299914Y-65748847D01*
X153051000Y-66349778D01*
X153051000Y-67000222D01*
X153299914Y-67601153D01*
X153643761Y-67945000D01*
X153299914Y-68288847D01*
X153051000Y-68889778D01*
X153051000Y-69540222D01*
X153299914Y-70141153D01*
X153643761Y-70485000D01*
X153299914Y-70828847D01*
X153051000Y-71429778D01*
X153051000Y-72080222D01*
X153299914Y-72681153D01*
X153643761Y-73025000D01*
X153299914Y-73368847D01*
X153051000Y-73969778D01*
X153051000Y-74620222D01*
X153299914Y-75221153D01*
X153643761Y-75565000D01*
X153299914Y-75908847D01*
X153051000Y-76509778D01*
X153051000Y-77160222D01*
X153299914Y-77761153D01*
X153643761Y-78105000D01*
X153299914Y-78448847D01*
X153051000Y-79049778D01*
X153051000Y-79700222D01*
X153299914Y-80301153D01*
X153643761Y-80645000D01*
X153299914Y-80988847D01*
X153051000Y-81589778D01*
X153051000Y-82240222D01*
X153299914Y-82841153D01*
X153643761Y-83185000D01*
X153299914Y-83528847D01*
X153051000Y-84129778D01*
X153051000Y-84780222D01*
X153299914Y-85381153D01*
X153643761Y-85725000D01*
X153299914Y-86068847D01*
X153051000Y-86669778D01*
X153051000Y-87320222D01*
X153299914Y-87921153D01*
X153643761Y-88265000D01*
X153299914Y-88608847D01*
X153051000Y-89209778D01*
X153051000Y-89860222D01*
X153299914Y-90461153D01*
X153643761Y-90805000D01*
X153299914Y-91148847D01*
X153051000Y-91749778D01*
X153051000Y-92400222D01*
X153299914Y-93001153D01*
X153643761Y-93345000D01*
X153299914Y-93688847D01*
X153051000Y-94289778D01*
X153051000Y-94940222D01*
X153299914Y-95541153D01*
X153643761Y-95885000D01*
X153299914Y-96228847D01*
X153051000Y-96829778D01*
X153051000Y-97480222D01*
X153299914Y-98081153D01*
X153364723Y-98145962D01*
X153228191Y-98237191D01*
X153087843Y-98447235D01*
X153038560Y-98695000D01*
X153038560Y-100695000D01*
X153087843Y-100942765D01*
X153228191Y-101152809D01*
X153438235Y-101293157D01*
X153686000Y-101342440D01*
X155686000Y-101342440D01*
X155933765Y-101293157D01*
X156143809Y-101152809D01*
X156262001Y-100975924D01*
X156262001Y-101652000D01*
X105358000Y-101652000D01*
X105358000Y-99369778D01*
X105426000Y-99369778D01*
X105426000Y-100020222D01*
X105674914Y-100621153D01*
X106134847Y-101081086D01*
X106735778Y-101330000D01*
X107386222Y-101330000D01*
X107987153Y-101081086D01*
X108447086Y-100621153D01*
X108696000Y-100020222D01*
X108696000Y-99369778D01*
X108447086Y-98768847D01*
X108020928Y-98342689D01*
X108033927Y-98307532D01*
X107061000Y-97334605D01*
X106088073Y-98307532D01*
X106101072Y-98342689D01*
X105674914Y-98768847D01*
X105426000Y-99369778D01*
X105358000Y-99369778D01*
X105358000Y-96890461D01*
X105415092Y-96890461D01*
X105439144Y-97540460D01*
X105641613Y-98029264D01*
X105908468Y-98127927D01*
X106881395Y-97155000D01*
X107240605Y-97155000D01*
X108213532Y-98127927D01*
X108480387Y-98029264D01*
X108706908Y-97419539D01*
X108682856Y-96769540D01*
X108480387Y-96280736D01*
X108213532Y-96182073D01*
X107240605Y-97155000D01*
X106881395Y-97155000D01*
X105908468Y-96182073D01*
X105641613Y-96280736D01*
X105415092Y-96890461D01*
X105358000Y-96890461D01*
X105358000Y-95767532D01*
X106088073Y-95767532D01*
X106131504Y-95885000D01*
X106088073Y-96002468D01*
X107061000Y-96975395D01*
X107976321Y-96060074D01*
X120808346Y-96060074D01*
X120808346Y-96491714D01*
X120973528Y-96890497D01*
X121278743Y-97195712D01*
X121677526Y-97360894D01*
X122109166Y-97360894D01*
X122507949Y-97195712D01*
X122813164Y-96890497D01*
X122978346Y-96491714D01*
X122978346Y-96060074D01*
X125208346Y-96060074D01*
X125208346Y-96491714D01*
X125373528Y-96890497D01*
X125678743Y-97195712D01*
X126077526Y-97360894D01*
X126509166Y-97360894D01*
X126907949Y-97195712D01*
X127213164Y-96890497D01*
X127378346Y-96491714D01*
X127378346Y-96060074D01*
X127213164Y-95661291D01*
X126907949Y-95356076D01*
X126509166Y-95190894D01*
X126077526Y-95190894D01*
X125678743Y-95356076D01*
X125373528Y-95661291D01*
X125208346Y-96060074D01*
X122978346Y-96060074D01*
X122813164Y-95661291D01*
X122507949Y-95356076D01*
X122109166Y-95190894D01*
X121677526Y-95190894D01*
X121278743Y-95356076D01*
X120973528Y-95661291D01*
X120808346Y-96060074D01*
X107976321Y-96060074D01*
X108033927Y-96002468D01*
X107990496Y-95885000D01*
X108033927Y-95767532D01*
X107061000Y-94794605D01*
X106088073Y-95767532D01*
X105358000Y-95767532D01*
X105358000Y-94350461D01*
X105415092Y-94350461D01*
X105439144Y-95000460D01*
X105641613Y-95489264D01*
X105908468Y-95587927D01*
X106881395Y-94615000D01*
X107240605Y-94615000D01*
X108213532Y-95587927D01*
X108480387Y-95489264D01*
X108706908Y-94879539D01*
X108682856Y-94229540D01*
X108480387Y-93740736D01*
X108213532Y-93642073D01*
X107240605Y-94615000D01*
X106881395Y-94615000D01*
X105908468Y-93642073D01*
X105641613Y-93740736D01*
X105415092Y-94350461D01*
X105358000Y-94350461D01*
X105358000Y-93227532D01*
X106088073Y-93227532D01*
X106131504Y-93345000D01*
X106088073Y-93462468D01*
X107061000Y-94435395D01*
X108033927Y-93462468D01*
X107990496Y-93345000D01*
X108033927Y-93227532D01*
X107061000Y-92254605D01*
X106088073Y-93227532D01*
X105358000Y-93227532D01*
X105358000Y-91810461D01*
X105415092Y-91810461D01*
X105439144Y-92460460D01*
X105641613Y-92949264D01*
X105908468Y-93047927D01*
X106881395Y-92075000D01*
X107240605Y-92075000D01*
X108213532Y-93047927D01*
X108480387Y-92949264D01*
X108706908Y-92339539D01*
X108684802Y-91742126D01*
X130193000Y-91742126D01*
X130193000Y-92153874D01*
X130350569Y-92534280D01*
X130641720Y-92825431D01*
X130943546Y-92950451D01*
X130918000Y-93012126D01*
X130918000Y-93423874D01*
X131075569Y-93804280D01*
X131124289Y-93853000D01*
X131075569Y-93901720D01*
X130918000Y-94282126D01*
X130918000Y-94693874D01*
X131075569Y-95074280D01*
X131366720Y-95365431D01*
X131747126Y-95523000D01*
X132158874Y-95523000D01*
X132539280Y-95365431D01*
X132830431Y-95074280D01*
X132988000Y-94693874D01*
X132988000Y-94282126D01*
X132830431Y-93901720D01*
X132781711Y-93853000D01*
X132830431Y-93804280D01*
X132988000Y-93423874D01*
X132988000Y-93012126D01*
X132830431Y-92631720D01*
X132539280Y-92340569D01*
X132237454Y-92215549D01*
X132263000Y-92153874D01*
X132263000Y-91742126D01*
X132105431Y-91361720D01*
X131814280Y-91070569D01*
X131433874Y-90913000D01*
X131022126Y-90913000D01*
X130641720Y-91070569D01*
X130350569Y-91361720D01*
X130193000Y-91742126D01*
X108684802Y-91742126D01*
X108682856Y-91689540D01*
X108480387Y-91200736D01*
X108213532Y-91102073D01*
X107240605Y-92075000D01*
X106881395Y-92075000D01*
X105908468Y-91102073D01*
X105641613Y-91200736D01*
X105415092Y-91810461D01*
X105358000Y-91810461D01*
X105358000Y-60595000D01*
X105413560Y-60595000D01*
X105413560Y-62595000D01*
X105462843Y-62842765D01*
X105603191Y-63052809D01*
X105739723Y-63144038D01*
X105674914Y-63208847D01*
X105426000Y-63809778D01*
X105426000Y-64460222D01*
X105674914Y-65061153D01*
X106018761Y-65405000D01*
X105674914Y-65748847D01*
X105426000Y-66349778D01*
X105426000Y-67000222D01*
X105674914Y-67601153D01*
X106018761Y-67945000D01*
X105674914Y-68288847D01*
X105426000Y-68889778D01*
X105426000Y-69540222D01*
X105674914Y-70141153D01*
X106018761Y-70485000D01*
X105674914Y-70828847D01*
X105426000Y-71429778D01*
X105426000Y-72080222D01*
X105674914Y-72681153D01*
X106018761Y-73025000D01*
X105674914Y-73368847D01*
X105426000Y-73969778D01*
X105426000Y-74620222D01*
X105674914Y-75221153D01*
X106018761Y-75565000D01*
X105674914Y-75908847D01*
X105426000Y-76509778D01*
X105426000Y-77160222D01*
X105674914Y-77761153D01*
X106018761Y-78105000D01*
X105674914Y-78448847D01*
X105426000Y-79049778D01*
X105426000Y-79700222D01*
X105674914Y-80301153D01*
X106018761Y-80645000D01*
X105674914Y-80988847D01*
X105426000Y-81589778D01*
X105426000Y-82240222D01*
X105674914Y-82841153D01*
X106018761Y-83185000D01*
X105674914Y-83528847D01*
X105426000Y-84129778D01*
X105426000Y-84780222D01*
X105674914Y-85381153D01*
X106018761Y-85725000D01*
X105674914Y-86068847D01*
X105426000Y-86669778D01*
X105426000Y-87320222D01*
X105674914Y-87921153D01*
X106018761Y-88265000D01*
X105674914Y-88608847D01*
X105426000Y-89209778D01*
X105426000Y-89860222D01*
X105674914Y-90461153D01*
X106101072Y-90887311D01*
X106088073Y-90922468D01*
X107061000Y-91895395D01*
X108033927Y-90922468D01*
X108020928Y-90887311D01*
X108447086Y-90461153D01*
X108696000Y-89860222D01*
X108696000Y-89209778D01*
X108447086Y-88608847D01*
X108103239Y-88265000D01*
X108447086Y-87921153D01*
X108696000Y-87320222D01*
X108696000Y-86669778D01*
X108447086Y-86068847D01*
X108103239Y-85725000D01*
X108447086Y-85381153D01*
X108696000Y-84780222D01*
X108696000Y-84731726D01*
X130232200Y-84731726D01*
X130232200Y-85143474D01*
X130389769Y-85523880D01*
X130680920Y-85815031D01*
X131061326Y-85972600D01*
X131473074Y-85972600D01*
X131839921Y-85820647D01*
X131807000Y-85900126D01*
X131807000Y-86311874D01*
X131964569Y-86692280D01*
X132255720Y-86983431D01*
X132636126Y-87141000D01*
X133047874Y-87141000D01*
X133428280Y-86983431D01*
X133719431Y-86692280D01*
X133877000Y-86311874D01*
X133877000Y-85900126D01*
X133719431Y-85519720D01*
X133428280Y-85228569D01*
X133047874Y-85071000D01*
X132636126Y-85071000D01*
X132269279Y-85222953D01*
X132302200Y-85143474D01*
X132302200Y-84731726D01*
X132144631Y-84351320D01*
X131853480Y-84060169D01*
X131473074Y-83902600D01*
X131061326Y-83902600D01*
X130680920Y-84060169D01*
X130389769Y-84351320D01*
X130232200Y-84731726D01*
X108696000Y-84731726D01*
X108696000Y-84129778D01*
X108447086Y-83528847D01*
X108103239Y-83185000D01*
X108447086Y-82841153D01*
X108696000Y-82240222D01*
X108696000Y-81919020D01*
X126868346Y-81919020D01*
X126868346Y-82330768D01*
X127025915Y-82711174D01*
X127317066Y-83002325D01*
X127697472Y-83159894D01*
X128109220Y-83159894D01*
X128489626Y-83002325D01*
X128780777Y-82711174D01*
X128938346Y-82330768D01*
X128938346Y-82191726D01*
X133229400Y-82191726D01*
X133229400Y-82603474D01*
X133386969Y-82983880D01*
X133461089Y-83058000D01*
X133386969Y-83132120D01*
X133229400Y-83512526D01*
X133229400Y-83924274D01*
X133386969Y-84304680D01*
X133678120Y-84595831D01*
X134058526Y-84753400D01*
X134470274Y-84753400D01*
X134850680Y-84595831D01*
X135141831Y-84304680D01*
X135299400Y-83924274D01*
X135299400Y-83512526D01*
X135141831Y-83132120D01*
X135067711Y-83058000D01*
X135141831Y-82983880D01*
X135299400Y-82603474D01*
X135299400Y-82191726D01*
X135141831Y-81811320D01*
X134850680Y-81520169D01*
X134470274Y-81362600D01*
X134058526Y-81362600D01*
X133678120Y-81520169D01*
X133386969Y-81811320D01*
X133229400Y-82191726D01*
X128938346Y-82191726D01*
X128938346Y-81919020D01*
X128780777Y-81538614D01*
X128489626Y-81247463D01*
X128309639Y-81172910D01*
X128490233Y-81098106D01*
X128781384Y-80806955D01*
X128938953Y-80426549D01*
X128938953Y-80014801D01*
X128781384Y-79634395D01*
X128490233Y-79343244D01*
X128109827Y-79185675D01*
X127698079Y-79185675D01*
X127317673Y-79343244D01*
X127026522Y-79634395D01*
X126868953Y-80014801D01*
X126868953Y-80426549D01*
X127026522Y-80806955D01*
X127317673Y-81098106D01*
X127497660Y-81172659D01*
X127317066Y-81247463D01*
X127025915Y-81538614D01*
X126868346Y-81919020D01*
X108696000Y-81919020D01*
X108696000Y-81589778D01*
X108447086Y-80988847D01*
X108103239Y-80645000D01*
X108447086Y-80301153D01*
X108696000Y-79700222D01*
X108696000Y-79049778D01*
X108447086Y-78448847D01*
X108405365Y-78407126D01*
X130029000Y-78407126D01*
X130029000Y-78818874D01*
X130186569Y-79199280D01*
X130235289Y-79248000D01*
X130186569Y-79296720D01*
X130029000Y-79677126D01*
X130029000Y-80088874D01*
X130186569Y-80469280D01*
X130222589Y-80505300D01*
X130186569Y-80541320D01*
X130029000Y-80921726D01*
X130029000Y-81333474D01*
X130186569Y-81713880D01*
X130477720Y-82005031D01*
X130858126Y-82162600D01*
X131269874Y-82162600D01*
X131650280Y-82005031D01*
X131941431Y-81713880D01*
X132099000Y-81333474D01*
X132099000Y-80921726D01*
X131941431Y-80541320D01*
X131905411Y-80505300D01*
X131941431Y-80469280D01*
X132099000Y-80088874D01*
X132099000Y-79677126D01*
X131941431Y-79296720D01*
X131892711Y-79248000D01*
X131941431Y-79199280D01*
X132099000Y-78818874D01*
X132099000Y-78407126D01*
X131941431Y-78026720D01*
X131650280Y-77735569D01*
X131269874Y-77578000D01*
X130858126Y-77578000D01*
X130477720Y-77735569D01*
X130186569Y-78026720D01*
X130029000Y-78407126D01*
X108405365Y-78407126D01*
X108103239Y-78105000D01*
X108447086Y-77761153D01*
X108696000Y-77160222D01*
X108696000Y-76509778D01*
X108447086Y-75908847D01*
X108405365Y-75867126D01*
X140443000Y-75867126D01*
X140443000Y-76278874D01*
X140600569Y-76659280D01*
X140649289Y-76708000D01*
X140600569Y-76756720D01*
X140443000Y-77137126D01*
X140443000Y-77548874D01*
X140600569Y-77929280D01*
X140649289Y-77978000D01*
X140600569Y-78026720D01*
X140443000Y-78407126D01*
X140443000Y-78818874D01*
X140600569Y-79199280D01*
X140649289Y-79248000D01*
X140600569Y-79296720D01*
X140443000Y-79677126D01*
X140443000Y-80088874D01*
X140600569Y-80469280D01*
X140891720Y-80760431D01*
X141272126Y-80918000D01*
X141683874Y-80918000D01*
X142064280Y-80760431D01*
X142355431Y-80469280D01*
X142513000Y-80088874D01*
X142513000Y-79677126D01*
X142355431Y-79296720D01*
X142306711Y-79248000D01*
X142355431Y-79199280D01*
X142513000Y-78818874D01*
X142513000Y-78407126D01*
X142355431Y-78026720D01*
X142306711Y-77978000D01*
X142355431Y-77929280D01*
X142513000Y-77548874D01*
X142513000Y-77137126D01*
X142355431Y-76756720D01*
X142306711Y-76708000D01*
X142355431Y-76659280D01*
X142513000Y-76278874D01*
X142513000Y-75867126D01*
X142355431Y-75486720D01*
X142064280Y-75195569D01*
X141683874Y-75038000D01*
X141272126Y-75038000D01*
X140891720Y-75195569D01*
X140600569Y-75486720D01*
X140443000Y-75867126D01*
X108405365Y-75867126D01*
X108103239Y-75565000D01*
X108447086Y-75221153D01*
X108696000Y-74620222D01*
X108696000Y-73969778D01*
X108447086Y-73368847D01*
X108144259Y-73066020D01*
X125457000Y-73066020D01*
X125457000Y-73477768D01*
X125614569Y-73858174D01*
X125905720Y-74149325D01*
X126286126Y-74306894D01*
X126697874Y-74306894D01*
X127078280Y-74149325D01*
X127369431Y-73858174D01*
X127527000Y-73477768D01*
X127527000Y-73302653D01*
X127836221Y-73302653D01*
X128216627Y-73145084D01*
X128507778Y-72853933D01*
X128665347Y-72473527D01*
X128665347Y-72184126D01*
X135744000Y-72184126D01*
X135744000Y-72595874D01*
X135901569Y-72976280D01*
X136192720Y-73267431D01*
X136573126Y-73425000D01*
X136984874Y-73425000D01*
X137365280Y-73267431D01*
X137656431Y-72976280D01*
X137814000Y-72595874D01*
X137814000Y-72184126D01*
X137656431Y-71803720D01*
X137365280Y-71512569D01*
X137146931Y-71422126D01*
X140316000Y-71422126D01*
X140316000Y-71833874D01*
X140473569Y-72214280D01*
X140764720Y-72505431D01*
X141145126Y-72663000D01*
X141556874Y-72663000D01*
X141937280Y-72505431D01*
X142228431Y-72214280D01*
X142386000Y-71833874D01*
X142386000Y-71422126D01*
X142228431Y-71041720D01*
X141937280Y-70750569D01*
X141556874Y-70593000D01*
X141145126Y-70593000D01*
X140764720Y-70750569D01*
X140473569Y-71041720D01*
X140316000Y-71422126D01*
X137146931Y-71422126D01*
X136984874Y-71355000D01*
X136573126Y-71355000D01*
X136192720Y-71512569D01*
X135901569Y-71803720D01*
X135744000Y-72184126D01*
X128665347Y-72184126D01*
X128665347Y-72061779D01*
X128541565Y-71762943D01*
X128670000Y-71452874D01*
X128670000Y-71041126D01*
X128512431Y-70660720D01*
X128336711Y-70485000D01*
X128512431Y-70309280D01*
X128670000Y-69928874D01*
X128670000Y-69517126D01*
X128512431Y-69136720D01*
X128221280Y-68845569D01*
X127840874Y-68688000D01*
X127429126Y-68688000D01*
X127048720Y-68845569D01*
X126757569Y-69136720D01*
X126600000Y-69517126D01*
X126600000Y-69928874D01*
X126757569Y-70309280D01*
X126933289Y-70485000D01*
X126757569Y-70660720D01*
X126600000Y-71041126D01*
X126600000Y-71452874D01*
X126723782Y-71751710D01*
X126595347Y-72061779D01*
X126595347Y-72236894D01*
X126286126Y-72236894D01*
X125905720Y-72394463D01*
X125614569Y-72685614D01*
X125457000Y-73066020D01*
X108144259Y-73066020D01*
X108103239Y-73025000D01*
X108447086Y-72681153D01*
X108696000Y-72080222D01*
X108696000Y-71429778D01*
X108447086Y-70828847D01*
X108103239Y-70485000D01*
X108447086Y-70141153D01*
X108696000Y-69540222D01*
X108696000Y-68889778D01*
X108447086Y-68288847D01*
X108103239Y-67945000D01*
X108447086Y-67601153D01*
X108696000Y-67000222D01*
X108696000Y-66596126D01*
X137014000Y-66596126D01*
X137014000Y-67007874D01*
X137171569Y-67388280D01*
X137462720Y-67679431D01*
X137843126Y-67837000D01*
X138254874Y-67837000D01*
X138610072Y-67689872D01*
X138695569Y-67896280D01*
X138986720Y-68187431D01*
X139367126Y-68345000D01*
X139778874Y-68345000D01*
X140159280Y-68187431D01*
X140450431Y-67896280D01*
X140608000Y-67515874D01*
X140608000Y-67104126D01*
X140450431Y-66723720D01*
X140159280Y-66432569D01*
X139778874Y-66275000D01*
X139367126Y-66275000D01*
X139011928Y-66422128D01*
X138926431Y-66215720D01*
X138635280Y-65924569D01*
X138254874Y-65767000D01*
X137843126Y-65767000D01*
X137462720Y-65924569D01*
X137171569Y-66215720D01*
X137014000Y-66596126D01*
X108696000Y-66596126D01*
X108696000Y-66349778D01*
X108447086Y-65748847D01*
X108103239Y-65405000D01*
X108447086Y-65061153D01*
X108696000Y-64460222D01*
X108696000Y-63809778D01*
X108447086Y-63208847D01*
X108382277Y-63144038D01*
X108518809Y-63052809D01*
X108659157Y-62842765D01*
X108708440Y-62595000D01*
X108708440Y-61008126D01*
X130664000Y-61008126D01*
X130664000Y-61419874D01*
X130821569Y-61800280D01*
X131112720Y-62091431D01*
X131493126Y-62249000D01*
X131904874Y-62249000D01*
X132285280Y-62091431D01*
X132576431Y-61800280D01*
X132734000Y-61419874D01*
X132734000Y-61008126D01*
X132576431Y-60627720D01*
X132285280Y-60336569D01*
X131904874Y-60179000D01*
X131493126Y-60179000D01*
X131112720Y-60336569D01*
X130821569Y-60627720D01*
X130664000Y-61008126D01*
X108708440Y-61008126D01*
X108708440Y-60595000D01*
X108659157Y-60347235D01*
X108518809Y-60137191D01*
X108308765Y-59996843D01*
X108061000Y-59947560D01*
X106061000Y-59947560D01*
X105813235Y-59996843D01*
X105603191Y-60137191D01*
X105462843Y-60347235D01*
X105413560Y-60595000D01*
X105358000Y-60595000D01*
X105358000Y-56563126D01*
X130664000Y-56563126D01*
X130664000Y-56974874D01*
X130821569Y-57355280D01*
X131112720Y-57646431D01*
X131493126Y-57804000D01*
X131904874Y-57804000D01*
X132285280Y-57646431D01*
X132576431Y-57355280D01*
X132734000Y-56974874D01*
X132734000Y-56563126D01*
X132576431Y-56182720D01*
X132285280Y-55891569D01*
X131904874Y-55734000D01*
X131493126Y-55734000D01*
X131112720Y-55891569D01*
X130821569Y-56182720D01*
X130664000Y-56563126D01*
X105358000Y-56563126D01*
X105358000Y-55674126D01*
X134728000Y-55674126D01*
X134728000Y-56085874D01*
X134885569Y-56466280D01*
X135176720Y-56757431D01*
X135557126Y-56915000D01*
X135968874Y-56915000D01*
X136349280Y-56757431D01*
X136640431Y-56466280D01*
X136798000Y-56085874D01*
X136798000Y-55674126D01*
X136640431Y-55293720D01*
X136349280Y-55002569D01*
X135968874Y-54845000D01*
X135557126Y-54845000D01*
X135176720Y-55002569D01*
X134885569Y-55293720D01*
X134728000Y-55674126D01*
X105358000Y-55674126D01*
X105358000Y-53896126D01*
X140570000Y-53896126D01*
X140570000Y-54307874D01*
X140727569Y-54688280D01*
X141018720Y-54979431D01*
X141399126Y-55137000D01*
X141810874Y-55137000D01*
X142191280Y-54979431D01*
X142482431Y-54688280D01*
X142640000Y-54307874D01*
X142640000Y-53896126D01*
X142496451Y-53549568D01*
X142564466Y-53617583D01*
X143110266Y-53843661D01*
X143701036Y-53843661D01*
X144246836Y-53617583D01*
X144664573Y-53199846D01*
X144890651Y-52654046D01*
X144890651Y-52063276D01*
X148420651Y-52063276D01*
X148420651Y-52654046D01*
X148646729Y-53199846D01*
X149064466Y-53617583D01*
X149610266Y-53843661D01*
X150201036Y-53843661D01*
X150746836Y-53617583D01*
X151164573Y-53199846D01*
X151390651Y-52654046D01*
X151390651Y-52063276D01*
X151164573Y-51517476D01*
X150746836Y-51099739D01*
X150201036Y-50873661D01*
X149610266Y-50873661D01*
X149064466Y-51099739D01*
X148646729Y-51517476D01*
X148420651Y-52063276D01*
X144890651Y-52063276D01*
X144664573Y-51517476D01*
X144246836Y-51099739D01*
X143701036Y-50873661D01*
X143110266Y-50873661D01*
X142564466Y-51099739D01*
X142146729Y-51517476D01*
X141920651Y-52063276D01*
X141920651Y-52654046D01*
X142146729Y-53199846D01*
X142157432Y-53210549D01*
X141810874Y-53067000D01*
X141399126Y-53067000D01*
X141018720Y-53224569D01*
X140727569Y-53515720D01*
X140570000Y-53896126D01*
X105358000Y-53896126D01*
X105358000Y-52063276D01*
X110020651Y-52063276D01*
X110020651Y-52654046D01*
X110246729Y-53199846D01*
X110664466Y-53617583D01*
X111210266Y-53843661D01*
X111801036Y-53843661D01*
X112346836Y-53617583D01*
X112764573Y-53199846D01*
X112990651Y-52654046D01*
X112990651Y-52063276D01*
X116520651Y-52063276D01*
X116520651Y-52654046D01*
X116746729Y-53199846D01*
X117164466Y-53617583D01*
X117710266Y-53843661D01*
X118301036Y-53843661D01*
X118846836Y-53617583D01*
X119264573Y-53199846D01*
X119490651Y-52654046D01*
X119490651Y-52063276D01*
X119264573Y-51517476D01*
X118846836Y-51099739D01*
X118301036Y-50873661D01*
X117710266Y-50873661D01*
X117164466Y-51099739D01*
X116746729Y-51517476D01*
X116520651Y-52063276D01*
X112990651Y-52063276D01*
X112764573Y-51517476D01*
X112346836Y-51099739D01*
X111801036Y-50873661D01*
X111210266Y-50873661D01*
X110664466Y-51099739D01*
X110246729Y-51517476D01*
X110020651Y-52063276D01*
X105358000Y-52063276D01*
X105358000Y-47319000D01*
X110121834Y-47319000D01*
X110020651Y-47563276D01*
X110020651Y-47563276D01*
G37*
X110020651Y-47563276D02*
X110020651Y-48154046D01*
X110246729Y-48699846D01*
X110664466Y-49117583D01*
X111210266Y-49343661D01*
X111801036Y-49343661D01*
X112346836Y-49117583D01*
X112764573Y-48699846D01*
X112990651Y-48154046D01*
X112990651Y-47563276D01*
X112889468Y-47319000D01*
X116621834Y-47319000D01*
X116520651Y-47563276D01*
X116520651Y-48154046D01*
X116746729Y-48699846D01*
X117164466Y-49117583D01*
X117710266Y-49343661D01*
X118301036Y-49343661D01*
X118846836Y-49117583D01*
X119264573Y-48699846D01*
X119490651Y-48154046D01*
X119490651Y-47563276D01*
X119389468Y-47319000D01*
X134874683Y-47319000D01*
X134728000Y-47673126D01*
X134728000Y-48084874D01*
X134885569Y-48465280D01*
X135176720Y-48756431D01*
X135357953Y-48831500D01*
X135176720Y-48906569D01*
X134885569Y-49197720D01*
X134728000Y-49578126D01*
X134728000Y-49989874D01*
X134885569Y-50370280D01*
X135176720Y-50661431D01*
X135557126Y-50819000D01*
X135968874Y-50819000D01*
X136349280Y-50661431D01*
X136640431Y-50370280D01*
X136798000Y-49989874D01*
X136798000Y-49578126D01*
X136640431Y-49197720D01*
X136349280Y-48906569D01*
X136168047Y-48831500D01*
X136349280Y-48756431D01*
X136640431Y-48465280D01*
X136798000Y-48084874D01*
X136798000Y-47673126D01*
X136651317Y-47319000D01*
X142021834Y-47319000D01*
X141920651Y-47563276D01*
X141920651Y-48154046D01*
X142146729Y-48699846D01*
X142564466Y-49117583D01*
X143110266Y-49343661D01*
X143701036Y-49343661D01*
X144246836Y-49117583D01*
X144664573Y-48699846D01*
X144890651Y-48154046D01*
X144890651Y-47563276D01*
X144789468Y-47319000D01*
X148521834Y-47319000D01*
X148420651Y-47563276D01*
X148420651Y-48154046D01*
X148646729Y-48699846D01*
X149064466Y-49117583D01*
X149610266Y-49343661D01*
X150201036Y-49343661D01*
X150746836Y-49117583D01*
X151164573Y-48699846D01*
X151390651Y-48154046D01*
X151390651Y-47563276D01*
X151289468Y-47319000D01*
X156262000Y-47319000D01*
X156262000Y-61127340D01*
X156072086Y-60668847D01*
X155612153Y-60208914D01*
X155011222Y-59960000D01*
X154360778Y-59960000D01*
X153759847Y-60208914D01*
X153299914Y-60668847D01*
X153051000Y-61269778D01*
X153051000Y-61920222D01*
X153299914Y-62521153D01*
X153643761Y-62865000D01*
X153299914Y-63208847D01*
X153051000Y-63809778D01*
X153051000Y-64460222D01*
X153299914Y-65061153D01*
X153643761Y-65405000D01*
X153299914Y-65748847D01*
X153051000Y-66349778D01*
X153051000Y-67000222D01*
X153299914Y-67601153D01*
X153643761Y-67945000D01*
X153299914Y-68288847D01*
X153051000Y-68889778D01*
X153051000Y-69540222D01*
X153299914Y-70141153D01*
X153643761Y-70485000D01*
X153299914Y-70828847D01*
X153051000Y-71429778D01*
X153051000Y-72080222D01*
X153299914Y-72681153D01*
X153643761Y-73025000D01*
X153299914Y-73368847D01*
X153051000Y-73969778D01*
X153051000Y-74620222D01*
X153299914Y-75221153D01*
X153643761Y-75565000D01*
X153299914Y-75908847D01*
X153051000Y-76509778D01*
X153051000Y-77160222D01*
X153299914Y-77761153D01*
X153643761Y-78105000D01*
X153299914Y-78448847D01*
X153051000Y-79049778D01*
X153051000Y-79700222D01*
X153299914Y-80301153D01*
X153643761Y-80645000D01*
X153299914Y-80988847D01*
X153051000Y-81589778D01*
X153051000Y-82240222D01*
X153299914Y-82841153D01*
X153643761Y-83185000D01*
X153299914Y-83528847D01*
X153051000Y-84129778D01*
X153051000Y-84780222D01*
X153299914Y-85381153D01*
X153643761Y-85725000D01*
X153299914Y-86068847D01*
X153051000Y-86669778D01*
X153051000Y-87320222D01*
X153299914Y-87921153D01*
X153643761Y-88265000D01*
X153299914Y-88608847D01*
X153051000Y-89209778D01*
X153051000Y-89860222D01*
X153299914Y-90461153D01*
X153643761Y-90805000D01*
X153299914Y-91148847D01*
X153051000Y-91749778D01*
X153051000Y-92400222D01*
X153299914Y-93001153D01*
X153643761Y-93345000D01*
X153299914Y-93688847D01*
X153051000Y-94289778D01*
X153051000Y-94940222D01*
X153299914Y-95541153D01*
X153643761Y-95885000D01*
X153299914Y-96228847D01*
X153051000Y-96829778D01*
X153051000Y-97480222D01*
X153299914Y-98081153D01*
X153364723Y-98145962D01*
X153228191Y-98237191D01*
X153087843Y-98447235D01*
X153038560Y-98695000D01*
X153038560Y-100695000D01*
X153087843Y-100942765D01*
X153228191Y-101152809D01*
X153438235Y-101293157D01*
X153686000Y-101342440D01*
X155686000Y-101342440D01*
X155933765Y-101293157D01*
X156143809Y-101152809D01*
X156262001Y-100975924D01*
X156262001Y-101652000D01*
X105358000Y-101652000D01*
X105358000Y-99369778D01*
X105426000Y-99369778D01*
X105426000Y-100020222D01*
X105674914Y-100621153D01*
X106134847Y-101081086D01*
X106735778Y-101330000D01*
X107386222Y-101330000D01*
X107987153Y-101081086D01*
X108447086Y-100621153D01*
X108696000Y-100020222D01*
X108696000Y-99369778D01*
X108447086Y-98768847D01*
X108020928Y-98342689D01*
X108033927Y-98307532D01*
X107061000Y-97334605D01*
X106088073Y-98307532D01*
X106101072Y-98342689D01*
X105674914Y-98768847D01*
X105426000Y-99369778D01*
X105358000Y-99369778D01*
X105358000Y-96890461D01*
X105415092Y-96890461D01*
X105439144Y-97540460D01*
X105641613Y-98029264D01*
X105908468Y-98127927D01*
X106881395Y-97155000D01*
X107240605Y-97155000D01*
X108213532Y-98127927D01*
X108480387Y-98029264D01*
X108706908Y-97419539D01*
X108682856Y-96769540D01*
X108480387Y-96280736D01*
X108213532Y-96182073D01*
X107240605Y-97155000D01*
X106881395Y-97155000D01*
X105908468Y-96182073D01*
X105641613Y-96280736D01*
X105415092Y-96890461D01*
X105358000Y-96890461D01*
X105358000Y-95767532D01*
X106088073Y-95767532D01*
X106131504Y-95885000D01*
X106088073Y-96002468D01*
X107061000Y-96975395D01*
X107976321Y-96060074D01*
X120808346Y-96060074D01*
X120808346Y-96491714D01*
X120973528Y-96890497D01*
X121278743Y-97195712D01*
X121677526Y-97360894D01*
X122109166Y-97360894D01*
X122507949Y-97195712D01*
X122813164Y-96890497D01*
X122978346Y-96491714D01*
X122978346Y-96060074D01*
X125208346Y-96060074D01*
X125208346Y-96491714D01*
X125373528Y-96890497D01*
X125678743Y-97195712D01*
X126077526Y-97360894D01*
X126509166Y-97360894D01*
X126907949Y-97195712D01*
X127213164Y-96890497D01*
X127378346Y-96491714D01*
X127378346Y-96060074D01*
X127213164Y-95661291D01*
X126907949Y-95356076D01*
X126509166Y-95190894D01*
X126077526Y-95190894D01*
X125678743Y-95356076D01*
X125373528Y-95661291D01*
X125208346Y-96060074D01*
X122978346Y-96060074D01*
X122813164Y-95661291D01*
X122507949Y-95356076D01*
X122109166Y-95190894D01*
X121677526Y-95190894D01*
X121278743Y-95356076D01*
X120973528Y-95661291D01*
X120808346Y-96060074D01*
X107976321Y-96060074D01*
X108033927Y-96002468D01*
X107990496Y-95885000D01*
X108033927Y-95767532D01*
X107061000Y-94794605D01*
X106088073Y-95767532D01*
X105358000Y-95767532D01*
X105358000Y-94350461D01*
X105415092Y-94350461D01*
X105439144Y-95000460D01*
X105641613Y-95489264D01*
X105908468Y-95587927D01*
X106881395Y-94615000D01*
X107240605Y-94615000D01*
X108213532Y-95587927D01*
X108480387Y-95489264D01*
X108706908Y-94879539D01*
X108682856Y-94229540D01*
X108480387Y-93740736D01*
X108213532Y-93642073D01*
X107240605Y-94615000D01*
X106881395Y-94615000D01*
X105908468Y-93642073D01*
X105641613Y-93740736D01*
X105415092Y-94350461D01*
X105358000Y-94350461D01*
X105358000Y-93227532D01*
X106088073Y-93227532D01*
X106131504Y-93345000D01*
X106088073Y-93462468D01*
X107061000Y-94435395D01*
X108033927Y-93462468D01*
X107990496Y-93345000D01*
X108033927Y-93227532D01*
X107061000Y-92254605D01*
X106088073Y-93227532D01*
X105358000Y-93227532D01*
X105358000Y-91810461D01*
X105415092Y-91810461D01*
X105439144Y-92460460D01*
X105641613Y-92949264D01*
X105908468Y-93047927D01*
X106881395Y-92075000D01*
X107240605Y-92075000D01*
X108213532Y-93047927D01*
X108480387Y-92949264D01*
X108706908Y-92339539D01*
X108684802Y-91742126D01*
X130193000Y-91742126D01*
X130193000Y-92153874D01*
X130350569Y-92534280D01*
X130641720Y-92825431D01*
X130943546Y-92950451D01*
X130918000Y-93012126D01*
X130918000Y-93423874D01*
X131075569Y-93804280D01*
X131124289Y-93853000D01*
X131075569Y-93901720D01*
X130918000Y-94282126D01*
X130918000Y-94693874D01*
X131075569Y-95074280D01*
X131366720Y-95365431D01*
X131747126Y-95523000D01*
X132158874Y-95523000D01*
X132539280Y-95365431D01*
X132830431Y-95074280D01*
X132988000Y-94693874D01*
X132988000Y-94282126D01*
X132830431Y-93901720D01*
X132781711Y-93853000D01*
X132830431Y-93804280D01*
X132988000Y-93423874D01*
X132988000Y-93012126D01*
X132830431Y-92631720D01*
X132539280Y-92340569D01*
X132237454Y-92215549D01*
X132263000Y-92153874D01*
X132263000Y-91742126D01*
X132105431Y-91361720D01*
X131814280Y-91070569D01*
X131433874Y-90913000D01*
X131022126Y-90913000D01*
X130641720Y-91070569D01*
X130350569Y-91361720D01*
X130193000Y-91742126D01*
X108684802Y-91742126D01*
X108682856Y-91689540D01*
X108480387Y-91200736D01*
X108213532Y-91102073D01*
X107240605Y-92075000D01*
X106881395Y-92075000D01*
X105908468Y-91102073D01*
X105641613Y-91200736D01*
X105415092Y-91810461D01*
X105358000Y-91810461D01*
X105358000Y-60595000D01*
X105413560Y-60595000D01*
X105413560Y-62595000D01*
X105462843Y-62842765D01*
X105603191Y-63052809D01*
X105739723Y-63144038D01*
X105674914Y-63208847D01*
X105426000Y-63809778D01*
X105426000Y-64460222D01*
X105674914Y-65061153D01*
X106018761Y-65405000D01*
X105674914Y-65748847D01*
X105426000Y-66349778D01*
X105426000Y-67000222D01*
X105674914Y-67601153D01*
X106018761Y-67945000D01*
X105674914Y-68288847D01*
X105426000Y-68889778D01*
X105426000Y-69540222D01*
X105674914Y-70141153D01*
X106018761Y-70485000D01*
X105674914Y-70828847D01*
X105426000Y-71429778D01*
X105426000Y-72080222D01*
X105674914Y-72681153D01*
X106018761Y-73025000D01*
X105674914Y-73368847D01*
X105426000Y-73969778D01*
X105426000Y-74620222D01*
X105674914Y-75221153D01*
X106018761Y-75565000D01*
X105674914Y-75908847D01*
X105426000Y-76509778D01*
X105426000Y-77160222D01*
X105674914Y-77761153D01*
X106018761Y-78105000D01*
X105674914Y-78448847D01*
X105426000Y-79049778D01*
X105426000Y-79700222D01*
X105674914Y-80301153D01*
X106018761Y-80645000D01*
X105674914Y-80988847D01*
X105426000Y-81589778D01*
X105426000Y-82240222D01*
X105674914Y-82841153D01*
X106018761Y-83185000D01*
X105674914Y-83528847D01*
X105426000Y-84129778D01*
X105426000Y-84780222D01*
X105674914Y-85381153D01*
X106018761Y-85725000D01*
X105674914Y-86068847D01*
X105426000Y-86669778D01*
X105426000Y-87320222D01*
X105674914Y-87921153D01*
X106018761Y-88265000D01*
X105674914Y-88608847D01*
X105426000Y-89209778D01*
X105426000Y-89860222D01*
X105674914Y-90461153D01*
X106101072Y-90887311D01*
X106088073Y-90922468D01*
X107061000Y-91895395D01*
X108033927Y-90922468D01*
X108020928Y-90887311D01*
X108447086Y-90461153D01*
X108696000Y-89860222D01*
X108696000Y-89209778D01*
X108447086Y-88608847D01*
X108103239Y-88265000D01*
X108447086Y-87921153D01*
X108696000Y-87320222D01*
X108696000Y-86669778D01*
X108447086Y-86068847D01*
X108103239Y-85725000D01*
X108447086Y-85381153D01*
X108696000Y-84780222D01*
X108696000Y-84731726D01*
X130232200Y-84731726D01*
X130232200Y-85143474D01*
X130389769Y-85523880D01*
X130680920Y-85815031D01*
X131061326Y-85972600D01*
X131473074Y-85972600D01*
X131839921Y-85820647D01*
X131807000Y-85900126D01*
X131807000Y-86311874D01*
X131964569Y-86692280D01*
X132255720Y-86983431D01*
X132636126Y-87141000D01*
X133047874Y-87141000D01*
X133428280Y-86983431D01*
X133719431Y-86692280D01*
X133877000Y-86311874D01*
X133877000Y-85900126D01*
X133719431Y-85519720D01*
X133428280Y-85228569D01*
X133047874Y-85071000D01*
X132636126Y-85071000D01*
X132269279Y-85222953D01*
X132302200Y-85143474D01*
X132302200Y-84731726D01*
X132144631Y-84351320D01*
X131853480Y-84060169D01*
X131473074Y-83902600D01*
X131061326Y-83902600D01*
X130680920Y-84060169D01*
X130389769Y-84351320D01*
X130232200Y-84731726D01*
X108696000Y-84731726D01*
X108696000Y-84129778D01*
X108447086Y-83528847D01*
X108103239Y-83185000D01*
X108447086Y-82841153D01*
X108696000Y-82240222D01*
X108696000Y-81919020D01*
X126868346Y-81919020D01*
X126868346Y-82330768D01*
X127025915Y-82711174D01*
X127317066Y-83002325D01*
X127697472Y-83159894D01*
X128109220Y-83159894D01*
X128489626Y-83002325D01*
X128780777Y-82711174D01*
X128938346Y-82330768D01*
X128938346Y-82191726D01*
X133229400Y-82191726D01*
X133229400Y-82603474D01*
X133386969Y-82983880D01*
X133461089Y-83058000D01*
X133386969Y-83132120D01*
X133229400Y-83512526D01*
X133229400Y-83924274D01*
X133386969Y-84304680D01*
X133678120Y-84595831D01*
X134058526Y-84753400D01*
X134470274Y-84753400D01*
X134850680Y-84595831D01*
X135141831Y-84304680D01*
X135299400Y-83924274D01*
X135299400Y-83512526D01*
X135141831Y-83132120D01*
X135067711Y-83058000D01*
X135141831Y-82983880D01*
X135299400Y-82603474D01*
X135299400Y-82191726D01*
X135141831Y-81811320D01*
X134850680Y-81520169D01*
X134470274Y-81362600D01*
X134058526Y-81362600D01*
X133678120Y-81520169D01*
X133386969Y-81811320D01*
X133229400Y-82191726D01*
X128938346Y-82191726D01*
X128938346Y-81919020D01*
X128780777Y-81538614D01*
X128489626Y-81247463D01*
X128309639Y-81172910D01*
X128490233Y-81098106D01*
X128781384Y-80806955D01*
X128938953Y-80426549D01*
X128938953Y-80014801D01*
X128781384Y-79634395D01*
X128490233Y-79343244D01*
X128109827Y-79185675D01*
X127698079Y-79185675D01*
X127317673Y-79343244D01*
X127026522Y-79634395D01*
X126868953Y-80014801D01*
X126868953Y-80426549D01*
X127026522Y-80806955D01*
X127317673Y-81098106D01*
X127497660Y-81172659D01*
X127317066Y-81247463D01*
X127025915Y-81538614D01*
X126868346Y-81919020D01*
X108696000Y-81919020D01*
X108696000Y-81589778D01*
X108447086Y-80988847D01*
X108103239Y-80645000D01*
X108447086Y-80301153D01*
X108696000Y-79700222D01*
X108696000Y-79049778D01*
X108447086Y-78448847D01*
X108405365Y-78407126D01*
X130029000Y-78407126D01*
X130029000Y-78818874D01*
X130186569Y-79199280D01*
X130235289Y-79248000D01*
X130186569Y-79296720D01*
X130029000Y-79677126D01*
X130029000Y-80088874D01*
X130186569Y-80469280D01*
X130222589Y-80505300D01*
X130186569Y-80541320D01*
X130029000Y-80921726D01*
X130029000Y-81333474D01*
X130186569Y-81713880D01*
X130477720Y-82005031D01*
X130858126Y-82162600D01*
X131269874Y-82162600D01*
X131650280Y-82005031D01*
X131941431Y-81713880D01*
X132099000Y-81333474D01*
X132099000Y-80921726D01*
X131941431Y-80541320D01*
X131905411Y-80505300D01*
X131941431Y-80469280D01*
X132099000Y-80088874D01*
X132099000Y-79677126D01*
X131941431Y-79296720D01*
X131892711Y-79248000D01*
X131941431Y-79199280D01*
X132099000Y-78818874D01*
X132099000Y-78407126D01*
X131941431Y-78026720D01*
X131650280Y-77735569D01*
X131269874Y-77578000D01*
X130858126Y-77578000D01*
X130477720Y-77735569D01*
X130186569Y-78026720D01*
X130029000Y-78407126D01*
X108405365Y-78407126D01*
X108103239Y-78105000D01*
X108447086Y-77761153D01*
X108696000Y-77160222D01*
X108696000Y-76509778D01*
X108447086Y-75908847D01*
X108405365Y-75867126D01*
X140443000Y-75867126D01*
X140443000Y-76278874D01*
X140600569Y-76659280D01*
X140649289Y-76708000D01*
X140600569Y-76756720D01*
X140443000Y-77137126D01*
X140443000Y-77548874D01*
X140600569Y-77929280D01*
X140649289Y-77978000D01*
X140600569Y-78026720D01*
X140443000Y-78407126D01*
X140443000Y-78818874D01*
X140600569Y-79199280D01*
X140649289Y-79248000D01*
X140600569Y-79296720D01*
X140443000Y-79677126D01*
X140443000Y-80088874D01*
X140600569Y-80469280D01*
X140891720Y-80760431D01*
X141272126Y-80918000D01*
X141683874Y-80918000D01*
X142064280Y-80760431D01*
X142355431Y-80469280D01*
X142513000Y-80088874D01*
X142513000Y-79677126D01*
X142355431Y-79296720D01*
X142306711Y-79248000D01*
X142355431Y-79199280D01*
X142513000Y-78818874D01*
X142513000Y-78407126D01*
X142355431Y-78026720D01*
X142306711Y-77978000D01*
X142355431Y-77929280D01*
X142513000Y-77548874D01*
X142513000Y-77137126D01*
X142355431Y-76756720D01*
X142306711Y-76708000D01*
X142355431Y-76659280D01*
X142513000Y-76278874D01*
X142513000Y-75867126D01*
X142355431Y-75486720D01*
X142064280Y-75195569D01*
X141683874Y-75038000D01*
X141272126Y-75038000D01*
X140891720Y-75195569D01*
X140600569Y-75486720D01*
X140443000Y-75867126D01*
X108405365Y-75867126D01*
X108103239Y-75565000D01*
X108447086Y-75221153D01*
X108696000Y-74620222D01*
X108696000Y-73969778D01*
X108447086Y-73368847D01*
X108144259Y-73066020D01*
X125457000Y-73066020D01*
X125457000Y-73477768D01*
X125614569Y-73858174D01*
X125905720Y-74149325D01*
X126286126Y-74306894D01*
X126697874Y-74306894D01*
X127078280Y-74149325D01*
X127369431Y-73858174D01*
X127527000Y-73477768D01*
X127527000Y-73302653D01*
X127836221Y-73302653D01*
X128216627Y-73145084D01*
X128507778Y-72853933D01*
X128665347Y-72473527D01*
X128665347Y-72184126D01*
X135744000Y-72184126D01*
X135744000Y-72595874D01*
X135901569Y-72976280D01*
X136192720Y-73267431D01*
X136573126Y-73425000D01*
X136984874Y-73425000D01*
X137365280Y-73267431D01*
X137656431Y-72976280D01*
X137814000Y-72595874D01*
X137814000Y-72184126D01*
X137656431Y-71803720D01*
X137365280Y-71512569D01*
X137146931Y-71422126D01*
X140316000Y-71422126D01*
X140316000Y-71833874D01*
X140473569Y-72214280D01*
X140764720Y-72505431D01*
X141145126Y-72663000D01*
X141556874Y-72663000D01*
X141937280Y-72505431D01*
X142228431Y-72214280D01*
X142386000Y-71833874D01*
X142386000Y-71422126D01*
X142228431Y-71041720D01*
X141937280Y-70750569D01*
X141556874Y-70593000D01*
X141145126Y-70593000D01*
X140764720Y-70750569D01*
X140473569Y-71041720D01*
X140316000Y-71422126D01*
X137146931Y-71422126D01*
X136984874Y-71355000D01*
X136573126Y-71355000D01*
X136192720Y-71512569D01*
X135901569Y-71803720D01*
X135744000Y-72184126D01*
X128665347Y-72184126D01*
X128665347Y-72061779D01*
X128541565Y-71762943D01*
X128670000Y-71452874D01*
X128670000Y-71041126D01*
X128512431Y-70660720D01*
X128336711Y-70485000D01*
X128512431Y-70309280D01*
X128670000Y-69928874D01*
X128670000Y-69517126D01*
X128512431Y-69136720D01*
X128221280Y-68845569D01*
X127840874Y-68688000D01*
X127429126Y-68688000D01*
X127048720Y-68845569D01*
X126757569Y-69136720D01*
X126600000Y-69517126D01*
X126600000Y-69928874D01*
X126757569Y-70309280D01*
X126933289Y-70485000D01*
X126757569Y-70660720D01*
X126600000Y-71041126D01*
X126600000Y-71452874D01*
X126723782Y-71751710D01*
X126595347Y-72061779D01*
X126595347Y-72236894D01*
X126286126Y-72236894D01*
X125905720Y-72394463D01*
X125614569Y-72685614D01*
X125457000Y-73066020D01*
X108144259Y-73066020D01*
X108103239Y-73025000D01*
X108447086Y-72681153D01*
X108696000Y-72080222D01*
X108696000Y-71429778D01*
X108447086Y-70828847D01*
X108103239Y-70485000D01*
X108447086Y-70141153D01*
X108696000Y-69540222D01*
X108696000Y-68889778D01*
X108447086Y-68288847D01*
X108103239Y-67945000D01*
X108447086Y-67601153D01*
X108696000Y-67000222D01*
X108696000Y-66596126D01*
X137014000Y-66596126D01*
X137014000Y-67007874D01*
X137171569Y-67388280D01*
X137462720Y-67679431D01*
X137843126Y-67837000D01*
X138254874Y-67837000D01*
X138610072Y-67689872D01*
X138695569Y-67896280D01*
X138986720Y-68187431D01*
X139367126Y-68345000D01*
X139778874Y-68345000D01*
X140159280Y-68187431D01*
X140450431Y-67896280D01*
X140608000Y-67515874D01*
X140608000Y-67104126D01*
X140450431Y-66723720D01*
X140159280Y-66432569D01*
X139778874Y-66275000D01*
X139367126Y-66275000D01*
X139011928Y-66422128D01*
X138926431Y-66215720D01*
X138635280Y-65924569D01*
X138254874Y-65767000D01*
X137843126Y-65767000D01*
X137462720Y-65924569D01*
X137171569Y-66215720D01*
X137014000Y-66596126D01*
X108696000Y-66596126D01*
X108696000Y-66349778D01*
X108447086Y-65748847D01*
X108103239Y-65405000D01*
X108447086Y-65061153D01*
X108696000Y-64460222D01*
X108696000Y-63809778D01*
X108447086Y-63208847D01*
X108382277Y-63144038D01*
X108518809Y-63052809D01*
X108659157Y-62842765D01*
X108708440Y-62595000D01*
X108708440Y-61008126D01*
X130664000Y-61008126D01*
X130664000Y-61419874D01*
X130821569Y-61800280D01*
X131112720Y-62091431D01*
X131493126Y-62249000D01*
X131904874Y-62249000D01*
X132285280Y-62091431D01*
X132576431Y-61800280D01*
X132734000Y-61419874D01*
X132734000Y-61008126D01*
X132576431Y-60627720D01*
X132285280Y-60336569D01*
X131904874Y-60179000D01*
X131493126Y-60179000D01*
X131112720Y-60336569D01*
X130821569Y-60627720D01*
X130664000Y-61008126D01*
X108708440Y-61008126D01*
X108708440Y-60595000D01*
X108659157Y-60347235D01*
X108518809Y-60137191D01*
X108308765Y-59996843D01*
X108061000Y-59947560D01*
X106061000Y-59947560D01*
X105813235Y-59996843D01*
X105603191Y-60137191D01*
X105462843Y-60347235D01*
X105413560Y-60595000D01*
X105358000Y-60595000D01*
X105358000Y-56563126D01*
X130664000Y-56563126D01*
X130664000Y-56974874D01*
X130821569Y-57355280D01*
X131112720Y-57646431D01*
X131493126Y-57804000D01*
X131904874Y-57804000D01*
X132285280Y-57646431D01*
X132576431Y-57355280D01*
X132734000Y-56974874D01*
X132734000Y-56563126D01*
X132576431Y-56182720D01*
X132285280Y-55891569D01*
X131904874Y-55734000D01*
X131493126Y-55734000D01*
X131112720Y-55891569D01*
X130821569Y-56182720D01*
X130664000Y-56563126D01*
X105358000Y-56563126D01*
X105358000Y-55674126D01*
X134728000Y-55674126D01*
X134728000Y-56085874D01*
X134885569Y-56466280D01*
X135176720Y-56757431D01*
X135557126Y-56915000D01*
X135968874Y-56915000D01*
X136349280Y-56757431D01*
X136640431Y-56466280D01*
X136798000Y-56085874D01*
X136798000Y-55674126D01*
X136640431Y-55293720D01*
X136349280Y-55002569D01*
X135968874Y-54845000D01*
X135557126Y-54845000D01*
X135176720Y-55002569D01*
X134885569Y-55293720D01*
X134728000Y-55674126D01*
X105358000Y-55674126D01*
X105358000Y-53896126D01*
X140570000Y-53896126D01*
X140570000Y-54307874D01*
X140727569Y-54688280D01*
X141018720Y-54979431D01*
X141399126Y-55137000D01*
X141810874Y-55137000D01*
X142191280Y-54979431D01*
X142482431Y-54688280D01*
X142640000Y-54307874D01*
X142640000Y-53896126D01*
X142496451Y-53549568D01*
X142564466Y-53617583D01*
X143110266Y-53843661D01*
X143701036Y-53843661D01*
X144246836Y-53617583D01*
X144664573Y-53199846D01*
X144890651Y-52654046D01*
X144890651Y-52063276D01*
X148420651Y-52063276D01*
X148420651Y-52654046D01*
X148646729Y-53199846D01*
X149064466Y-53617583D01*
X149610266Y-53843661D01*
X150201036Y-53843661D01*
X150746836Y-53617583D01*
X151164573Y-53199846D01*
X151390651Y-52654046D01*
X151390651Y-52063276D01*
X151164573Y-51517476D01*
X150746836Y-51099739D01*
X150201036Y-50873661D01*
X149610266Y-50873661D01*
X149064466Y-51099739D01*
X148646729Y-51517476D01*
X148420651Y-52063276D01*
X144890651Y-52063276D01*
X144664573Y-51517476D01*
X144246836Y-51099739D01*
X143701036Y-50873661D01*
X143110266Y-50873661D01*
X142564466Y-51099739D01*
X142146729Y-51517476D01*
X141920651Y-52063276D01*
X141920651Y-52654046D01*
X142146729Y-53199846D01*
X142157432Y-53210549D01*
X141810874Y-53067000D01*
X141399126Y-53067000D01*
X141018720Y-53224569D01*
X140727569Y-53515720D01*
X140570000Y-53896126D01*
X105358000Y-53896126D01*
X105358000Y-52063276D01*
X110020651Y-52063276D01*
X110020651Y-52654046D01*
X110246729Y-53199846D01*
X110664466Y-53617583D01*
X111210266Y-53843661D01*
X111801036Y-53843661D01*
X112346836Y-53617583D01*
X112764573Y-53199846D01*
X112990651Y-52654046D01*
X112990651Y-52063276D01*
X116520651Y-52063276D01*
X116520651Y-52654046D01*
X116746729Y-53199846D01*
X117164466Y-53617583D01*
X117710266Y-53843661D01*
X118301036Y-53843661D01*
X118846836Y-53617583D01*
X119264573Y-53199846D01*
X119490651Y-52654046D01*
X119490651Y-52063276D01*
X119264573Y-51517476D01*
X118846836Y-51099739D01*
X118301036Y-50873661D01*
X117710266Y-50873661D01*
X117164466Y-51099739D01*
X116746729Y-51517476D01*
X116520651Y-52063276D01*
X112990651Y-52063276D01*
X112764573Y-51517476D01*
X112346836Y-51099739D01*
X111801036Y-50873661D01*
X111210266Y-50873661D01*
X110664466Y-51099739D01*
X110246729Y-51517476D01*
X110020651Y-52063276D01*
X105358000Y-52063276D01*
X105358000Y-47319000D01*
X110121834Y-47319000D01*
X110020651Y-47563276D01*
G04 #@! TD*
M02*
