G04 #@! TF.GenerationSoftware,KiCad,Pcbnew,(5.0.0)*
G04 #@! TF.CreationDate,2018-09-24T12:18:47+08:00*
G04 #@! TF.ProjectId,Clouduino Stratus v1.0,436C6F756475696E6F20537472617475,rev?*
G04 #@! TF.SameCoordinates,Original*
G04 #@! TF.FileFunction,Copper,L1,Top,Signal*
G04 #@! TF.FilePolarity,Positive*
%FSLAX46Y46*%
G04 Gerber Fmt 4.6, Leading zero omitted, Abs format (unit mm)*
G04 Created by KiCad (PCBNEW (5.0.0)) date 09/24/18 12:18:47*
%MOMM*%
%LPD*%
G01*
G04 APERTURE LIST*
G04 #@! TA.AperFunction,SMDPad,CuDef*
%ADD10R,2.500000X1.000000*%
G04 #@! TD*
G04 #@! TA.AperFunction,SMDPad,CuDef*
%ADD11R,1.500000X0.600000*%
G04 #@! TD*
G04 #@! TA.AperFunction,SMDPad,CuDef*
%ADD12R,1.600000X2.000000*%
G04 #@! TD*
G04 #@! TA.AperFunction,SMDPad,CuDef*
%ADD13R,2.000000X1.600000*%
G04 #@! TD*
G04 #@! TA.AperFunction,SMDPad,CuDef*
%ADD14R,2.300000X3.500000*%
G04 #@! TD*
G04 #@! TA.AperFunction,SMDPad,CuDef*
%ADD15R,1.700000X2.000000*%
G04 #@! TD*
G04 #@! TA.AperFunction,SMDPad,CuDef*
%ADD16R,2.000000X2.500000*%
G04 #@! TD*
G04 #@! TA.AperFunction,SMDPad,CuDef*
%ADD17R,0.500000X2.300000*%
G04 #@! TD*
G04 #@! TA.AperFunction,SMDPad,CuDef*
%ADD18R,1.300000X1.500000*%
G04 #@! TD*
G04 #@! TA.AperFunction,SMDPad,CuDef*
%ADD19R,2.000000X1.700000*%
G04 #@! TD*
G04 #@! TA.AperFunction,ComponentPad*
%ADD20C,1.700000*%
G04 #@! TD*
G04 #@! TA.AperFunction,SMDPad,CuDef*
%ADD21R,1.143000X0.508000*%
G04 #@! TD*
G04 #@! TA.AperFunction,SMDPad,CuDef*
%ADD22R,3.800000X2.000000*%
G04 #@! TD*
G04 #@! TA.AperFunction,SMDPad,CuDef*
%ADD23R,1.500000X2.000000*%
G04 #@! TD*
G04 #@! TA.AperFunction,SMDPad,CuDef*
%ADD24R,1.200000X0.400000*%
G04 #@! TD*
G04 #@! TA.AperFunction,ComponentPad*
%ADD25C,2.000000*%
G04 #@! TD*
G04 #@! TA.AperFunction,ComponentPad*
%ADD26R,2.000000X2.000000*%
G04 #@! TD*
G04 #@! TA.AperFunction,ViaPad*
%ADD27C,0.800000*%
G04 #@! TD*
G04 #@! TA.AperFunction,Conductor*
%ADD28C,0.250000*%
G04 #@! TD*
G04 #@! TA.AperFunction,Conductor*
%ADD29C,1.000000*%
G04 #@! TD*
G04 #@! TA.AperFunction,Conductor*
%ADD30C,0.750000*%
G04 #@! TD*
G04 #@! TA.AperFunction,Conductor*
%ADD31C,0.500000*%
G04 #@! TD*
G04 APERTURE END LIST*
D10*
G04 #@! TO.P,U3,22*
G04 #@! TO.N,ESP-TX*
X138305651Y-47787661D03*
G04 #@! TO.P,U3,21*
G04 #@! TO.N,ESP-RX*
X138305651Y-49787661D03*
G04 #@! TO.P,U3,20*
G04 #@! TO.N,ESP-GPIO5*
X138305651Y-51787661D03*
G04 #@! TO.P,U3,19*
G04 #@! TO.N,ESP-GPIO4*
X138305651Y-53787661D03*
G04 #@! TO.P,U3,18*
G04 #@! TO.N,Net-(R5-Pad2)*
X138305651Y-55787661D03*
G04 #@! TO.P,U3,17*
G04 #@! TO.N,Net-(R8-Pad2)*
X138305651Y-57787661D03*
G04 #@! TO.P,U3,16*
G04 #@! TO.N,Net-(R6-Pad1)*
X138305651Y-59787661D03*
G04 #@! TO.P,U3,15*
G04 #@! TO.N,GND*
X138305651Y-61787661D03*
G04 #@! TO.P,U3,8*
G04 #@! TO.N,VCC*
X123105651Y-61787661D03*
G04 #@! TO.P,U3,7*
G04 #@! TO.N,ESP-GPIO13*
X123105651Y-59787661D03*
G04 #@! TO.P,U3,6*
G04 #@! TO.N,ESP-GPIO12*
X123105651Y-57787661D03*
G04 #@! TO.P,U3,5*
G04 #@! TO.N,ESP-GPIO14*
X123105651Y-55787661D03*
G04 #@! TO.P,U3,4*
G04 #@! TO.N,ESP-GPIO16*
X123105651Y-53787661D03*
G04 #@! TO.P,U3,3*
G04 #@! TO.N,Net-(R2-Pad2)*
X123105651Y-51787661D03*
G04 #@! TO.P,U3,2*
G04 #@! TO.N,Net-(U3-Pad2)*
X123105651Y-49787661D03*
G04 #@! TO.P,U3,1*
G04 #@! TO.N,Net-(SW1-Pad2)*
X123105651Y-47787661D03*
G04 #@! TD*
D11*
G04 #@! TO.P,U4,16*
G04 #@! TO.N,VCC*
X133698000Y-98298000D03*
G04 #@! TO.P,U4,15*
X133698000Y-97028000D03*
G04 #@! TO.P,U4,14*
G04 #@! TO.N,GND*
X133698000Y-95758000D03*
G04 #@! TO.P,U4,13*
G04 #@! TO.N,ESP-GPIO14*
X133698000Y-94488000D03*
G04 #@! TO.P,U4,12*
G04 #@! TO.N,ESP-GPIO12*
X133698000Y-93218000D03*
G04 #@! TO.P,U4,11*
G04 #@! TO.N,ESP-GPIO13*
X133698000Y-91948000D03*
G04 #@! TO.P,U4,10*
G04 #@! TO.N,ESP-GPIO4*
X133698000Y-90678000D03*
G04 #@! TO.P,U4,9*
G04 #@! TO.N,GND*
X133698000Y-89408000D03*
G04 #@! TO.P,U4,8*
G04 #@! TO.N,ADC-CH7*
X139098000Y-89408000D03*
G04 #@! TO.P,U4,7*
G04 #@! TO.N,ADC-CH6*
X139098000Y-90678000D03*
G04 #@! TO.P,U4,6*
G04 #@! TO.N,ADC-CH5*
X139098000Y-91948000D03*
G04 #@! TO.P,U4,5*
G04 #@! TO.N,ADC-CH4*
X139098000Y-93218000D03*
G04 #@! TO.P,U4,4*
G04 #@! TO.N,ADC-CH3*
X139098000Y-94488000D03*
G04 #@! TO.P,U4,3*
G04 #@! TO.N,ADC-CH2*
X139098000Y-95758000D03*
G04 #@! TO.P,U4,2*
G04 #@! TO.N,ADC-CH1*
X139098000Y-97028000D03*
G04 #@! TO.P,U4,1*
G04 #@! TO.N,ADC-CH0*
X139098000Y-98298000D03*
G04 #@! TD*
D12*
G04 #@! TO.P,C1,2*
G04 #@! TO.N,GND*
X144907000Y-70485000D03*
G04 #@! TO.P,C1,1*
G04 #@! TO.N,VCC*
X144907000Y-74485000D03*
G04 #@! TD*
G04 #@! TO.P,C2,1*
G04 #@! TO.N,Net-(C2-Pad1)*
X116092346Y-88188894D03*
G04 #@! TO.P,C2,2*
G04 #@! TO.N,GND*
X116092346Y-84188894D03*
G04 #@! TD*
D13*
G04 #@! TO.P,C3,2*
G04 #@! TO.N,GND*
X113221000Y-60325000D03*
G04 #@! TO.P,C3,1*
G04 #@! TO.N,VCC*
X117221000Y-60325000D03*
G04 #@! TD*
G04 #@! TO.P,C4,1*
G04 #@! TO.N,VCC*
X115679346Y-66122894D03*
G04 #@! TO.P,C4,2*
G04 #@! TO.N,GND*
X111679346Y-66122894D03*
G04 #@! TD*
D12*
G04 #@! TO.P,C5,2*
G04 #@! TO.N,GND*
X127395346Y-89458894D03*
G04 #@! TO.P,C5,1*
G04 #@! TO.N,Net-(C5-Pad1)*
X127395346Y-85458894D03*
G04 #@! TD*
G04 #@! TO.P,C6,1*
G04 #@! TO.N,Net-(C6-Pad1)*
X120156346Y-89490894D03*
G04 #@! TO.P,C6,2*
G04 #@! TO.N,GND*
X120156346Y-85490894D03*
G04 #@! TD*
D13*
G04 #@! TO.P,C7,2*
G04 #@! TO.N,GND*
X125871346Y-75774894D03*
G04 #@! TO.P,C7,1*
G04 #@! TO.N,IO_POWER*
X121871346Y-75774894D03*
G04 #@! TD*
G04 #@! TO.P,C8,1*
G04 #@! TO.N,VCC*
X138906000Y-87122000D03*
G04 #@! TO.P,C8,2*
G04 #@! TO.N,GND*
X134906000Y-87122000D03*
G04 #@! TD*
D14*
G04 #@! TO.P,D1,2*
G04 #@! TO.N,5V-USB*
X112282346Y-96762894D03*
G04 #@! TO.P,D1,1*
G04 #@! TO.N,Net-(C2-Pad1)*
X112282346Y-91362894D03*
G04 #@! TD*
G04 #@! TO.P,D2,2*
G04 #@! TO.N,VIN_Breakout*
X112282346Y-79772894D03*
G04 #@! TO.P,D2,1*
G04 #@! TO.N,Net-(C2-Pad1)*
X112282346Y-85172894D03*
G04 #@! TD*
D15*
G04 #@! TO.P,POWER,2*
G04 #@! TO.N,Net-(D3-Pad2)*
X124347346Y-71932894D03*
G04 #@! TO.P,POWER,1*
G04 #@! TO.N,GND*
X124347346Y-67932894D03*
G04 #@! TD*
D16*
G04 #@! TO.P,J1,6*
G04 #@! TO.N,Net-(J1-Pad6)*
X128543346Y-99275894D03*
X128543346Y-93775894D03*
X119643346Y-99275894D03*
X119643346Y-93775894D03*
D17*
G04 #@! TO.P,J1,5*
G04 #@! TO.N,GND*
X125693346Y-93675894D03*
G04 #@! TO.P,J1,4*
G04 #@! TO.N,Net-(J1-Pad4)*
X124893346Y-93675894D03*
G04 #@! TO.P,J1,3*
G04 #@! TO.N,Net-(C5-Pad1)*
X124093346Y-93675894D03*
G04 #@! TO.P,J1,2*
G04 #@! TO.N,Net-(C6-Pad1)*
X123293346Y-93675894D03*
G04 #@! TO.P,J1,1*
G04 #@! TO.N,Net-(J1-Pad1)*
X122493346Y-93675894D03*
G04 #@! TD*
D18*
G04 #@! TO.P,L1,2*
G04 #@! TO.N,Net-(J1-Pad1)*
X116473346Y-94109894D03*
G04 #@! TO.P,L1,1*
G04 #@! TO.N,5V-USB*
X116473346Y-96809894D03*
G04 #@! TD*
D15*
G04 #@! TO.P,R1,2*
G04 #@! TO.N,Net-(D3-Pad2)*
X121426346Y-71900894D03*
G04 #@! TO.P,R1,1*
G04 #@! TO.N,VCC*
X121426346Y-67900894D03*
G04 #@! TD*
D19*
G04 #@! TO.P,R2,1*
G04 #@! TO.N,VCC*
X113189000Y-57150000D03*
G04 #@! TO.P,R2,2*
G04 #@! TO.N,Net-(R2-Pad2)*
X117189000Y-57150000D03*
G04 #@! TD*
D15*
G04 #@! TO.P,R3,2*
G04 #@! TO.N,Net-(C5-Pad1)*
X124982346Y-89458894D03*
G04 #@! TO.P,R3,1*
G04 #@! TO.N,DATA+*
X124982346Y-85458894D03*
G04 #@! TD*
G04 #@! TO.P,R4,1*
G04 #@! TO.N,DATA-*
X122569346Y-85458894D03*
G04 #@! TO.P,R4,2*
G04 #@! TO.N,Net-(C6-Pad1)*
X122569346Y-89458894D03*
G04 #@! TD*
D19*
G04 #@! TO.P,R5,1*
G04 #@! TO.N,VCC*
X147564651Y-55859661D03*
G04 #@! TO.P,R5,2*
G04 #@! TO.N,Net-(R5-Pad2)*
X143564651Y-55859661D03*
G04 #@! TD*
G04 #@! TO.P,R6,2*
G04 #@! TO.N,GND*
X147564651Y-61066661D03*
G04 #@! TO.P,R6,1*
G04 #@! TO.N,Net-(R6-Pad1)*
X143564651Y-61066661D03*
G04 #@! TD*
G04 #@! TO.P,R7,2*
G04 #@! TO.N,Net-(R7-Pad2)*
X147564651Y-63733661D03*
G04 #@! TO.P,R7,1*
G04 #@! TO.N,GND*
X143564651Y-63733661D03*
G04 #@! TD*
D20*
G04 #@! TO.P,Reset,4*
G04 #@! TO.N,N/C*
X118005651Y-52358661D03*
G04 #@! TO.P,Reset,3*
X111505651Y-52358661D03*
G04 #@! TO.P,Reset,2*
G04 #@! TO.N,Net-(SW1-Pad2)*
X118005651Y-47858661D03*
G04 #@! TO.P,Reset,1*
G04 #@! TO.N,GND*
X111505651Y-47858661D03*
G04 #@! TD*
G04 #@! TO.P,Boot,1*
G04 #@! TO.N,Net-(R5-Pad2)*
X143405651Y-47858661D03*
G04 #@! TO.P,Boot,2*
G04 #@! TO.N,Net-(R7-Pad2)*
X149905651Y-47858661D03*
G04 #@! TO.P,Boot,3*
G04 #@! TO.N,N/C*
X143405651Y-52358661D03*
G04 #@! TO.P,Boot,4*
X149905651Y-52358661D03*
G04 #@! TD*
D21*
G04 #@! TO.P,U1,28*
G04 #@! TO.N,GPIO8*
X132715000Y-84963000D03*
G04 #@! TO.P,U1,27*
G04 #@! TO.N,GPIO7*
X132715000Y-83693000D03*
G04 #@! TO.P,U1,26*
G04 #@! TO.N,GPIO6*
X132715000Y-82423000D03*
G04 #@! TO.P,U1,25*
G04 #@! TO.N,GPIO5*
X132715000Y-81153000D03*
G04 #@! TO.P,U1,24*
G04 #@! TO.N,GPIO4*
X132715000Y-79883000D03*
G04 #@! TO.P,U1,23*
G04 #@! TO.N,GPIO3*
X132715000Y-78613000D03*
G04 #@! TO.P,U1,22*
G04 #@! TO.N,GPIO2*
X132715000Y-77343000D03*
G04 #@! TO.P,U1,21*
G04 #@! TO.N,GPIO1*
X132715000Y-76073000D03*
G04 #@! TO.P,U1,20*
G04 #@! TO.N,INTA_Breakout*
X132715000Y-74803000D03*
G04 #@! TO.P,U1,19*
G04 #@! TO.N,INTB_Breakout*
X132715000Y-73533000D03*
G04 #@! TO.P,U1,18*
G04 #@! TO.N,VCC*
X132715000Y-72263000D03*
G04 #@! TO.P,U1,17*
G04 #@! TO.N,GND*
X132715000Y-70993000D03*
G04 #@! TO.P,U1,16*
X132715000Y-69723000D03*
G04 #@! TO.P,U1,15*
X132715000Y-68453000D03*
G04 #@! TO.P,U1,14*
G04 #@! TO.N,ESP-GPIO12*
X139827000Y-68453000D03*
G04 #@! TO.P,U1,13*
G04 #@! TO.N,ESP-GPIO13*
X139827000Y-69723000D03*
G04 #@! TO.P,U1,12*
G04 #@! TO.N,ESP-GPIO14*
X139827000Y-70993000D03*
G04 #@! TO.P,U1,11*
G04 #@! TO.N,ESP-GPIO5*
X139827000Y-72263000D03*
G04 #@! TO.P,U1,10*
G04 #@! TO.N,GND*
X139827000Y-73533000D03*
G04 #@! TO.P,U1,9*
G04 #@! TO.N,VCC*
X139827000Y-74803000D03*
G04 #@! TO.P,U1,8*
G04 #@! TO.N,GPIO16*
X139827000Y-76073000D03*
G04 #@! TO.P,U1,7*
G04 #@! TO.N,GPIO15*
X139827000Y-77343000D03*
G04 #@! TO.P,U1,6*
G04 #@! TO.N,GPIO14*
X139827000Y-78613000D03*
G04 #@! TO.P,U1,5*
G04 #@! TO.N,GPIO13*
X139827000Y-79883000D03*
G04 #@! TO.P,U1,4*
G04 #@! TO.N,GPIO12*
X139827000Y-81153000D03*
G04 #@! TO.P,U1,3*
G04 #@! TO.N,GPIO11*
X139827000Y-82423000D03*
G04 #@! TO.P,U1,2*
G04 #@! TO.N,GPIO10*
X139827000Y-83693000D03*
G04 #@! TO.P,U1,1*
G04 #@! TO.N,GPIO9*
X139827000Y-84963000D03*
G04 #@! TD*
D22*
G04 #@! TO.P,U2,2*
G04 #@! TO.N,VCC*
X115711346Y-69703894D03*
D23*
X115711346Y-76003894D03*
G04 #@! TO.P,U2,3*
G04 #@! TO.N,Net-(C2-Pad1)*
X118011346Y-76003894D03*
G04 #@! TO.P,U2,1*
G04 #@! TO.N,GND*
X113411346Y-76003894D03*
G04 #@! TD*
D24*
G04 #@! TO.P,U5,16*
G04 #@! TO.N,Net-(U5-Pad16)*
X121112346Y-82188394D03*
G04 #@! TO.P,U5,15*
G04 #@! TO.N,Net-(U5-Pad15)*
X121112346Y-81553394D03*
G04 #@! TO.P,U5,14*
G04 #@! TO.N,Net-(U5-Pad14)*
X121112346Y-80918394D03*
G04 #@! TO.P,U5,13*
G04 #@! TO.N,GND*
X121112346Y-80283394D03*
G04 #@! TO.P,U5,12*
G04 #@! TO.N,5V-USB*
X121112346Y-79648394D03*
G04 #@! TO.P,U5,11*
G04 #@! TO.N,IO_POWER*
X121112346Y-79013394D03*
G04 #@! TO.P,U5,10*
X121112346Y-78378394D03*
G04 #@! TO.P,U5,9*
G04 #@! TO.N,DATA-*
X121112346Y-77743394D03*
G04 #@! TO.P,U5,8*
G04 #@! TO.N,DATA+*
X126312346Y-77743394D03*
G04 #@! TO.P,U5,7*
G04 #@! TO.N,Net-(U5-Pad7)*
X126312346Y-78378394D03*
G04 #@! TO.P,U5,6*
G04 #@! TO.N,Net-(U5-Pad6)*
X126312346Y-79013394D03*
G04 #@! TO.P,U5,5*
G04 #@! TO.N,GND*
X126312346Y-79648394D03*
G04 #@! TO.P,U5,4*
G04 #@! TO.N,ESP-TX*
X126312346Y-80283394D03*
G04 #@! TO.P,U5,3*
G04 #@! TO.N,IO_POWER*
X126312346Y-80918394D03*
G04 #@! TO.P,U5,2*
G04 #@! TO.N,Net-(U5-Pad2)*
X126312346Y-81553394D03*
G04 #@! TO.P,U5,1*
G04 #@! TO.N,ESP-RX*
X126312346Y-82188394D03*
G04 #@! TD*
D19*
G04 #@! TO.P,R8,2*
G04 #@! TO.N,Net-(R8-Pad2)*
X143564651Y-58399661D03*
G04 #@! TO.P,R8,1*
G04 #@! TO.N,VCC*
X147564651Y-58399661D03*
G04 #@! TD*
D25*
G04 #@! TO.P,J2,16*
G04 #@! TO.N,5V-USB*
X107061000Y-99695000D03*
G04 #@! TO.P,J2,15*
G04 #@! TO.N,VCC*
X107061000Y-97155000D03*
G04 #@! TO.P,J2,14*
X107061000Y-94615000D03*
G04 #@! TO.P,J2,13*
X107061000Y-92075000D03*
G04 #@! TO.P,J2,12*
G04 #@! TO.N,GND*
X107061000Y-89535000D03*
G04 #@! TO.P,J2,11*
G04 #@! TO.N,GPIO8*
X107061000Y-86995000D03*
G04 #@! TO.P,J2,10*
G04 #@! TO.N,GPIO7*
X107061000Y-84455000D03*
G04 #@! TO.P,J2,9*
G04 #@! TO.N,GPIO6*
X107061000Y-81915000D03*
G04 #@! TO.P,J2,8*
G04 #@! TO.N,VIN_Breakout*
X107061000Y-79375000D03*
G04 #@! TO.P,J2,7*
G04 #@! TO.N,GPIO5*
X107061000Y-76835000D03*
G04 #@! TO.P,J2,6*
G04 #@! TO.N,GPIO4*
X107061000Y-74295000D03*
G04 #@! TO.P,J2,5*
G04 #@! TO.N,GPIO3*
X107061000Y-71755000D03*
G04 #@! TO.P,J2,4*
G04 #@! TO.N,GPIO2*
X107061000Y-69215000D03*
G04 #@! TO.P,J2,3*
G04 #@! TO.N,GPIO1*
X107061000Y-66675000D03*
G04 #@! TO.P,J2,2*
G04 #@! TO.N,INTA_Breakout*
X107061000Y-64135000D03*
D26*
G04 #@! TO.P,J2,1*
G04 #@! TO.N,INTB_Breakout*
X107061000Y-61595000D03*
G04 #@! TD*
G04 #@! TO.P,J3,1*
G04 #@! TO.N,ADC-CH0*
X154686000Y-99695000D03*
D25*
G04 #@! TO.P,J3,2*
G04 #@! TO.N,ADC-CH1*
X154686000Y-97155000D03*
G04 #@! TO.P,J3,3*
G04 #@! TO.N,ADC-CH2*
X154686000Y-94615000D03*
G04 #@! TO.P,J3,4*
G04 #@! TO.N,ADC-CH3*
X154686000Y-92075000D03*
G04 #@! TO.P,J3,5*
G04 #@! TO.N,ADC-CH4*
X154686000Y-89535000D03*
G04 #@! TO.P,J3,6*
G04 #@! TO.N,ADC-CH5*
X154686000Y-86995000D03*
G04 #@! TO.P,J3,7*
G04 #@! TO.N,ADC-CH6*
X154686000Y-84455000D03*
G04 #@! TO.P,J3,8*
G04 #@! TO.N,ADC-CH7*
X154686000Y-81915000D03*
G04 #@! TO.P,J3,9*
G04 #@! TO.N,GPIO9*
X154686000Y-79375000D03*
G04 #@! TO.P,J3,10*
G04 #@! TO.N,GPIO10*
X154686000Y-76835000D03*
G04 #@! TO.P,J3,11*
G04 #@! TO.N,GPIO11*
X154686000Y-74295000D03*
G04 #@! TO.P,J3,12*
G04 #@! TO.N,GPIO12*
X154686000Y-71755000D03*
G04 #@! TO.P,J3,13*
G04 #@! TO.N,GPIO13*
X154686000Y-69215000D03*
G04 #@! TO.P,J3,14*
G04 #@! TO.N,GPIO14*
X154686000Y-66675000D03*
G04 #@! TO.P,J3,15*
G04 #@! TO.N,GPIO15*
X154686000Y-64135000D03*
G04 #@! TO.P,J3,16*
G04 #@! TO.N,GPIO16*
X154686000Y-61595000D03*
G04 #@! TD*
D27*
G04 #@! TO.N,GND*
X125744346Y-91522894D03*
X120156346Y-83394894D03*
X116092346Y-82251894D03*
X111679346Y-72377894D03*
X127903346Y-79203894D03*
X127127000Y-68326000D03*
X113284000Y-62103000D03*
X134874000Y-85217000D03*
X108940600Y-89535000D03*
X140992651Y-63606661D03*
G04 #@! TO.N,VCC*
X149882651Y-57129661D03*
X119126000Y-63881000D03*
X140843000Y-87122000D03*
X108955840Y-92075000D03*
X147066000Y-68580000D03*
G04 #@! TO.N,ESP-GPIO12*
X131953000Y-93218000D03*
X139573000Y-67310000D03*
G04 #@! TO.N,ESP-GPIO13*
X131228000Y-91948000D03*
X138049000Y-66802000D03*
G04 #@! TO.N,ESP-GPIO14*
X131699000Y-61214000D03*
X131699000Y-56769000D03*
X131953000Y-94488000D03*
X136779000Y-72390000D03*
G04 #@! TO.N,ESP-GPIO5*
X141351000Y-71628000D03*
X141605000Y-54102000D03*
G04 #@! TO.N,ESP-TX*
X127903953Y-80220675D03*
X135763000Y-47879000D03*
G04 #@! TO.N,ESP-RX*
X127903346Y-82124894D03*
X135763000Y-49784000D03*
G04 #@! TO.N,INTA_Breakout*
X127635000Y-71247000D03*
G04 #@! TO.N,INTB_Breakout*
X127635000Y-69723000D03*
G04 #@! TO.N,ESP-GPIO4*
X135763000Y-55880000D03*
X132842000Y-86106000D03*
G04 #@! TO.N,GPIO8*
X131267200Y-84937600D03*
G04 #@! TO.N,GPIO7*
X134264400Y-83718400D03*
G04 #@! TO.N,GPIO6*
X134264400Y-82397600D03*
G04 #@! TO.N,GPIO5*
X131064000Y-81127600D03*
G04 #@! TO.N,GPIO4*
X131064000Y-79883000D03*
G04 #@! TO.N,GPIO3*
X131064000Y-78613000D03*
G04 #@! TO.N,GPIO2*
X126492000Y-73271894D03*
G04 #@! TO.N,GPIO1*
X127630347Y-72267653D03*
G04 #@! TO.N,GPIO13*
X141478000Y-79883000D03*
G04 #@! TO.N,GPIO14*
X141478000Y-78613000D03*
G04 #@! TO.N,GPIO15*
X141478000Y-77343000D03*
G04 #@! TO.N,GPIO16*
X141478000Y-76073000D03*
G04 #@! TD*
D28*
G04 #@! TO.N,GND*
X125693346Y-93675894D02*
X125693346Y-91573894D01*
X125693346Y-91573894D02*
X125744346Y-91522894D01*
X126887346Y-91522894D02*
X125744346Y-91522894D01*
X127395346Y-89458894D02*
X127395346Y-91014894D01*
X127395346Y-91014894D02*
X126887346Y-91522894D01*
X120156346Y-85490894D02*
X120156346Y-83394894D01*
D29*
X116092346Y-84188894D02*
X116092346Y-82251894D01*
X113411346Y-76003894D02*
X113411346Y-74137894D01*
X113411346Y-74137894D02*
X113425346Y-74123894D01*
X111679346Y-66122894D02*
X111679346Y-72377894D01*
X113411346Y-74109894D02*
X111679346Y-72377894D01*
X113411346Y-74137894D02*
X113411346Y-74109894D01*
D28*
X126312346Y-79648394D02*
X127458846Y-79648394D01*
X127458846Y-79648394D02*
X127903346Y-79203894D01*
X127903346Y-78638209D02*
X127903346Y-79203894D01*
X127903346Y-76556894D02*
X127903346Y-78638209D01*
X127121346Y-75774894D02*
X127903346Y-76556894D01*
X125871346Y-75774894D02*
X127121346Y-75774894D01*
X121112346Y-80283394D02*
X119965846Y-80283394D01*
X119965846Y-80283394D02*
X119394346Y-80854894D01*
X119394346Y-82632894D02*
X120156346Y-83394894D01*
X119394346Y-80854894D02*
X119394346Y-82632894D01*
D30*
X139055651Y-61787661D02*
X139096651Y-61828661D01*
X138305651Y-61787661D02*
X139055651Y-61787661D01*
X139096651Y-61828661D02*
X140103651Y-61828661D01*
X140992651Y-62717661D02*
X140992651Y-63606661D01*
X140103651Y-61828661D02*
X140992651Y-62717661D01*
X143437651Y-63606661D02*
X143564651Y-63733661D01*
X140992651Y-63606661D02*
X143437651Y-63606661D01*
D31*
X113221000Y-60325000D02*
X113221000Y-62040000D01*
X113221000Y-62040000D02*
X113284000Y-62103000D01*
X111505651Y-47858661D02*
X113284000Y-49637010D01*
X113284000Y-49637010D02*
X113284000Y-53340000D01*
X111379000Y-60325000D02*
X113221000Y-60325000D01*
X110998000Y-59944000D02*
X111379000Y-60325000D01*
X113284000Y-53340000D02*
X110998000Y-55626000D01*
X110998000Y-55626000D02*
X110998000Y-59944000D01*
X127254000Y-68453000D02*
X127127000Y-68326000D01*
X126733894Y-67932894D02*
X127127000Y-68326000D01*
X124347346Y-67932894D02*
X126733894Y-67932894D01*
X129921000Y-68453000D02*
X129921000Y-69215000D01*
X129921000Y-68453000D02*
X127254000Y-68453000D01*
X132715000Y-68453000D02*
X129921000Y-68453000D01*
X130429000Y-69723000D02*
X132715000Y-69723000D01*
X129921000Y-69215000D02*
X130429000Y-69723000D01*
X129921000Y-69215000D02*
X129921000Y-70485000D01*
X130429000Y-70993000D02*
X132715000Y-70993000D01*
X129921000Y-70485000D02*
X130429000Y-70993000D01*
X138755500Y-73533000D02*
X139827000Y-73533000D01*
X136326500Y-73533000D02*
X138755500Y-73533000D01*
X133786500Y-70993000D02*
X136326500Y-73533000D01*
X132715000Y-70993000D02*
X133786500Y-70993000D01*
D28*
X133096000Y-87122000D02*
X134906000Y-87122000D01*
X132334000Y-87884000D02*
X133096000Y-87122000D01*
X132334000Y-89154000D02*
X132334000Y-87884000D01*
X133698000Y-89408000D02*
X132588000Y-89408000D01*
X132588000Y-89408000D02*
X132334000Y-89154000D01*
X134906000Y-87122000D02*
X134906000Y-85249000D01*
X134906000Y-85249000D02*
X134874000Y-85217000D01*
X134906000Y-88172000D02*
X135507000Y-88773000D01*
X134906000Y-87122000D02*
X134906000Y-88172000D01*
X135507000Y-94399000D02*
X135509000Y-94401000D01*
X135507000Y-88773000D02*
X135507000Y-94399000D01*
X135509000Y-94401000D02*
X135509000Y-95250000D01*
X135001000Y-95758000D02*
X133698000Y-95758000D01*
X135509000Y-95250000D02*
X135001000Y-95758000D01*
D31*
X139827000Y-73533000D02*
X142240000Y-73533000D01*
X142240000Y-73533000D02*
X143383000Y-72390000D01*
X143383000Y-72390000D02*
X144653000Y-72390000D01*
X144907000Y-72136000D02*
X144907000Y-70485000D01*
X144653000Y-72390000D02*
X144907000Y-72136000D01*
D30*
X140992651Y-64792651D02*
X140992651Y-63606661D01*
X144881600Y-68681600D02*
X140992651Y-64792651D01*
X144881600Y-70259600D02*
X144881600Y-68681600D01*
X144907000Y-70485000D02*
X144907000Y-70285000D01*
X144907000Y-70285000D02*
X144881600Y-70259600D01*
X145314651Y-63733661D02*
X143564651Y-63733661D01*
X147564651Y-61066661D02*
X147414651Y-61066661D01*
X147414651Y-61066661D02*
X147409590Y-61061600D01*
X147409590Y-61061600D02*
X146100800Y-61061600D01*
X146100800Y-61061600D02*
X145643600Y-61518800D01*
X145643600Y-61518800D02*
X145643600Y-63404712D01*
X145643600Y-63404712D02*
X145314651Y-63733661D01*
D29*
X108940600Y-89535000D02*
X107061000Y-89535000D01*
G04 #@! TO.N,VCC*
X115711346Y-76003894D02*
X115711346Y-69703894D01*
X115711346Y-66154894D02*
X115679346Y-66122894D01*
X115711346Y-69703894D02*
X115711346Y-66154894D01*
D31*
X149882651Y-56240661D02*
X149882651Y-57129661D01*
X147564651Y-55859661D02*
X149501651Y-55859661D01*
X149501651Y-55859661D02*
X149882651Y-56240661D01*
X149882651Y-58145661D02*
X149882651Y-57129661D01*
X147564651Y-58399661D02*
X149628651Y-58399661D01*
X149628651Y-58399661D02*
X149882651Y-58145661D01*
X114808000Y-57150000D02*
X113189000Y-57150000D01*
X115189000Y-57531000D02*
X114808000Y-57150000D01*
X115189000Y-59793000D02*
X115189000Y-57531000D01*
X117221000Y-60325000D02*
X115721000Y-60325000D01*
X115721000Y-60325000D02*
X115189000Y-59793000D01*
D29*
X115879346Y-66122894D02*
X115923452Y-66167000D01*
X115679346Y-66122894D02*
X115879346Y-66122894D01*
X119126000Y-63881000D02*
X119126000Y-64897000D01*
X117900106Y-66122894D02*
X115679346Y-66122894D01*
X119126000Y-64897000D02*
X117900106Y-66122894D01*
X121426346Y-64530346D02*
X121426346Y-67900894D01*
X119126000Y-63881000D02*
X120777000Y-63881000D01*
X120777000Y-63881000D02*
X121426346Y-64530346D01*
X117221000Y-61976000D02*
X117221000Y-60325000D01*
X119126000Y-63881000D02*
X117221000Y-61976000D01*
D31*
X117221000Y-60325000D02*
X118999000Y-60325000D01*
X120461661Y-61787661D02*
X123105651Y-61787661D01*
X118999000Y-60325000D02*
X120461661Y-61787661D01*
X138755500Y-74803000D02*
X139827000Y-74803000D01*
X136326500Y-74803000D02*
X138755500Y-74803000D01*
X133786500Y-72263000D02*
X136326500Y-74803000D01*
X132715000Y-72263000D02*
X133786500Y-72263000D01*
D28*
X138906000Y-87122000D02*
X140843000Y-87122000D01*
X135763000Y-97028000D02*
X133698000Y-97028000D01*
X136271000Y-97536000D02*
X135763000Y-97028000D01*
X135509000Y-98298000D02*
X133698000Y-98298000D01*
X136271000Y-97536000D02*
X135509000Y-98298000D01*
X137656000Y-87122000D02*
X138906000Y-87122000D01*
X136906000Y-87872000D02*
X137656000Y-87122000D01*
X136906000Y-97282000D02*
X136906000Y-87872000D01*
X136271000Y-97536000D02*
X136652000Y-97536000D01*
X136652000Y-97536000D02*
X136906000Y-97282000D01*
D31*
X142939000Y-74485000D02*
X144907000Y-74485000D01*
X139827000Y-74803000D02*
X142621000Y-74803000D01*
X142621000Y-74803000D02*
X142939000Y-74485000D01*
D30*
X146457000Y-74485000D02*
X146469200Y-74472800D01*
X144907000Y-74485000D02*
X146457000Y-74485000D01*
X146469200Y-74472800D02*
X146558000Y-74472800D01*
X146558000Y-74472800D02*
X147066000Y-73964800D01*
X147066000Y-73964800D02*
X147066000Y-68580000D01*
D29*
X107061000Y-92075000D02*
X108955840Y-92075000D01*
X108955840Y-92640685D02*
X108966000Y-92650845D01*
X108955840Y-92075000D02*
X108955840Y-92640685D01*
X108966000Y-92650845D02*
X108966000Y-93980000D01*
X108966000Y-93980000D02*
X108331000Y-94615000D01*
X108331000Y-94615000D02*
X107061000Y-94615000D01*
X108458000Y-97155000D02*
X107061000Y-97155000D01*
X108966000Y-93980000D02*
X108966000Y-96647000D01*
X108966000Y-96647000D02*
X108458000Y-97155000D01*
G04 #@! TO.N,Net-(C2-Pad1)*
X112314346Y-88188894D02*
X116092346Y-88188894D01*
X112282346Y-88220894D02*
X112314346Y-88188894D01*
X112282346Y-88220894D02*
X112282346Y-85172894D01*
X112282346Y-91362894D02*
X112282346Y-88220894D01*
D30*
X118011346Y-87819894D02*
X118011346Y-76003894D01*
X116092346Y-88188894D02*
X117642346Y-88188894D01*
X117642346Y-88188894D02*
X118011346Y-87819894D01*
D28*
G04 #@! TO.N,IO_POWER*
X120621346Y-75774894D02*
X119648346Y-76747894D01*
X121871346Y-75774894D02*
X120621346Y-75774894D01*
X120262346Y-78378394D02*
X121112346Y-78378394D01*
X119648346Y-77764394D02*
X120262346Y-78378394D01*
X119648346Y-76747894D02*
X119648346Y-77764394D01*
X120092846Y-79013394D02*
X121112346Y-79013394D01*
X119648346Y-76747894D02*
X119648346Y-78568894D01*
X119648346Y-78568894D02*
X120092846Y-79013394D01*
X121871346Y-74724894D02*
X121871346Y-75774894D01*
X127395346Y-73996894D02*
X122599346Y-73996894D01*
X126312346Y-80918394D02*
X127331846Y-80918394D01*
X127649346Y-81235894D02*
X128284346Y-81235894D01*
X122599346Y-73996894D02*
X121871346Y-74724894D01*
X128284346Y-81235894D02*
X128665346Y-80854894D01*
X128665346Y-80854894D02*
X128665346Y-75266894D01*
X127331846Y-80918394D02*
X127649346Y-81235894D01*
X128665346Y-75266894D02*
X127395346Y-73996894D01*
D29*
G04 #@! TO.N,5V-USB*
X112329346Y-96809894D02*
X112282346Y-96762894D01*
D28*
X114949346Y-92157894D02*
X114949346Y-96809894D01*
X117870346Y-90252894D02*
X116854346Y-90252894D01*
D29*
X114949346Y-96809894D02*
X112329346Y-96809894D01*
D28*
X116854346Y-90252894D02*
X114949346Y-92157894D01*
D29*
X116473346Y-96809894D02*
X114949346Y-96809894D01*
D28*
X121112346Y-79648394D02*
X119457846Y-79648394D01*
X119457846Y-79648394D02*
X118759346Y-80346894D01*
X118759346Y-80346894D02*
X118759346Y-89363894D01*
X118759346Y-89363894D02*
X117870346Y-90252894D01*
D29*
X111633000Y-99695000D02*
X107061000Y-99695000D01*
X112282346Y-96762894D02*
X112282346Y-99045654D01*
X112282346Y-99045654D02*
X111633000Y-99695000D01*
G04 #@! TO.N,VIN_Breakout*
X109093000Y-79375000D02*
X107061000Y-79375000D01*
X112282346Y-79772894D02*
X109490894Y-79772894D01*
X109490894Y-79772894D02*
X109093000Y-79375000D01*
G04 #@! TO.N,Net-(D3-Pad2)*
X124315346Y-71900894D02*
X124347346Y-71932894D01*
X121426346Y-71900894D02*
X124315346Y-71900894D01*
D28*
G04 #@! TO.N,Net-(J1-Pad1)*
X116473346Y-92157894D02*
X116473346Y-94109894D01*
X117108346Y-91522894D02*
X116473346Y-92157894D01*
X121934346Y-91522894D02*
X117108346Y-91522894D01*
X122493346Y-93675894D02*
X122493346Y-92081894D01*
X122493346Y-92081894D02*
X121934346Y-91522894D01*
D31*
G04 #@! TO.N,Net-(R2-Pad2)*
X117189000Y-54832000D02*
X117189000Y-57150000D01*
X120367661Y-51787661D02*
X118745000Y-50165000D01*
X123105651Y-51787661D02*
X120367661Y-51787661D01*
X118745000Y-50165000D02*
X116713000Y-50165000D01*
X116713000Y-50165000D02*
X115443000Y-51435000D01*
X115443000Y-51435000D02*
X115443000Y-53086000D01*
X115443000Y-53086000D02*
X117189000Y-54832000D01*
D28*
G04 #@! TO.N,DATA+*
X125462346Y-77743394D02*
X126312346Y-77743394D01*
X124982346Y-85458894D02*
X124982346Y-78223394D01*
X124982346Y-78223394D02*
X125462346Y-77743394D01*
G04 #@! TO.N,DATA-*
X121962346Y-77743394D02*
X121112346Y-77743394D01*
X122569346Y-85458894D02*
X122569346Y-78350394D01*
X122569346Y-78350394D02*
X121962346Y-77743394D01*
G04 #@! TO.N,Net-(SW1-Pad2)*
X123034651Y-47858661D02*
X123105651Y-47787661D01*
X118005651Y-47858661D02*
X123034651Y-47858661D01*
D31*
G04 #@! TO.N,ESP-GPIO12*
X134241661Y-57787661D02*
X123105651Y-57787661D01*
X135763000Y-59309000D02*
X134241661Y-57787661D01*
X135763000Y-66167000D02*
X135763000Y-59309000D01*
X139827000Y-68453000D02*
X138049000Y-68453000D01*
X138049000Y-68453000D02*
X135763000Y-66167000D01*
D28*
X133698000Y-93218000D02*
X131953000Y-93218000D01*
X140970000Y-68453000D02*
X139827000Y-68453000D01*
X141097000Y-68326000D02*
X140970000Y-68453000D01*
X141097000Y-67818000D02*
X141097000Y-68326000D01*
X139573000Y-67310000D02*
X140589000Y-67310000D01*
X140589000Y-67310000D02*
X141097000Y-67818000D01*
D31*
G04 #@! TO.N,ESP-GPIO13*
X133731000Y-61341000D02*
X132177661Y-59787661D01*
X133731000Y-65532000D02*
X133731000Y-61341000D01*
X139827000Y-69723000D02*
X137922000Y-69723000D01*
X137922000Y-69723000D02*
X133731000Y-65532000D01*
X132177661Y-59787661D02*
X130556000Y-59787661D01*
X130556000Y-59787661D02*
X123105651Y-59787661D01*
D28*
X133698000Y-91948000D02*
X131228000Y-91948000D01*
X138448999Y-66402001D02*
X140697001Y-66402001D01*
X138049000Y-66802000D02*
X138448999Y-66402001D01*
X140697001Y-66402001D02*
X141732000Y-67437000D01*
X141732000Y-67437000D02*
X141732000Y-69088000D01*
X141097000Y-69723000D02*
X139827000Y-69723000D01*
X141732000Y-69088000D02*
X141097000Y-69723000D01*
D31*
G04 #@! TO.N,ESP-GPIO14*
X139827000Y-70993000D02*
X137414000Y-70993000D01*
X137414000Y-70993000D02*
X131699000Y-65278000D01*
X131699000Y-65278000D02*
X131699000Y-61214000D01*
X130717661Y-55787661D02*
X123105651Y-55787661D01*
X131699000Y-56769000D02*
X130717661Y-55787661D01*
D28*
X133698000Y-94488000D02*
X131953000Y-94488000D01*
D31*
X137178999Y-71228001D02*
X137414000Y-70993000D01*
X137178999Y-71990001D02*
X137178999Y-71228001D01*
X136779000Y-72390000D02*
X137178999Y-71990001D01*
D28*
G04 #@! TO.N,ESP-GPIO5*
X139827000Y-72263000D02*
X140716000Y-72263000D01*
X140716000Y-72263000D02*
X141351000Y-71628000D01*
D31*
X141205001Y-53702001D02*
X141205001Y-52051001D01*
X141605000Y-54102000D02*
X141205001Y-53702001D01*
X140941661Y-51787661D02*
X138305651Y-51787661D01*
X141205001Y-52051001D02*
X140941661Y-51787661D01*
D28*
G04 #@! TO.N,ESP-TX*
X126312346Y-80283394D02*
X127841234Y-80283394D01*
X127841234Y-80283394D02*
X127903953Y-80220675D01*
X138214312Y-47879000D02*
X138305651Y-47787661D01*
X135763000Y-47879000D02*
X138214312Y-47879000D01*
G04 #@! TO.N,ESP-RX*
X126312346Y-82188394D02*
X127839846Y-82188394D01*
X127839846Y-82188394D02*
X127903346Y-82124894D01*
X138301990Y-49784000D02*
X138305651Y-49787661D01*
X135763000Y-49784000D02*
X138301990Y-49784000D01*
G04 #@! TO.N,INTA_Breakout*
X132715000Y-74803000D02*
X131893500Y-74803000D01*
X131893500Y-74803000D02*
X131191000Y-74803000D01*
X131191000Y-74803000D02*
X127635000Y-71247000D01*
G04 #@! TO.N,INTB_Breakout*
X132715000Y-73533000D02*
X131445000Y-73533000D01*
X131445000Y-73533000D02*
X127635000Y-69723000D01*
G04 #@! TO.N,ESP-GPIO4*
X136331339Y-53787661D02*
X138305651Y-53787661D01*
X135763000Y-55880000D02*
X135763000Y-54356000D01*
X135763000Y-54356000D02*
X136331339Y-53787661D01*
X132334000Y-90678000D02*
X133698000Y-90678000D01*
X131572000Y-89916000D02*
X132334000Y-90678000D01*
X132842000Y-86106000D02*
X131572000Y-87376000D01*
X131572000Y-87376000D02*
X131572000Y-89916000D01*
G04 #@! TO.N,Net-(C5-Pad1)*
X124093346Y-92157894D02*
X124093346Y-93675894D01*
X124093346Y-92157894D02*
X124982346Y-91268894D01*
X124982346Y-91268894D02*
X124982346Y-89458894D01*
X124982346Y-88208894D02*
X125713640Y-87477600D01*
X124982346Y-89458894D02*
X124982346Y-88208894D01*
X125713640Y-87477600D02*
X127000000Y-87477600D01*
X127395346Y-87082254D02*
X127395346Y-85458894D01*
X127000000Y-87477600D02*
X127395346Y-87082254D01*
G04 #@! TO.N,Net-(C6-Pad1)*
X123293346Y-92119894D02*
X123293346Y-93675894D01*
X122569346Y-89458894D02*
X122569346Y-91395894D01*
X122569346Y-91395894D02*
X123293346Y-92119894D01*
X120188346Y-89458894D02*
X120156346Y-89490894D01*
X122569346Y-89458894D02*
X120188346Y-89458894D01*
D30*
G04 #@! TO.N,Net-(R5-Pad2)*
X138377651Y-55859661D02*
X138305651Y-55787661D01*
X143564651Y-55859661D02*
X138377651Y-55859661D01*
X145183651Y-47858661D02*
X143405651Y-47858661D01*
X145691651Y-48366661D02*
X145183651Y-47858661D01*
X145691651Y-55482661D02*
X145691651Y-48366661D01*
X143564651Y-55859661D02*
X145314651Y-55859661D01*
X145314651Y-55859661D02*
X145691651Y-55482661D01*
G04 #@! TO.N,Net-(R6-Pad1)*
X139055651Y-59787661D02*
X139064651Y-59796661D01*
X138305651Y-59787661D02*
X139055651Y-59787661D01*
X139064651Y-59796661D02*
X139976651Y-59796661D01*
X141246651Y-61066661D02*
X143564651Y-61066661D01*
X139976651Y-59796661D02*
X141246651Y-61066661D01*
D31*
G04 #@! TO.N,Net-(R7-Pad2)*
X149905651Y-47858661D02*
X147469651Y-50294661D01*
X147469651Y-50294661D02*
X147469651Y-53573661D01*
X147469651Y-53573661D02*
X147977651Y-54081661D01*
X147977651Y-54081661D02*
X149628651Y-54081661D01*
X149628651Y-54081661D02*
X151025651Y-55478661D01*
X151025651Y-55478661D02*
X151025651Y-62463661D01*
X149755651Y-63733661D02*
X147564651Y-63733661D01*
X151025651Y-62463661D02*
X149755651Y-63733661D01*
D30*
G04 #@! TO.N,Net-(R8-Pad2)*
X138305651Y-57787661D02*
X140380651Y-57787661D01*
X140992651Y-58399661D02*
X143564651Y-58399661D01*
X140380651Y-57787661D02*
X140992651Y-58399661D01*
D28*
G04 #@! TO.N,GPIO8*
X132715000Y-84963000D02*
X131292600Y-84963000D01*
X131292600Y-84963000D02*
X131267200Y-84937600D01*
G04 #@! TO.N,GPIO7*
X132715000Y-83693000D02*
X134239000Y-83693000D01*
X134239000Y-83693000D02*
X134264400Y-83718400D01*
G04 #@! TO.N,GPIO6*
X132715000Y-82423000D02*
X134239000Y-82423000D01*
X134239000Y-82423000D02*
X134264400Y-82397600D01*
G04 #@! TO.N,GPIO5*
X132715000Y-81153000D02*
X131089400Y-81153000D01*
X131089400Y-81153000D02*
X131064000Y-81127600D01*
G04 #@! TO.N,GPIO4*
X132715000Y-79883000D02*
X131064000Y-79883000D01*
G04 #@! TO.N,GPIO3*
X132715000Y-78613000D02*
X131064000Y-78613000D01*
G04 #@! TO.N,GPIO2*
X132715000Y-77343000D02*
X131893500Y-77343000D01*
X131893500Y-77343000D02*
X131318000Y-77343000D01*
X131318000Y-77343000D02*
X129413000Y-75438000D01*
X129413000Y-75438000D02*
X129413000Y-75057000D01*
X129413000Y-75057000D02*
X127627894Y-73271894D01*
X127627894Y-73271894D02*
X126492000Y-73271894D01*
G04 #@! TO.N,GPIO1*
X132715000Y-76073000D02*
X131445000Y-76073000D01*
X131445000Y-76073000D02*
X127889000Y-72517000D01*
X127889000Y-72517000D02*
X127639653Y-72267653D01*
X127639653Y-72267653D02*
X127630347Y-72267653D01*
D31*
G04 #@! TO.N,ADC-CH0*
X149733000Y-99695000D02*
X154686000Y-99695000D01*
X139098000Y-98298000D02*
X148336000Y-98298000D01*
X148336000Y-98298000D02*
X149733000Y-99695000D01*
G04 #@! TO.N,ADC-CH1*
X152273000Y-97155000D02*
X154686000Y-97155000D01*
X151765000Y-97663000D02*
X152273000Y-97155000D01*
X150622000Y-97663000D02*
X151765000Y-97663000D01*
X139098000Y-97028000D02*
X149987000Y-97028000D01*
X149987000Y-97028000D02*
X150622000Y-97663000D01*
G04 #@! TO.N,ADC-CH2*
X149987000Y-94615000D02*
X154686000Y-94615000D01*
X139098000Y-95758000D02*
X148844000Y-95758000D01*
X148844000Y-95758000D02*
X149987000Y-94615000D01*
G04 #@! TO.N,ADC-CH3*
X139098000Y-94488000D02*
X147701000Y-94488000D01*
X150114000Y-92075000D02*
X154686000Y-92075000D01*
X147701000Y-94488000D02*
X150114000Y-92075000D01*
G04 #@! TO.N,ADC-CH4*
X139098000Y-93218000D02*
X146812000Y-93218000D01*
X150495000Y-89535000D02*
X154686000Y-89535000D01*
X146812000Y-93218000D02*
X150495000Y-89535000D01*
G04 #@! TO.N,ADC-CH5*
X139098000Y-91948000D02*
X146050000Y-91948000D01*
X151003000Y-86995000D02*
X154686000Y-86995000D01*
X146050000Y-91948000D02*
X151003000Y-86995000D01*
G04 #@! TO.N,ADC-CH6*
X139098000Y-90678000D02*
X145161000Y-90678000D01*
X151384000Y-84455000D02*
X154686000Y-84455000D01*
X145161000Y-90678000D02*
X151384000Y-84455000D01*
G04 #@! TO.N,ADC-CH7*
X151765000Y-81915000D02*
X154686000Y-81915000D01*
X139098000Y-89408000D02*
X144272000Y-89408000D01*
X144272000Y-89408000D02*
X151765000Y-81915000D01*
G04 #@! TO.N,GPIO9*
X152273000Y-79375000D02*
X154686000Y-79375000D01*
X139827000Y-84963000D02*
X146685000Y-84963000D01*
X146685000Y-84963000D02*
X152273000Y-79375000D01*
G04 #@! TO.N,GPIO10*
X152527000Y-76835000D02*
X154686000Y-76835000D01*
X139827000Y-83693000D02*
X145669000Y-83693000D01*
X145669000Y-83693000D02*
X152527000Y-76835000D01*
G04 #@! TO.N,GPIO11*
X139827000Y-82423000D02*
X144526000Y-82423000D01*
X152654000Y-74295000D02*
X154686000Y-74295000D01*
X144526000Y-82423000D02*
X152654000Y-74295000D01*
G04 #@! TO.N,GPIO12*
X152273000Y-71755000D02*
X154686000Y-71755000D01*
X139827000Y-81153000D02*
X142875000Y-81153000D01*
X142875000Y-81153000D02*
X152273000Y-71755000D01*
G04 #@! TO.N,GPIO13*
X139827000Y-79883000D02*
X141478000Y-79883000D01*
G04 #@! TO.N,GPIO14*
X139827000Y-78613000D02*
X141478000Y-78613000D01*
G04 #@! TO.N,GPIO15*
X139827000Y-77343000D02*
X141478000Y-77343000D01*
G04 #@! TO.N,GPIO16*
X139827000Y-76073000D02*
X141478000Y-76073000D01*
G04 #@! TD*
M02*
