G04 #@! TF.GenerationSoftware,KiCad,Pcbnew,(5.0.0)*
G04 #@! TF.CreationDate,2018-09-24T12:18:47+08:00*
G04 #@! TF.ProjectId,Clouduino Stratus v1.0,436C6F756475696E6F20537472617475,rev?*
G04 #@! TF.SameCoordinates,Original*
G04 #@! TF.FileFunction,Copper,L4,Bot,Signal*
G04 #@! TF.FilePolarity,Positive*
%FSLAX46Y46*%
G04 Gerber Fmt 4.6, Leading zero omitted, Abs format (unit mm)*
G04 Created by KiCad (PCBNEW (5.0.0)) date 09/24/18 12:18:47*
%MOMM*%
%LPD*%
G01*
G04 APERTURE LIST*
G04 #@! TA.AperFunction,ComponentPad*
%ADD10C,1.700000*%
G04 #@! TD*
G04 #@! TA.AperFunction,ComponentPad*
%ADD11C,2.000000*%
G04 #@! TD*
G04 #@! TA.AperFunction,ComponentPad*
%ADD12R,2.000000X2.000000*%
G04 #@! TD*
G04 #@! TA.AperFunction,ViaPad*
%ADD13C,0.800000*%
G04 #@! TD*
G04 #@! TA.AperFunction,Conductor*
%ADD14C,0.250000*%
G04 #@! TD*
G04 #@! TA.AperFunction,Conductor*
%ADD15C,0.500000*%
G04 #@! TD*
G04 APERTURE END LIST*
D10*
G04 #@! TO.P,Reset,4*
G04 #@! TO.N,N/C*
X118005651Y-52358661D03*
G04 #@! TO.P,Reset,3*
X111505651Y-52358661D03*
G04 #@! TO.P,Reset,2*
G04 #@! TO.N,Net-(SW1-Pad2)*
X118005651Y-47858661D03*
G04 #@! TO.P,Reset,1*
G04 #@! TO.N,GND*
X111505651Y-47858661D03*
G04 #@! TD*
G04 #@! TO.P,Boot,1*
G04 #@! TO.N,Net-(R5-Pad2)*
X143405651Y-47858661D03*
G04 #@! TO.P,Boot,2*
G04 #@! TO.N,Net-(R7-Pad2)*
X149905651Y-47858661D03*
G04 #@! TO.P,Boot,3*
G04 #@! TO.N,N/C*
X143405651Y-52358661D03*
G04 #@! TO.P,Boot,4*
X149905651Y-52358661D03*
G04 #@! TD*
D11*
G04 #@! TO.P,J2,16*
G04 #@! TO.N,5V-USB*
X107061000Y-99695000D03*
G04 #@! TO.P,J2,15*
G04 #@! TO.N,VCC*
X107061000Y-97155000D03*
G04 #@! TO.P,J2,14*
X107061000Y-94615000D03*
G04 #@! TO.P,J2,13*
X107061000Y-92075000D03*
G04 #@! TO.P,J2,12*
G04 #@! TO.N,GND*
X107061000Y-89535000D03*
G04 #@! TO.P,J2,11*
G04 #@! TO.N,GPIO8*
X107061000Y-86995000D03*
G04 #@! TO.P,J2,10*
G04 #@! TO.N,GPIO7*
X107061000Y-84455000D03*
G04 #@! TO.P,J2,9*
G04 #@! TO.N,GPIO6*
X107061000Y-81915000D03*
G04 #@! TO.P,J2,8*
G04 #@! TO.N,VIN_Breakout*
X107061000Y-79375000D03*
G04 #@! TO.P,J2,7*
G04 #@! TO.N,GPIO5*
X107061000Y-76835000D03*
G04 #@! TO.P,J2,6*
G04 #@! TO.N,GPIO4*
X107061000Y-74295000D03*
G04 #@! TO.P,J2,5*
G04 #@! TO.N,GPIO3*
X107061000Y-71755000D03*
G04 #@! TO.P,J2,4*
G04 #@! TO.N,GPIO2*
X107061000Y-69215000D03*
G04 #@! TO.P,J2,3*
G04 #@! TO.N,GPIO1*
X107061000Y-66675000D03*
G04 #@! TO.P,J2,2*
G04 #@! TO.N,INTA_Breakout*
X107061000Y-64135000D03*
D12*
G04 #@! TO.P,J2,1*
G04 #@! TO.N,INTB_Breakout*
X107061000Y-61595000D03*
G04 #@! TD*
G04 #@! TO.P,J3,1*
G04 #@! TO.N,ADC-CH0*
X154686000Y-99695000D03*
D11*
G04 #@! TO.P,J3,2*
G04 #@! TO.N,ADC-CH1*
X154686000Y-97155000D03*
G04 #@! TO.P,J3,3*
G04 #@! TO.N,ADC-CH2*
X154686000Y-94615000D03*
G04 #@! TO.P,J3,4*
G04 #@! TO.N,ADC-CH3*
X154686000Y-92075000D03*
G04 #@! TO.P,J3,5*
G04 #@! TO.N,ADC-CH4*
X154686000Y-89535000D03*
G04 #@! TO.P,J3,6*
G04 #@! TO.N,ADC-CH5*
X154686000Y-86995000D03*
G04 #@! TO.P,J3,7*
G04 #@! TO.N,ADC-CH6*
X154686000Y-84455000D03*
G04 #@! TO.P,J3,8*
G04 #@! TO.N,ADC-CH7*
X154686000Y-81915000D03*
G04 #@! TO.P,J3,9*
G04 #@! TO.N,GPIO9*
X154686000Y-79375000D03*
G04 #@! TO.P,J3,10*
G04 #@! TO.N,GPIO10*
X154686000Y-76835000D03*
G04 #@! TO.P,J3,11*
G04 #@! TO.N,GPIO11*
X154686000Y-74295000D03*
G04 #@! TO.P,J3,12*
G04 #@! TO.N,GPIO12*
X154686000Y-71755000D03*
G04 #@! TO.P,J3,13*
G04 #@! TO.N,GPIO13*
X154686000Y-69215000D03*
G04 #@! TO.P,J3,14*
G04 #@! TO.N,GPIO14*
X154686000Y-66675000D03*
G04 #@! TO.P,J3,15*
G04 #@! TO.N,GPIO15*
X154686000Y-64135000D03*
G04 #@! TO.P,J3,16*
G04 #@! TO.N,GPIO16*
X154686000Y-61595000D03*
G04 #@! TD*
D13*
G04 #@! TO.N,ESP-GPIO12*
X131953000Y-93218000D03*
X139573000Y-67310000D03*
G04 #@! TO.N,ESP-GPIO13*
X131228000Y-91948000D03*
X138049000Y-66802000D03*
G04 #@! TO.N,ESP-GPIO14*
X131699000Y-61214000D03*
X131699000Y-56769000D03*
X131953000Y-94488000D03*
X136779000Y-72390000D03*
G04 #@! TO.N,ESP-GPIO5*
X141351000Y-71628000D03*
X141605000Y-54102000D03*
G04 #@! TO.N,ESP-TX*
X127903953Y-80220675D03*
X135763000Y-47879000D03*
G04 #@! TO.N,ESP-RX*
X127903346Y-82124894D03*
X135763000Y-49784000D03*
G04 #@! TO.N,INTA_Breakout*
X127635000Y-71247000D03*
G04 #@! TO.N,INTB_Breakout*
X127635000Y-69723000D03*
G04 #@! TO.N,ESP-GPIO4*
X135763000Y-55880000D03*
X132842000Y-86106000D03*
G04 #@! TO.N,GPIO8*
X131267200Y-84937600D03*
G04 #@! TO.N,GPIO7*
X134264400Y-83718400D03*
G04 #@! TO.N,GPIO6*
X134264400Y-82397600D03*
G04 #@! TO.N,GPIO5*
X131064000Y-81127600D03*
G04 #@! TO.N,GPIO4*
X131064000Y-79883000D03*
G04 #@! TO.N,GPIO3*
X131064000Y-78613000D03*
G04 #@! TO.N,GPIO2*
X126492000Y-73271894D03*
G04 #@! TO.N,GPIO1*
X127630347Y-72267653D03*
G04 #@! TO.N,GPIO13*
X141478000Y-79883000D03*
G04 #@! TO.N,GPIO14*
X141478000Y-78613000D03*
G04 #@! TO.N,GPIO15*
X141478000Y-77343000D03*
G04 #@! TO.N,GPIO16*
X141478000Y-76073000D03*
G04 #@! TD*
D14*
G04 #@! TO.N,ESP-GPIO12*
X131953000Y-93218000D02*
X131953000Y-89154000D01*
X131953000Y-89154000D02*
X131953000Y-88900000D01*
X131953000Y-88900000D02*
X132715000Y-88138000D01*
X132715000Y-88138000D02*
X137795000Y-88138000D01*
X137795000Y-88138000D02*
X138557000Y-87376000D01*
X138557000Y-87376000D02*
X138557000Y-67691000D01*
X138557000Y-67691000D02*
X138938000Y-67310000D01*
X138938000Y-67310000D02*
X139573000Y-67310000D01*
G04 #@! TO.N,ESP-GPIO13*
X131228000Y-91948000D02*
X131228000Y-88609000D01*
X131228000Y-88609000D02*
X132461000Y-87376000D01*
X132461000Y-87376000D02*
X137541000Y-87376000D01*
X137541000Y-87376000D02*
X138049000Y-86868000D01*
X138049000Y-86868000D02*
X138049000Y-85090000D01*
X138049000Y-85090000D02*
X138049000Y-67562590D01*
X138049000Y-67562590D02*
X138049000Y-66802000D01*
D15*
G04 #@! TO.N,ESP-GPIO14*
X131699000Y-61214000D02*
X131699000Y-56769000D01*
D14*
X131953000Y-94488000D02*
X130302000Y-92837000D01*
X130302000Y-92837000D02*
X130302000Y-91800998D01*
X130302000Y-91800998D02*
X130302000Y-88898590D01*
X130302000Y-88898590D02*
X130302000Y-88519000D01*
X130302000Y-88519000D02*
X131953000Y-86868000D01*
X131953000Y-86868000D02*
X137287000Y-86868000D01*
X137287000Y-86868000D02*
X137541000Y-86614000D01*
X137541000Y-86614000D02*
X137541000Y-73152000D01*
X137541000Y-73152000D02*
X136779000Y-72390000D01*
D15*
G04 #@! TO.N,ESP-GPIO5*
X141351000Y-71628000D02*
X141351000Y-71062315D01*
X141351000Y-71062315D02*
X141351000Y-68199000D01*
X141351000Y-68199000D02*
X142875000Y-66675000D01*
X142875000Y-66675000D02*
X145161000Y-64389000D01*
X145161000Y-64389000D02*
X145542000Y-64008000D01*
X145542000Y-64008000D02*
X145542000Y-54737000D01*
X145542000Y-54737000D02*
X144907000Y-54102000D01*
X144907000Y-54102000D02*
X141605000Y-54102000D01*
D14*
G04 #@! TO.N,ESP-TX*
X128469638Y-80220675D02*
X128651000Y-80039313D01*
X127903953Y-80220675D02*
X128469638Y-80220675D01*
X128651000Y-80039313D02*
X128651000Y-50546000D01*
X128651000Y-50546000D02*
X131318000Y-47879000D01*
X131318000Y-47879000D02*
X135763000Y-47879000D01*
G04 #@! TO.N,ESP-RX*
X128469031Y-82124894D02*
X129286000Y-81307925D01*
X127903346Y-82124894D02*
X128469031Y-82124894D01*
X129286000Y-81307925D02*
X129286000Y-80010000D01*
X129286000Y-80010000D02*
X129286000Y-74549000D01*
X129286000Y-74549000D02*
X129286000Y-63881000D01*
X129286000Y-63881000D02*
X129286000Y-50800000D01*
X129286000Y-50800000D02*
X130048000Y-50038000D01*
X130048000Y-50038000D02*
X130302000Y-49784000D01*
X130302000Y-49784000D02*
X135763000Y-49784000D01*
G04 #@! TO.N,INTA_Breakout*
X109728000Y-64135000D02*
X107061000Y-64135000D01*
X110744000Y-65151000D02*
X109728000Y-64135000D01*
X116332000Y-65151000D02*
X110744000Y-65151000D01*
X127635000Y-71247000D02*
X122428000Y-71247000D01*
X122428000Y-71247000D02*
X116332000Y-65151000D01*
G04 #@! TO.N,INTB_Breakout*
X127635000Y-69723000D02*
X122936000Y-69723000D01*
X122936000Y-69723000D02*
X116967000Y-63754000D01*
X116967000Y-63754000D02*
X111633000Y-63754000D01*
X109474000Y-61595000D02*
X107061000Y-61595000D01*
X111633000Y-63754000D02*
X109474000Y-61595000D01*
G04 #@! TO.N,ESP-GPIO4*
X135763000Y-65532000D02*
X135763000Y-63373000D01*
X135763000Y-63373000D02*
X135763000Y-55880000D01*
X135763000Y-73025000D02*
X135763000Y-65532000D01*
X136906000Y-74168000D02*
X135763000Y-73025000D01*
X136906000Y-85852000D02*
X136906000Y-74168000D01*
X132842000Y-86106000D02*
X136652000Y-86106000D01*
X136652000Y-86106000D02*
X136906000Y-85852000D01*
G04 #@! TO.N,GPIO8*
X115443000Y-86995000D02*
X107061000Y-86995000D01*
X116230400Y-87782400D02*
X115443000Y-86995000D01*
X116230400Y-91389200D02*
X116230400Y-87782400D01*
X118313200Y-93472000D02*
X116230400Y-91389200D01*
X120360050Y-99532050D02*
X118313200Y-97485200D01*
X118313200Y-97485200D02*
X118313200Y-93472000D01*
X129416830Y-94357783D02*
X129758047Y-94699005D01*
X131267200Y-84937600D02*
X129416830Y-86787970D01*
X129758047Y-94699005D02*
X129758045Y-97579005D01*
X129416830Y-86787970D02*
X129416830Y-94357783D01*
X129758045Y-97579005D02*
X127805000Y-99532050D01*
X127805000Y-99532050D02*
X120360050Y-99532050D01*
G04 #@! TO.N,GPIO7*
X116687600Y-85293200D02*
X115849400Y-84455000D01*
X116687600Y-91186000D02*
X116687600Y-85293200D01*
X118770400Y-93268800D02*
X116687600Y-91186000D01*
X118770400Y-97282000D02*
X118770400Y-93268800D01*
X120570440Y-99082040D02*
X118770400Y-97282000D01*
X127618600Y-99082040D02*
X120570440Y-99082040D01*
X115849400Y-84455000D02*
X107061000Y-84455000D01*
X129308036Y-97392604D02*
X127618600Y-99082040D01*
X131216400Y-83718400D02*
X128966820Y-85967980D01*
X134264400Y-83718400D02*
X131216400Y-83718400D01*
X128966820Y-85967980D02*
X128966820Y-94544180D01*
X128966820Y-94544180D02*
X129047518Y-94624880D01*
X129047518Y-94624880D02*
X129308038Y-94885403D01*
X129308038Y-94885403D02*
X129308036Y-97392604D01*
G04 #@! TO.N,GPIO6*
X109905800Y-81915000D02*
X107061000Y-81915000D01*
X110591600Y-81229200D02*
X109905800Y-81915000D01*
X128516810Y-94730580D02*
X128778000Y-94991772D01*
X128778000Y-94991772D02*
X128858029Y-95071802D01*
X128516810Y-85859190D02*
X128516810Y-94730580D01*
X117144800Y-90982800D02*
X117144800Y-81584800D01*
X128524000Y-85852000D02*
X128516810Y-85859190D01*
X116789200Y-81229200D02*
X110591600Y-81229200D01*
X128524000Y-85394800D02*
X128524000Y-85852000D01*
X119227600Y-93065600D02*
X117144800Y-90982800D01*
X131521200Y-82397600D02*
X128524000Y-85394800D01*
X134264400Y-82397600D02*
X131521200Y-82397600D01*
X119227600Y-97078800D02*
X119227600Y-93065600D01*
X128858029Y-95071802D02*
X128858027Y-97206203D01*
X128858027Y-97206203D02*
X127432200Y-98632030D01*
X127432200Y-98632030D02*
X120780830Y-98632030D01*
X120780830Y-98632030D02*
X119227600Y-97078800D01*
X117144800Y-81584800D02*
X116789200Y-81229200D01*
G04 #@! TO.N,GPIO5*
X114274600Y-76835000D02*
X107061000Y-76835000D01*
X117602000Y-80162400D02*
X114274600Y-76835000D01*
X117602000Y-90779600D02*
X117602000Y-80162400D01*
X119684800Y-92862400D02*
X117602000Y-90779600D01*
X120991220Y-98182020D02*
X119684800Y-96875600D01*
X127245800Y-98182020D02*
X120991220Y-98182020D01*
X131064000Y-81737200D02*
X128066800Y-84734400D01*
X131064000Y-81127600D02*
X131064000Y-81737200D01*
X128066800Y-94916980D02*
X128408019Y-95258201D01*
X119684800Y-96875600D02*
X119684800Y-92862400D01*
X128408019Y-95258201D02*
X128408018Y-97019802D01*
X128066800Y-84734400D02*
X128066800Y-94916980D01*
X128408018Y-97019802D02*
X127245800Y-98182020D01*
G04 #@! TO.N,GPIO4*
X114173000Y-74295000D02*
X107061000Y-74295000D01*
X127636410Y-84201000D02*
X127518357Y-84319053D01*
X121225600Y-97732010D02*
X120142000Y-96648410D01*
X130186325Y-80194990D02*
X130186324Y-81680421D01*
X131064000Y-79883000D02*
X130498315Y-79883000D01*
X127059400Y-97732010D02*
X121225600Y-97732010D01*
X120142000Y-92583000D02*
X118237000Y-90678000D01*
X130498315Y-79883000D02*
X130186325Y-80194990D01*
X118237000Y-78359000D02*
X114173000Y-74295000D01*
X130186324Y-81680421D02*
X127665745Y-84201000D01*
X127518357Y-84319053D02*
X127518357Y-95004947D01*
X127518357Y-95004947D02*
X127958010Y-95444600D01*
X127958010Y-95444600D02*
X127958009Y-96833401D01*
X127958009Y-96833401D02*
X127059400Y-97732010D01*
X127665745Y-84201000D02*
X127636410Y-84201000D01*
X118237000Y-90678000D02*
X118237000Y-78359000D01*
X120142000Y-96648410D02*
X120142000Y-92583000D01*
G04 #@! TO.N,GPIO3*
X113284000Y-71755000D02*
X107061000Y-71755000D01*
X127508000Y-95631000D02*
X127508000Y-96647000D01*
X127537335Y-83693000D02*
X127508000Y-83693000D01*
X129736315Y-81494020D02*
X127537335Y-83693000D01*
X129736315Y-79375000D02*
X129736315Y-81494020D01*
X131064000Y-78613000D02*
X130498315Y-78613000D01*
X130498315Y-78613000D02*
X129736315Y-79375000D01*
X120650000Y-96520000D02*
X120650000Y-92329000D01*
X127068347Y-84132653D02*
X127068347Y-95191347D01*
X127508000Y-83693000D02*
X127068347Y-84132653D01*
X121412000Y-97282000D02*
X120650000Y-96520000D01*
X127068347Y-95191347D02*
X127508000Y-95631000D01*
X127508000Y-96647000D02*
X126873000Y-97282000D01*
X120650000Y-92329000D02*
X118745000Y-90424000D01*
X118745000Y-90424000D02*
X118745000Y-77216000D01*
X126873000Y-97282000D02*
X121412000Y-97282000D01*
X118745000Y-77216000D02*
X113284000Y-71755000D01*
G04 #@! TO.N,GPIO2*
X125926315Y-73271894D02*
X125919209Y-73279000D01*
X126492000Y-73271894D02*
X125926315Y-73271894D01*
X125919209Y-73279000D02*
X120523000Y-73279000D01*
X116459000Y-69215000D02*
X107061000Y-69215000D01*
X120523000Y-73279000D02*
X116459000Y-69215000D01*
G04 #@! TO.N,GPIO1*
X127630347Y-72267653D02*
X122178653Y-72267653D01*
X122178653Y-72267653D02*
X116586000Y-66675000D01*
X116586000Y-66675000D02*
X107061000Y-66675000D01*
D15*
G04 #@! TO.N,GPIO13*
X141478000Y-79883000D02*
X142367000Y-79883000D01*
X153035000Y-69215000D02*
X154686000Y-69215000D01*
X142367000Y-79883000D02*
X153035000Y-69215000D01*
G04 #@! TO.N,GPIO14*
X152654000Y-66675000D02*
X154686000Y-66675000D01*
X152019000Y-67310000D02*
X152654000Y-66675000D01*
X141478000Y-78613000D02*
X152019000Y-68072000D01*
X152019000Y-68072000D02*
X152019000Y-67310000D01*
G04 #@! TO.N,GPIO15*
X152527000Y-64135000D02*
X154686000Y-64135000D01*
X150749000Y-65913000D02*
X152527000Y-64135000D01*
X141478000Y-77343000D02*
X150749000Y-68072000D01*
X150749000Y-68072000D02*
X150749000Y-65913000D01*
G04 #@! TO.N,GPIO16*
X151511000Y-61595000D02*
X154686000Y-61595000D01*
X149479000Y-63627000D02*
X151511000Y-61595000D01*
X141478000Y-76073000D02*
X149479000Y-68072000D01*
X149479000Y-68072000D02*
X149479000Y-63627000D01*
G04 #@! TD*
M02*
